{
copyright = "Copyright (c) 2022 by Thanos Poulakidas. All rights reserved.";
designer = "Thanos Poulakidas";
familyName = Geom;
customParameters = (
{
name = glyphOrder;
value = (
.notdef,
uni0000,
uni000D,
space,
quotedbl,
numbersign,
dollar,
percent,
ampersand,
quotesingle,
parenleft,
parenright,
asterisk,
plus,
comma,
hyphen,
period,
slash,
zero,
one,
two,
three,
four,
five,
six,
seven,
eight,
nine,
colon,
semicolon,
less,
equal,
greater,
question,
at,
A,
B,
C,
D,
E,
F,
G,
H,
I,
J,
K,
L,
M,
N,
O,
P,
Q,
R,
S,
T,
U,
V,
W,
X,
Y,
Z,
bracketleft,
backslash,
bracketright,
asciicircum,
underscore,
grave,
a,
b,
c,
d,
e,
f,
g,
h,
i,
j,
k,
l,
m,
n,
o,
p,
q,
r,
s,
t,
u,
v,
w,
x,
y,
z,
braceleft,
bar,
braceright,
asciitilde,
Euro,
quotesinglbase,
florin,
quotedblbase,
ellipsis,
dagger,
daggerdbl,
circumflex,
perthousand,
guilsinglleft,
quoteleft,
quoteright,
quotedblleft,
quotedblright,
bullet,
endash,
emdash,
tilde,
trademark,
guilsinglright,
exclamdown,
cent,
sterling,
currency,
yen,
brokenbar,
section,
dieresis,
copyright,
ordfeminine,
guillemotleft,
logicalnot,
registered,
degree,
plusminus,
acute,
paragraph,
cedilla,
ordmasculine,
guillemotright,
onequarter,
onehalf,
threequarters,
questiondown,
germandbls,
divide,
oslash,
fraction,
fi,
fl,
breve,
dotaccent,
ring,
hungarumlaut,
ogonek,
caron,
dotlessi,
greaterequal,
radical,
notequal,
product,
summation,
lessequal,
uni02C9,
lozenge,
minus,
uni2215,
approxequal,
integral,
uni2113,
partialdiff,
uni2206,
infinity,
uni2126,
uni2219,
estimated,
exclam,
Alpha,
Epsilon,
Eta,
Iota,
Kappa,
Mu,
Nu,
Omicron,
Chi,
Tau,
Rho,
Upsilon,
uni0394,
uni03A9,
Lambda,
Beta,
Zeta,
Pi,
Xi,
Sigma,
Psi,
omicron,
kappa,
nu,
tonos,
Alphatonos,
Epsilontonos,
Etatonos,
Iotatonos,
Omicrontonos,
Upsilontonos,
Gamma,
Theta,
Iotadieresis,
Upsilondieresis,
dieresistonos,
alpha,
rho,
iota,
eta,
gamma,
upsilon,
beta,
pi,
uni03BC,
tau,
Phi,
chi,
sigma,
theta,
lambda,
psi,
epsilon,
delta,
alphatonos,
etatonos,
iotatonos,
omicrontonos,
upsilontonos,

glyphs = (
{
glyphname = .notdef;
layers = (
{
hints = (
{
horizontal = 1;
place = "{0, 57}";
type = Stem;
},
{
horizontal = 1;
place = "{663, 57}";
type = Stem;
},
{
place = "{-6, 65}";
type = Stem;
},
{
place = "{454, 65}";
type = Stem;
}
);
layerId = "F34C6FC4-EF5D-4900-948D-0C8CFE233EE1";
paths = (
{
closed = 1;
nodes = (
"-6 0 LINE",
"519 0 LINE",
"519 720 LINE",
"-6 720 LINE"
);
},
{
closed = 1;
nodes = (
"256 419 LINE",
"91 663 LINE",
"421 663 LINE"
);
},
{
closed = 1;
nodes = (
"59 600 LINE",
"219 360 LINE",
"59 123 LINE"
);
},
{
closed = 1;
nodes = (
"294 360 LINE",
"454 599 LINE",
"454 123 LINE"
);
},
{
closed = 1;
nodes = (
"91 57 LINE",
"256 303 LINE",
"421 57 LINE"
);
}
);
width = 515;
}
);
},
{
glyphname = quotedbl;
layers = (
{
hints = (
{
place = "{53, 296}";
type = Stem;
},
{
horizontal = 1;
place = "{443, 265}";
type = Stem;
},
{
horizontal = 1;
place = "{708, -20}";
target = down;
type = TopGhost;
}
);
layerId = "F34C6FC4-EF5D-4900-948D-0C8CFE233EE1";
paths = (
{
closed = 1;
nodes = (
"108 443 LINE",
"170 708 LINE",
"79 708 LINE",
"53 443 LINE"
);
},
{
closed = 1;
nodes = (
"232 443 LINE",
"287 443 LINE",
"349 708 LINE",
"258 708 LINE"
);
}
);
width = 401;
}
);
unicode = 0022;
},
{
glyphname = numbersign;
layers = (
{
hints = (
{
horizontal = 1;
place = "{0, 21}";
target = up;
type = BottomGhost;
},
{
horizontal = 1;
place = "{194, 72}";
type = Stem;
},
{
horizontal = 1;
place = "{446, 72}";
type = Stem;
},
{
horizontal = 1;
place = "{706, -20}";
target = down;
type = TopGhost;
},
{
place = "{39, 563}";
type = Stem;
}
);
layerId = "F34C6FC4-EF5D-4900-948D-0C8CFE233EE1";
paths = (
{
closed = 1;
nodes = (
"114 0 LINE",
"187 0 LINE",
"216 194 LINE",
"379 194 LINE",
"351 0 LINE",
"424 0 LINE",
"452 194 LINE",
"569 194 LINE",
"569 266 LINE",
"463 266 LINE",
"492 446 LINE",
"602 446 LINE",
"602 518 LINE",
"503 518 LINE",
"529 706 LINE",
"457 706 LINE",
"430 518 LINE",
"267 518 LINE",
"294 706 LINE",
"222 706 LINE",
"193 518 LINE",
"72 518 LINE",
"72 446 LINE",
"183 446 LINE",
"155 266 LINE",
"39 266 LINE",
"39 195 LINE",
"144 195 LINE"
);
},
{
closed = 1;
nodes = (
"419 446 LINE",
"390 266 LINE",
"227 266 LINE",
"255 446 LINE"
);
}
);
width = 640;
}
);
unicode = 0023;
},
{
glyphname = dollar;
layers = (
{
hints = (
{
place = "{97, 82}";
type = Stem;
},
{
place = "{291, 65}";
type = Stem;
},
{
place = "{474, 82}";
type = Stem;
},
{
horizontal = 1;
place = "{-4, 69}";
type = Stem;
},
{
horizontal = 1;
place = "{638, 73}";
type = Stem;
},
{
horizontal = 1;
place = "{638, 139}";
type = Stem;
},
{
horizontal = 1;
place = "{710, -20}";
target = down;
type = TopGhost;
},
{
horizontal = 1;
place = "{711, -20}";
target = down;
type = TopGhost;
}
);
layerId = "F34C6FC4-EF5D-4900-948D-0C8CFE233EE1";
paths = (
{
closed = 1;
nodes = (
"291 -95 LINE",
"356 -95 LINE",
"356 -4 LINE",
"472 9 OFFCURVE",
"556 86 OFFCURVE",
"556 192 CURVE SMOOTH",
"556 283 OFFCURVE",
"494 340 OFFCURVE",
"355 389 CURVE",
"355 638 LINE",
"403 633 OFFCURVE",
"446 607 OFFCURVE",
"470 572 CURVE",
"521 624 LINE",
"493 663 OFFCURVE",
"444 703 OFFCURVE",
"356 711 CURVE",
"356 777 LINE",
"291 777 LINE",
"291 710 LINE",
"182 699 OFFCURVE",
"97 628 OFFCURVE",
"97 525 CURVE SMOOTH",
"97 423 OFFCURVE",
"171 365 OFFCURVE",
"291 322 CURVE",
"291 65 LINE",
"216 69 OFFCURVE",
"159 107 OFFCURVE",
"116 151 CURVE",
"68 98 LINE",
"119 42 OFFCURVE",
"195 -4 OFFCURVE",
"291 -4 CURVE"
);
},
{
closed = 1;
nodes = (
"179 591 OFFCURVE",
"218 632 OFFCURVE",
"291 640 CURVE",
"291 412 LINE",
"223 443 OFFCURVE",
"179 473 OFFCURVE",
"179 534 CURVE SMOOTH"
);
},
{
closed = 1;
nodes = (
"474 122 OFFCURVE",
"437 78 OFFCURVE",
"356 66 CURVE",
"356 302 LINE",
"455 270 OFFCURVE",
"474 219 OFFCURVE",
"474 179 CURVE SMOOTH"
);
}
);
width = 633;
}
);
unicode = 0024;
},
{
glyphname = percent;
layers = (
{
hints = (
{
place = "{31, 67}";
type = Stem;
},
{
place = "{295, 67}";
type = Stem;
},
{
place = "{451, 67}";
type = Stem;
},
{
place = "{714, 67}";
type = Stem;
},
{
horizontal = 1;
place = "{-11, 60}";
type = Stem;
},
{
horizontal = 1;
place = "{-4, 21}";
target = up;
type = BottomGhost;
},
{
horizontal = 1;
place = "{288, 60}";
type = Stem;
},
{
horizontal = 1;
place = "{361, 60}";
type = Stem;
},
{
horizontal = 1;
place = "{663, 60}";
type = Stem;
},
{
horizontal = 1;
place = "{709, -20}";
target = down;
type = TopGhost;
}
);
layerId = "F34C6FC4-EF5D-4900-948D-0C8CFE233EE1";
paths = (
{
closed = 1;
nodes = (
"362 644 OFFCURVE",
"297 723 OFFCURVE",
"197 723 CURVE SMOOTH",
"101 723 OFFCURVE",
"31 643 OFFCURVE",
"31 543 CURVE SMOOTH",
"31 441 OFFCURVE",
"98 361 OFFCURVE",
"196 361 CURVE SMOOTH",
"295 361 OFFCURVE",
"362 443 OFFCURVE",
"362 544 CURVE SMOOTH"
);
},
{
closed = 1;
nodes = (
"677 709 LINE",
"611 723 LINE",
"129 -4 LINE",
"195 -19 LINE"
);
},
{
closed = 1;
nodes = (
"295 471 OFFCURVE",
"260 421 OFFCURVE",
"197 421 CURVE SMOOTH",
"137 421 OFFCURVE",
"98 470 OFFCURVE",
"98 543 CURVE SMOOTH",
"98 612 OFFCURVE",
"136 663 OFFCURVE",
"196 663 CURVE SMOOTH",
"252 663 OFFCURVE",
"295 615 OFFCURVE",
"295 539 CURVE SMOOTH"
);
},
{
closed = 1;
nodes = (
"781 269 OFFCURVE",
"715 348 OFFCURVE",
"616 348 CURVE SMOOTH",
"521 348 OFFCURVE",
"451 269 OFFCURVE",
"451 168 CURVE SMOOTH",
"451 69 OFFCURVE",
"515 -11 OFFCURVE",
"615 -11 CURVE SMOOTH",
"714 -11 OFFCURVE",
"781 69 OFFCURVE",
"781 169 CURVE SMOOTH"
);
},
{
closed = 1;
nodes = (
"714 100 OFFCURVE",
"677 49 OFFCURVE",
"616 49 CURVE SMOOTH",
"560 49 OFFCURVE",
"518 93 OFFCURVE",
"518 168 CURVE SMOOTH",
"518 240 OFFCURVE",
"555 288 OFFCURVE",
"615 288 CURVE SMOOTH",
"674 288 OFFCURVE",
"714 240 OFFCURVE",
"714 168 CURVE SMOOTH"
);
}
);
width = 814;
}
);
unicode = 0025;
},
{
glyphname = ampersand;
layers = (
{
hints = (
{
place = "{32, 87}";
type = Stem;
},
{
place = "{133, 80}";
type = Stem;
},
{
place = "{397, 80}";
type = Stem;
},
{
horizontal = 1;
place = "{-11, 68}";
type = Stem;
},
{
horizontal = 1;
place = "{-5, 21}";
target = up;
type = BottomGhost;
},
{
horizontal = 1;
place = "{651, 68}";
type = Stem;
}
);
layerId = "F34C6FC4-EF5D-4900-948D-0C8CFE233EE1";
paths = (
{
closed = 1;
nodes = (
"557 371 LINE",
"533 315 OFFCURVE",
"507 268 OFFCURVE",
"474 217 CURVE",
"320 388 LINE",
"413 427 OFFCURVE",
"477 479 OFFCURVE",
"477 568 CURVE SMOOTH",
"477 651 OFFCURVE",
"407 719 OFFCURVE",
"307 719 CURVE SMOOTH",
"208 719 OFFCURVE",
"133 656 OFFCURVE",
"133 561 CURVE SMOOTH",
"133 505 OFFCURVE",
"161 457 OFFCURVE",
"202 406 CURVE",
"95 366 OFFCURVE",
"32 296 OFFCURVE",
"32 192 CURVE SMOOTH",
"32 68 OFFCURVE",
"129 -11 OFFCURVE",
"254 -11 CURVE SMOOTH",
"343 -11 OFFCURVE",
"409 27 OFFCURVE",
"470 91 CURVE",
"563 -5 LINE",
"655 12 LINE",
"522 158 LINE",
"562 217 OFFCURVE",
"598 280 OFFCURVE",
"630 347 CURVE"
);
},
{
closed = 1;
nodes = (
"357 651 OFFCURVE",
"397 616 OFFCURVE",
"397 563 CURVE SMOOTH",
"397 508 OFFCURVE",
"345 463 OFFCURVE",
"278 438 CURVE",
"238 485 OFFCURVE",
"213 523 OFFCURVE",
"213 562 CURVE SMOOTH",
"213 615 OFFCURVE",
"253 651 OFFCURVE",
"306 651 CURVE SMOOTH"
);
},
{
closed = 1;
nodes = (
"422 150 LINE",
"379 97 OFFCURVE",
"326 57 OFFCURVE",
"259 57 CURVE SMOOTH",
"175 57 OFFCURVE",
"119 119 OFFCURVE",
"119 196 CURVE SMOOTH",
"119 268 OFFCURVE",
"164 317 OFFCURVE",
"244 352 CURVE"
);
}
);
width = 658;
}
);
unicode = 0026;
},
{
glyphname = quotesingle;
layers = (
{
hints = (
{
horizontal = 1;
place = "{708, -20}";
target = down;
type = TopGhost;
},
{
place = "{53, 117}";
type = Stem;
}
);
layerId = "F34C6FC4-EF5D-4900-948D-0C8CFE233EE1";
paths = (
{
closed = 1;
nodes = (
"53 443 LINE",
"108 443 LINE",
"170 708 LINE",
"78 708 LINE"
);
}
);
width = 222;
}
);
unicode = 0027;
},
{
glyphname = parenleft;
layers = (
{
hints = (
{
horizontal = 1;
place = "{-164, 901}";
type = Stem;
},
{
place = "{67, 82}";
type = Stem;
}
);
layerId = "F34C6FC4-EF5D-4900-948D-0C8CFE233EE1";
paths = (
{
closed = 1;
nodes = (
"149 443 OFFCURVE",
"211 565 OFFCURVE",
"336 686 CURVE",
"292 737 LINE",
"145 609 OFFCURVE",
"67 464 OFFCURVE",
"67 284 CURVE SMOOTH",
"67 101 OFFCURVE",
"152 -49 OFFCURVE",
"294 -164 CURVE",
"335 -114 LINE",
"210 7 OFFCURVE",
"149 127 OFFCURVE",
"149 284 CURVE SMOOTH"
);
}
);
width = 356;
}
);
unicode = 0028;
},
{
glyphname = parenright;
layers = (
{
hints = (
{
horizontal = 1;
place = "{-164, 901}";
type = Stem;
},
{
place = "{210, 82}";
type = Stem;
}
);
layerId = "F34C6FC4-EF5D-4900-948D-0C8CFE233EE1";
paths = (
{
closed = 1;
nodes = (
"210 131 OFFCURVE",
"153 7 OFFCURVE",
"22 -114 CURVE",
"65 -164 LINE",
"207 -43 OFFCURVE",
"292 103 OFFCURVE",
"292 284 CURVE SMOOTH",
"292 462 OFFCURVE",
"213 606 OFFCURVE",
"66 737 CURVE",
"21 686 LINE",
"154 565 OFFCURVE",
"210 439 OFFCURVE",
"210 284 CURVE SMOOTH"
);
}
);
width = 360;
}
);
unicode = 0029;
},
{
glyphname = asterisk;
layers = (
{
hints = (
{
horizontal = 1;
place = "{440, 285}";
type = Stem;
},
{
place = "{150, 61}";
type = Stem;
}
);
layerId = "F34C6FC4-EF5D-4900-948D-0C8CFE233EE1";
paths = (
{
closed = 1;
nodes = (
"131 608 LINE",
"31 573 LINE",
"51 515 LINE",
"150 549 LINE",
"150 440 LINE",
"211 440 LINE",
"211 548 LINE",
"309 515 LINE",
"328 573 LINE",
"231 607 LINE",
"292 693 LINE",
"242 725 LINE",
"181 644 LINE",
"118 725 LINE",
"68 690 LINE"
);
}
);
width = 360;
}
);
unicode = 002A;
},
{
glyphname = plus;
layers = (
{
hints = (
{
horizontal = 1;
place = "{308, 74}";
type = Stem;
},
{
place = "{248, 77}";
type = Stem;
}
);
layerId = "F34C6FC4-EF5D-4900-948D-0C8CFE233EE1";
paths = (
{
closed = 1;
nodes = (
"325 589 LINE",
"248 589 LINE",
"248 382 LINE",
"42 382 LINE",
"42 308 LINE",
"248 308 LINE",
"248 100 LINE",
"325 100 LINE",
"325 308 LINE",
"533 308 LINE",
"533 382 LINE",
"325 382 LINE"
);
}
);
width = 575;
}
);
unicode = 002B;
},
{
glyphname = comma;
layers = (
{
hints = (
{
horizontal = 1;
place = "{-139, 259}";
type = Stem;
},
{
place = "{17, 143}";
type = Stem;
}
);
layerId = "F34C6FC4-EF5D-4900-948D-0C8CFE233EE1";
paths = (
{
closed = 1;
nodes = (
"160 120 LINE",
"61 120 LINE",
"17 -139 LINE",
"86 -139 LINE"
);
}
);
width = 195;
}
);
unicode = 002C;
},
{
glyphname = hyphen;
layers = (
{
hints = (
{
horizontal = 1;
place = "{234, 77}";
type = Stem;
},
{
place = "{31, 271}";
type = Stem;
}
);
layerId = "F34C6FC4-EF5D-4900-948D-0C8CFE233EE1";
paths = (
{
closed = 1;
nodes = (
"302 311 LINE",
"31 311 LINE",
"31 234 LINE",
"302 234 LINE"
);
}
);
width = 334;
}
);
unicode = 002D;
},
{
glyphname = period;
layers = (
{
hints = (
{
horizontal = 1;
place = "{-10, 120}";
type = Stem;
},
{
place = "{54, 119}";
type = Stem;
}
);
layerId = "F34C6FC4-EF5D-4900-948D-0C8CFE233EE1";
paths = (
{
closed = 1;
nodes = (
"54 18 OFFCURVE",
"81 -10 OFFCURVE",
"114 -10 CURVE SMOOTH",
"146 -10 OFFCURVE",
"173 18 OFFCURVE",
"173 50 CURVE SMOOTH",
"173 83 OFFCURVE",
"146 110 OFFCURVE",
"114 110 CURVE SMOOTH",
"81 110 OFFCURVE",
"54 83 OFFCURVE",
"54 50 CURVE SMOOTH"
);
}
);
width = 211;
}
);
unicode = 002E;
},
{
glyphname = slash;
layers = (
{
hints = (
{
horizontal = 1;
place = "{-90, 873}";
type = Stem;
},
{
place = "{-1, 498}";
type = Stem;
}
);
layerId = "F34C6FC4-EF5D-4900-948D-0C8CFE233EE1";
paths = (
{
closed = 1;
nodes = (
"497 768 LINE",
"428 783 LINE",
"-1 -77 LINE",
"67 -90 LINE"
);
}
);
width = 494;
}
);
unicode = 002F;
},
{
glyphname = zero;
layers = (
{
hints = (
{
horizontal = 1;
place = "{-14, 76}";
type = Stem;
},
{
horizontal = 1;
place = "{643, 76}";
type = Stem;
},
{
place = "{38, 87}";
type = Stem;
},
{
place = "{483, 87}";
type = Stem;
}
);
layerId = "F34C6FC4-EF5D-4900-948D-0C8CFE233EE1";
paths = (
{
closed = 1;
nodes = (
"130 719 OFFCURVE",
"38 567 OFFCURVE",
"38 354 CURVE SMOOTH",
"38 130 OFFCURVE",
"130 -14 OFFCURVE",
"303 -14 CURVE SMOOTH",
"479 -14 OFFCURVE",
"570 139 OFFCURVE",
"570 352 CURVE SMOOTH",
"570 571 OFFCURVE",
"477 719 OFFCURVE",
"304 719 CURVE SMOOTH"
);
},
{
closed = 1;
nodes = (
"418 643 OFFCURVE",
"483 524 OFFCURVE",
"483 352 CURVE SMOOTH",
"483 184 OFFCURVE",
"419 62 OFFCURVE",
"305 62 CURVE SMOOTH",
"188 62 OFFCURVE",
"125 178 OFFCURVE",
"125 357 CURVE SMOOTH",
"125 522 OFFCURVE",
"189 643 OFFCURVE",
"303 643 CURVE SMOOTH"
);
}
);
width = 607;
}
);
unicode = 0030;
},
{
glyphname = one;
layers = (
{
hints = (
{
horizontal = 1;
place = "{0, 21}";
target = up;
type = BottomGhost;
},
{
horizontal = 1;
place = "{630, 78}";
type = Stem;
},
{
place = "{217, 84}";
type = Stem;
}
);
layerId = "F34C6FC4-EF5D-4900-948D-0C8CFE233EE1";
paths = (
{
closed = 1;
nodes = (
"301 708 LINE",
"109 708 LINE",
"109 630 LINE",
"217 630 LINE",
"217 0 LINE",
"301 0 LINE"
);
}
);
width = 502;
}
);
unicode = 0031;
},
{
glyphname = two;
layers = (
{
hints = (
{
horizontal = 1;
place = "{0, 76}";
type = Stem;
},
{
horizontal = 1;
place = "{642, 76}";
type = Stem;
},
{
place = "{421, 89}";
type = Stem;
}
);
layerId = "F34C6FC4-EF5D-4900-948D-0C8CFE233EE1";
paths = (
{
closed = 1;
nodes = (
"164 718 OFFCURVE",
"83 655 OFFCURVE",
"59 513 CURVE",
"152 513 LINE",
"165 589 OFFCURVE",
"212 642 OFFCURVE",
"297 642 CURVE SMOOTH",
"389 642 OFFCURVE",
"421 589 OFFCURVE",
"421 536 CURVE SMOOTH",
"421 480 OFFCURVE",
"385 414 OFFCURVE",
"301 310 CURVE SMOOTH",
"47 0 LINE",
"524 0 LINE",
"524 76 LINE",
"208 76 LINE",
"367 266 LINE SMOOTH",
"468 385 OFFCURVE",
"510 458 OFFCURVE",
"510 528 CURVE SMOOTH",
"510 636 OFFCURVE",
"418 718 OFFCURVE",
"296 718 CURVE SMOOTH"
);
}
);
width = 579;
}
);
unicode = 0032;
},
{
glyphname = three;
layers = (
{
hints = (
{
horizontal = 1;
place = "{-13, 76}";
type = Stem;
},
{
horizontal = 1;
place = "{377, 65}";
type = Stem;
},
{
horizontal = 1;
place = "{642, 76}";
type = Stem;
},
{
place = "{441, 85}";
type = Stem;
}
);
layerId = "F34C6FC4-EF5D-4900-948D-0C8CFE233EE1";
paths = (
{
closed = 1;
nodes = (
"497 644 LINE",
"497 718 LINE",
"85 718 LINE",
"85 642 LINE",
"391 642 LINE",
"179 415 LINE",
"190 370 LINE",
"214 375 OFFCURVE",
"238 377 OFFCURVE",
"262 377 CURVE SMOOTH",
"362 377 OFFCURVE",
"441 334 OFFCURVE",
"441 221 CURVE SMOOTH",
"441 123 OFFCURVE",
"373 63 OFFCURVE",
"285 63 CURVE SMOOTH",
"196 63 OFFCURVE",
"144 114 OFFCURVE",
"113 206 CURVE",
"44 156 LINE",
"80 56 OFFCURVE",
"164 -13 OFFCURVE",
"284 -13 CURVE SMOOTH",
"423 -13 OFFCURVE",
"526 93 OFFCURVE",
"526 225 CURVE SMOOTH",
"526 360 OFFCURVE",
"430 439 OFFCURVE",
"302 442 CURVE"
);
}
);
width = 594;
}
);
unicode = 0033;
},
{
glyphname = four;
layers = (
{
hints = (
{
place = "{406, 82}";
type = Stem;
},
{
horizontal = 1;
place = "{0, 21}";
target = up;
type = BottomGhost;
},
{
horizontal = 1;
place = "{153, 73}";
type = Stem;
},
{
horizontal = 1;
place = "{635, 77}";
type = Stem;
},
{
horizontal = 1;
place = "{712, -20}";
target = down;
type = TopGhost;
}
);
layerId = "F34C6FC4-EF5D-4900-948D-0C8CFE233EE1";
paths = (
{
closed = 1;
nodes = (
"361 712 LINE",
"16 229 LINE",
"32 153 LINE",
"406 153 LINE",
"406 0 LINE",
"488 0 LINE",
"488 153 LINE",
"586 153 LINE",
"586 226 LINE",
"488 226 LINE",
"488 712 LINE"
);
},
{
closed = 1;
nodes = (
"406 226 LINE",
"113 226 LINE",
"406 635 LINE"
);
}
);
width = 609;
}
);
unicode = 0034;
},
{
glyphname = five;
layers = (
{
hints = (
{
horizontal = 1;
place = "{-13, 75}";
type = Stem;
},
{
horizontal = 1;
place = "{369, 75}";
type = Stem;
},
{
horizontal = 1;
place = "{630, 75}";
type = Stem;
},
{
place = "{433, 85}";
type = Stem;
}
);
layerId = "F34C6FC4-EF5D-4900-948D-0C8CFE233EE1";
paths = (
{
closed = 1;
nodes = (
"157 350 LINE",
"189 362 OFFCURVE",
"220 369 OFFCURVE",
"255 369 CURVE SMOOTH",
"356 369 OFFCURVE",
"433 306 OFFCURVE",
"433 218 CURVE SMOOTH",
"433 126 OFFCURVE",
"370 62 OFFCURVE",
"266 62 CURVE SMOOTH",
"199 62 OFFCURVE",
"142 91 OFFCURVE",
"93 139 CURVE",
"44 83 LINE",
"108 23 OFFCURVE",
"170 -13 OFFCURVE",
"266 -13 CURVE SMOOTH",
"418 -13 OFFCURVE",
"518 81 OFFCURVE",
"518 222 CURVE SMOOTH",
"518 358 OFFCURVE",
"410 444 OFFCURVE",
"277 444 CURVE SMOOTH",
"240 444 OFFCURVE",
"209 436 OFFCURVE",
"170 424 CURVE",
"192 630 LINE",
"488 630 LINE",
"495 705 LINE",
"124 705 LINE",
"92 381 LINE"
);
}
);
width = 588;
}
);
unicode = 0035;
},
{
glyphname = six;
layers = (
{
hints = (
{
horizontal = 1;
place = "{-14, 72}";
type = Stem;
},
{
horizontal = 1;
place = "{360, 68}";
type = Stem;
},
{
horizontal = 1;
place = "{706, -20}";
target = down;
type = TopGhost;
},
{
place = "{36, 86}";
type = Stem;
},
{
place = "{439, 86}";
type = Stem;
}
);
layerId = "F34C6FC4-EF5D-4900-948D-0C8CFE233EE1";
paths = (
{
closed = 1;
nodes = (
"304 706 LINE",
"133 447 LINE SMOOTH",
"70 352 OFFCURVE",
"36 295 OFFCURVE",
"36 224 CURVE SMOOTH",
"36 75 OFFCURVE",
"147 -14 OFFCURVE",
"283 -14 CURVE SMOOTH",
"420 -14 OFFCURVE",
"525 82 OFFCURVE",
"525 215 CURVE SMOOTH",
"525 346 OFFCURVE",
"425 428 OFFCURVE",
"302 428 CURVE SMOOTH",
"262 428 OFFCURVE",
"231 426 OFFCURVE",
"193 399 CURVE",
"399 706 LINE"
);
},
{
closed = 1;
nodes = (
"122 292 OFFCURVE",
"186 360 OFFCURVE",
"282 360 CURVE SMOOTH",
"375 360 OFFCURVE",
"439 298 OFFCURVE",
"439 213 CURVE SMOOTH",
"439 122 OFFCURVE",
"374 58 OFFCURVE",
"282 58 CURVE SMOOTH",
"193 58 OFFCURVE",
"122 125 OFFCURVE",
"122 209 CURVE SMOOTH"
);
}
);
width = 559;
}
);
unicode = 0036;
},
{
glyphname = seven;
layers = (
{
hints = (
{
horizontal = 1;
place = "{0, 21}";
target = up;
type = BottomGhost;
},
{
horizontal = 1;
place = "{630, 75}";
type = Stem;
},
{
place = "{60, 479}";
type = Stem;
}
);
layerId = "F34C6FC4-EF5D-4900-948D-0C8CFE233EE1";
paths = (
{
closed = 1;
nodes = (
"539 629 LINE",
"539 705 LINE",
"60 705 LINE",
"60 630 LINE",
"450 630 LINE",
"106 0 LINE",
"199 0 LINE"
);
}
);
width = 587;
}
);
unicode = 0037;
},
{
glyphname = eight;
layers = (
{
hints = (
{
place = "{39, 86}";
type = Stem;
},
{
place = "{66, 83}";
type = Stem;
},
{
place = "{425, 83}";
type = Stem;
},
{
place = "{448, 86}";
type = Stem;
},
{
horizontal = 1;
place = "{-12, 72}";
type = Stem;
},
{
horizontal = 1;
place = "{331, 72}";
type = Stem;
},
{
horizontal = 1;
place = "{646, 72}";
type = Stem;
}
);
layerId = "F34C6FC4-EF5D-4900-948D-0C8CFE233EE1";
paths = (
{
closed = 1;
nodes = (
"508 640 OFFCURVE",
"404 718 OFFCURVE",
"286 718 CURVE SMOOTH",
"166 718 OFFCURVE",
"66 640 OFFCURVE",
"66 531 CURVE SMOOTH",
"66 459 OFFCURVE",
"105 402 OFFCURVE",
"176 370 CURVE",
"89 333 OFFCURVE",
"39 274 OFFCURVE",
"39 190 CURVE SMOOTH",
"39 75 OFFCURVE",
"146 -12 OFFCURVE",
"286 -12 CURVE SMOOTH",
"426 -12 OFFCURVE",
"534 69 OFFCURVE",
"534 192 CURVE SMOOTH",
"534 275 OFFCURVE",
"483 336 OFFCURVE",
"396 369 CURVE",
"464 404 OFFCURVE",
"508 455 OFFCURVE",
"508 528 CURVE SMOOTH"
);
},
{
closed = 1;
nodes = (
"149 595 OFFCURVE",
"209 646 OFFCURVE",
"286 646 CURVE SMOOTH",
"364 646 OFFCURVE",
"425 595 OFFCURVE",
"425 526 CURVE SMOOTH",
"425 453 OFFCURVE",
"363 403 OFFCURVE",
"286 403 CURVE SMOOTH",
"211 403 OFFCURVE",
"149 454 OFFCURVE",
"149 525 CURVE SMOOTH"
);
},
{
closed = 1;
nodes = (
"125 274 OFFCURVE",
"193 331 OFFCURVE",
"286 331 CURVE SMOOTH",
"380 331 OFFCURVE",
"448 275 OFFCURVE",
"448 196 CURVE SMOOTH",
"448 120 OFFCURVE",
"382 60 OFFCURVE",
"286 60 CURVE SMOOTH",
"188 60 OFFCURVE",
"125 120 OFFCURVE",
"125 196 CURVE SMOOTH"
);
}
);
width = 572;
}
);
unicode = 0038;
},
{
glyphname = nine;
layers = (
{
hints = (
{
horizontal = 1;
place = "{-2, 21}";
target = up;
type = BottomGhost;
},
{
horizontal = 1;
place = "{272, 73}";
type = Stem;
},
{
horizontal = 1;
place = "{647, 73}";
type = Stem;
},
{
place = "{43, 86}";
type = Stem;
},
{
place = "{445, 86}";
type = Stem;
}
);
layerId = "F34C6FC4-EF5D-4900-948D-0C8CFE233EE1";
paths = (
{
closed = 1;
nodes = (
"263 -2 LINE",
"433 248 LINE",
"481 317 OFFCURVE",
"531 391 OFFCURVE",
"531 479 CURVE SMOOTH",
"531 627 OFFCURVE",
"424 720 OFFCURVE",
"284 720 CURVE SMOOTH",
"148 720 OFFCURVE",
"43 621 OFFCURVE",
"43 490 CURVE SMOOTH",
"43 361 OFFCURVE",
"146 272 OFFCURVE",
"269 272 CURVE SMOOTH",
"310 272 OFFCURVE",
"338 279 OFFCURVE",
"374 306 CURVE",
"170 -2 LINE"
);
},
{
closed = 1;
nodes = (
"445 413 OFFCURVE",
"378 345 OFFCURVE",
"286 345 CURVE SMOOTH",
"194 345 OFFCURVE",
"129 408 OFFCURVE",
"129 494 CURVE SMOOTH",
"129 579 OFFCURVE",
"193 647 OFFCURVE",
"285 647 CURVE SMOOTH",
"373 647 OFFCURVE",
"445 579 OFFCURVE",
"445 495 CURVE SMOOTH"
);
}
);
width = 567;
}
);
unicode = 0039;
},
{
glyphname = colon;
layers = (
{
hints = (
{
horizontal = 1;
place = "{-10, 121}";
type = Stem;
},
{
horizontal = 1;
place = "{370, 121}";
type = Stem;
},
{
place = "{54, 120}";
type = Stem;
}
);
layerId = "F34C6FC4-EF5D-4900-948D-0C8CFE233EE1";
paths = (
{
closed = 1;
nodes = (
"54 396 OFFCURVE",
"78 370 OFFCURVE",
"115 370 CURVE SMOOTH",
"146 370 OFFCURVE",
"174 396 OFFCURVE",
"174 431 CURVE SMOOTH",
"174 464 OFFCURVE",
"146 491 OFFCURVE",
"115 491 CURVE SMOOTH",
"78 491 OFFCURVE",
"54 464 OFFCURVE",
"54 431 CURVE SMOOTH"
);
},
{
closed = 1;
nodes = (
"54 18 OFFCURVE",
"78 -10 OFFCURVE",
"115 -10 CURVE SMOOTH",
"146 -10 OFFCURVE",
"174 18 OFFCURVE",
"174 51 CURVE SMOOTH",
"174 84 OFFCURVE",
"146 111 OFFCURVE",
"115 111 CURVE SMOOTH",
"78 111 OFFCURVE",
"54 84 OFFCURVE",
"54 51 CURVE SMOOTH"
);
}
);
width = 212;
}
);
unicode = 003A;
},
{
glyphname = semicolon;
layers = (
{
hints = (
{
horizontal = 1;
place = "{370, 121}";
type = Stem;
},
{
place = "{46, 121}";
type = Stem;
}
);
layerId = "F34C6FC4-EF5D-4900-948D-0C8CFE233EE1";
paths = (
{
closed = 1;
nodes = (
"46 396 OFFCURVE",
"71 370 OFFCURVE",
"107 370 CURVE SMOOTH",
"138 370 OFFCURVE",
"167 396 OFFCURVE",
"167 431 CURVE SMOOTH",
"167 464 OFFCURVE",
"138 491 OFFCURVE",
"107 491 CURVE SMOOTH",
"71 491 OFFCURVE",
"46 464 OFFCURVE",
"46 431 CURVE SMOOTH"
);
},
{
closed = 1;
nodes = (
"162 120 LINE",
"61 120 LINE",
"18 -139 LINE",
"88 -139 LINE"
);
}
);
width = 198;
}
);
unicode = 003B;
},
{
glyphname = less;
layers = (
{
hints = (
{
horizontal = 1;
place = "{79, 527}";
type = Stem;
},
{
place = "{69, 478}";
type = Stem;
}
);
layerId = "F34C6FC4-EF5D-4900-948D-0C8CFE233EE1";
paths = (
{
closed = 1;
nodes = (
"547 606 LINE",
"69 378 LINE",
"69 307 LINE",
"547 79 LINE",
"547 158 LINE",
"160 343 LINE",
"547 526 LINE"
);
}
);
width = 616;
}
);
unicode = 003C;
},
{
glyphname = equal;
layers = (
{
hints = (
{
horizontal = 1;
place = "{196, 75}";
type = Stem;
},
{
horizontal = 1;
place = "{438, 75}";
type = Stem;
},
{
place = "{42, 474}";
type = Stem;
}
);
layerId = "F34C6FC4-EF5D-4900-948D-0C8CFE233EE1";
paths = (
{
closed = 1;
nodes = (
"42 513 LINE",
"42 438 LINE",
"516 438 LINE",
"516 513 LINE"
);
},
{
closed = 1;
nodes = (
"42 271 LINE",
"42 196 LINE",
"516 196 LINE",
"516 271 LINE"
);
}
);
width = 558;
}
);
unicode = 003D;
},
{
glyphname = greater;
layers = (
{
hints = (
{
horizontal = 1;
place = "{80, 526}";
type = Stem;
},
{
place = "{69, 477}";
type = Stem;
}
);
layerId = "F34C6FC4-EF5D-4900-948D-0C8CFE233EE1";
paths = (
{
closed = 1;
nodes = (
"69 525 LINE",
"455 342 LINE",
"69 160 LINE",
"69 80 LINE",
"546 306 LINE",
"546 379 LINE",
"69 606 LINE"
);
}
);
width = 615;
}
);
unicode = 003E;
},
{
glyphname = question;
layers = (
{
hints = (
{
place = "{127, 121}";
type = Stem;
},
{
place = "{141, 82}";
type = Stem;
},
{
place = "{305, 82}";
type = Stem;
},
{
horizontal = 1;
place = "{-9, 118}";
type = Stem;
},
{
horizontal = 1;
place = "{641, 76}";
type = Stem;
}
);
layerId = "F34C6FC4-EF5D-4900-948D-0C8CFE233EE1";
paths = (
{
closed = 1;
nodes = (
"270 641 OFFCURVE",
"305 592 OFFCURVE",
"305 544 CURVE SMOOTH",
"305 496 OFFCURVE",
"272 464 OFFCURVE",
"235 429 CURVE SMOOTH",
"190 387 OFFCURVE",
"141 338 OFFCURVE",
"141 252 CURVE SMOOTH",
"141 190 LINE",
"223 190 LINE",
"223 222 LINE SMOOTH",
"223 293 OFFCURVE",
"246 328 OFFCURVE",
"297 374 CURVE SMOOTH",
"348 419 OFFCURVE",
"387 475 OFFCURVE",
"387 551 CURVE SMOOTH",
"387 650 OFFCURVE",
"318 717 OFFCURVE",
"210 717 CURVE SMOOTH",
"142 717 OFFCURVE",
"84 689 OFFCURVE",
"53 649 CURVE",
"53 552 LINE",
"101 621 OFFCURVE",
"153 641 OFFCURVE",
"200 641 CURVE SMOOTH"
);
},
{
closed = 1;
nodes = (
"127 14 OFFCURVE",
"155 -9 OFFCURVE",
"187 -9 CURVE SMOOTH",
"220 -9 OFFCURVE",
"248 14 OFFCURVE",
"248 50 CURVE SMOOTH",
"248 81 OFFCURVE",
"220 109 OFFCURVE",
"187 109 CURVE SMOOTH",
"155 109 OFFCURVE",
"127 81 OFFCURVE",
"127 50 CURVE SMOOTH"
);
}
);
width = 434;
}
);
unicode = 003F;
},
{
glyphname = at;
layers = (
{
hints = (
{
place = "{45, 52}";
type = Stem;
},
{
place = "{229, 78}";
type = Stem;
},
{
place = "{557, 63}";
type = Stem;
},
{
place = "{799, 49}";
type = Stem;
},
{
horizontal = 1;
place = "{-93, 44}";
type = Stem;
},
{
horizontal = 1;
place = "{-8, 21}";
target = up;
type = BottomGhost;
},
{
horizontal = 1;
place = "{109, 49}";
type = Stem;
},
{
horizontal = 1;
place = "{111, 64}";
type = Stem;
},
{
horizontal = 1;
place = "{457, 67}";
type = Stem;
},
{
horizontal = 1;
place = "{674, 45}";
type = Stem;
}
);
layerId = "F34C6FC4-EF5D-4900-948D-0C8CFE233EE1";
paths = (
{
closed = 1;
nodes = (
"714 26 LINE",
"637 -23 OFFCURVE",
"564 -49 OFFCURVE",
"472 -49 CURVE SMOOTH",
"244 -49 OFFCURVE",
"97 107 OFFCURVE",
"97 311 CURVE SMOOTH",
"97 516 OFFCURVE",
"250 674 OFFCURVE",
"455 674 CURVE SMOOTH",
"651 674 OFFCURVE",
"799 531 OFFCURVE",
"799 346 CURVE SMOOTH",
"799 234 OFFCURVE",
"744 158 OFFCURVE",
"681 158 CURVE SMOOTH",
"641 158 OFFCURVE",
"620 191 OFFCURVE",
"620 239 CURVE",
"657 505 LINE",
"587 511 LINE",
"577 446 LINE",
"552 490 OFFCURVE",
"513 524 OFFCURVE",
"445 524 CURVE SMOOTH",
"327 524 OFFCURVE",
"229 420 OFFCURVE",
"229 296 CURVE SMOOTH",
"229 187 OFFCURVE",
"304 111 OFFCURVE",
"404 111 CURVE SMOOTH",
"472 111 OFFCURVE",
"521 147 OFFCURVE",
"554 194 CURVE",
"573 138 OFFCURVE",
"605 109 OFFCURVE",
"665 109 CURVE SMOOTH",
"768 109 OFFCURVE",
"848 200 OFFCURVE",
"848 357 CURVE SMOOTH",
"848 560 OFFCURVE",
"673 719 OFFCURVE",
"456 719 CURVE SMOOTH",
"224 719 OFFCURVE",
"45 537 OFFCURVE",
"45 309 CURVE SMOOTH",
"45 82 OFFCURVE",
"219 -93 OFFCURVE",
"463 -93 CURVE SMOOTH",
"567 -93 OFFCURVE",
"657 -63 OFFCURVE",
"738 -8 CURVE"
);
},
{
closed = 1;
nodes = (
"517 457 OFFCURVE",
"557 407 OFFCURVE",
"557 339 CURVE SMOOTH",
"557 256 OFFCURVE",
"494 175 OFFCURVE",
"413 175 CURVE SMOOTH",
"348 175 OFFCURVE",
"307 227 OFFCURVE",
"307 299 CURVE SMOOTH",
"307 385 OFFCURVE",
"369 457 OFFCURVE",
"449 457 CURVE SMOOTH"
);
}
);
width = 888;
}
);
unicode = 0040;
},
{
glyphname = A;
layers = (
{
hints = (
{
place = "{26, 687}";
type = Stem;
},
{
horizontal = 1;
place = "{0, 21}";
target = up;
type = BottomGhost;
},
{
horizontal = 1;
place = "{197, 75}";
type = Stem;
},
{
horizontal = 1;
place = "{606, 99}";
type = Stem;
},
{
horizontal = 1;
place = "{705, -20}";
target = down;
type = TopGhost;
}
);
layerId = "F34C6FC4-EF5D-4900-948D-0C8CFE233EE1";
paths = (
{
closed = 1;
nodes = (
"536 197 LINE",
"620 0 LINE",
"713 0 LINE",
"404 705 LINE",
"334 705 LINE",
"26 0 LINE",
"117 0 LINE",
"202 197 LINE"
);
},
{
closed = 1;
nodes = (
"369 606 LINE",
"504 272 LINE",
"234 272 LINE"
);
}
);
width = 737;
}
);
unicode = 0041;
},
{
glyphname = B;
layers = (
{
hints = (
{
place = "{80, 84}";
type = Stem;
},
{
place = "{443, 84}";
type = Stem;
},
{
place = "{507, 84}";
type = Stem;
},
{
horizontal = 1;
place = "{0, 74}";
type = Stem;
},
{
horizontal = 1;
place = "{322, 74}";
type = Stem;
},
{
horizontal = 1;
place = "{631, 74}";
type = Stem;
}
);
layerId = "F34C6FC4-EF5D-4900-948D-0C8CFE233EE1";
paths = (
{
closed = 1;
nodes = (
"80 0 LINE",
"309 0 LINE SMOOTH",
"512 0 OFFCURVE",
"591 89 OFFCURVE",
"591 194 CURVE SMOOTH",
"591 279 OFFCURVE",
"542 350 OFFCURVE",
"425 366 CURVE",
"493 391 OFFCURVE",
"527 452 OFFCURVE",
"527 527 CURVE SMOOTH",
"527 660 OFFCURVE",
"405 705 OFFCURVE",
"281 705 CURVE SMOOTH",
"80 705 LINE"
);
},
{
closed = 1;
nodes = (
"164 631 LINE",
"291 631 LINE SMOOTH",
"383 631 OFFCURVE",
"443 595 OFFCURVE",
"443 515 CURVE SMOOTH",
"443 448 OFFCURVE",
"396 396 OFFCURVE",
"291 396 CURVE SMOOTH",
"164 396 LINE"
);
},
{
closed = 1;
nodes = (
"164 322 LINE",
"290 322 LINE SMOOTH",
"450 322 OFFCURVE",
"507 278 OFFCURVE",
"507 198 CURVE SMOOTH",
"507 118 OFFCURVE",
"451 74 OFFCURVE",
"323 74 CURVE SMOOTH",
"164 74 LINE"
);
}
);
width = 634;
}
);
unicode = 0042;
},
{
glyphname = C;
layers = (
{
hints = (
{
horizontal = 1;
place = "{-14, 77}";
type = Stem;
},
{
horizontal = 1;
place = "{643, 76}";
type = Stem;
},
{
place = "{38, 87}";
type = Stem;
}
);
layerId = "F34C6FC4-EF5D-4900-948D-0C8CFE233EE1";
paths = (
{
closed = 1;
nodes = (
"634 175 LINE",
"567 116 OFFCURVE",
"499 63 OFFCURVE",
"397 63 CURVE SMOOTH",
"237 63 OFFCURVE",
"125 192 OFFCURVE",
"125 352 CURVE SMOOTH",
"125 512 OFFCURVE",
"237 643 OFFCURVE",
"397 643 CURVE SMOOTH",
"506 643 OFFCURVE",
"569 604 OFFCURVE",
"620 547 CURVE",
"620 643 LINE",
"563 687 OFFCURVE",
"497 719 OFFCURVE",
"402 719 CURVE SMOOTH",
"192 719 OFFCURVE",
"38 558 OFFCURVE",
"38 351 CURVE SMOOTH",
"38 144 OFFCURVE",
"194 -14 OFFCURVE",
"399 -14 CURVE SMOOTH",
"499 -14 OFFCURVE",
"570 23 OFFCURVE",
"634 78 CURVE"
);
}
);
width = 668;
}
);
unicode = 0043;
},
{
glyphname = D;
layers = (
{
hints = (
{
horizontal = 1;
place = "{0, 76}";
type = Stem;
},
{
horizontal = 1;
place = "{628, 77}";
type = Stem;
},
{
place = "{80, 85}";
type = Stem;
},
{
place = "{587, 90}";
type = Stem;
}
);
layerId = "F34C6FC4-EF5D-4900-948D-0C8CFE233EE1";
paths = (
{
closed = 1;
nodes = (
"80 0 LINE",
"300 0 LINE SMOOTH",
"527 0 OFFCURVE",
"677 146 OFFCURVE",
"677 353 CURVE SMOOTH",
"677 566 OFFCURVE",
"515 705 OFFCURVE",
"301 705 CURVE SMOOTH",
"80 705 LINE"
);
},
{
closed = 1;
nodes = (
"165 628 LINE",
"344 628 LINE SMOOTH",
"502 628 OFFCURVE",
"587 482 OFFCURVE",
"587 351 CURVE SMOOTH",
"587 191 OFFCURVE",
"484 76 OFFCURVE",
"296 76 CURVE SMOOTH",
"165 76 LINE"
);
}
);
width = 716;
}
);
unicode = 0044;
},
{
glyphname = E;
layers = (
{
hints = (
{
horizontal = 1;
place = "{0, 76}";
type = Stem;
},
{
horizontal = 1;
place = "{321, 76}";
type = Stem;
},
{
horizontal = 1;
place = "{629, 76}";
type = Stem;
},
{
place = "{80, 86}";
type = Stem;
}
);
layerId = "F34C6FC4-EF5D-4900-948D-0C8CFE233EE1";
paths = (
{
closed = 1;
nodes = (
"166 321 LINE",
"511 321 LINE",
"511 397 LINE",
"166 397 LINE",
"166 629 LINE",
"540 629 LINE",
"540 705 LINE",
"80 705 LINE",
"80 0 LINE",
"551 0 LINE",
"551 76 LINE",
"166 76 LINE"
);
}
);
width = 589;
}
);
unicode = 0045;
},
{
glyphname = F;
layers = (
{
hints = (
{
horizontal = 1;
place = "{-2, 21}";
target = up;
type = BottomGhost;
},
{
horizontal = 1;
place = "{313, 76}";
type = Stem;
},
{
horizontal = 1;
place = "{629, 76}";
type = Stem;
},
{
place = "{80, 85}";
type = Stem;
}
);
layerId = "F34C6FC4-EF5D-4900-948D-0C8CFE233EE1";
paths = (
{
closed = 1;
nodes = (
"165 313 LINE",
"506 313 LINE",
"506 389 LINE",
"165 389 LINE",
"165 629 LINE",
"537 629 LINE",
"537 705 LINE",
"80 705 LINE",
"80 -2 LINE",
"165 -2 LINE"
);
}
);
width = 587;
}
);
unicode = 0046;
},
{
glyphname = G;
layers = (
{
hints = (
{
horizontal = 1;
place = "{-16, 78}";
type = Stem;
},
{
horizontal = 1;
place = "{321, 78}";
type = Stem;
},
{
horizontal = 1;
place = "{643, 76}";
type = Stem;
},
{
place = "{38, 85}";
type = Stem;
},
{
place = "{476, 174}";
type = Stem;
},
{
place = "{687, 80}";
type = Stem;
}
);
layerId = "F34C6FC4-EF5D-4900-948D-0C8CFE233EE1";
paths = (
{
closed = 1;
nodes = (
"687 321 LINE",
"687 165 OFFCURVE",
"568 62 OFFCURVE",
"412 62 CURVE SMOOTH",
"247 62 OFFCURVE",
"123 187 OFFCURVE",
"123 352 CURVE SMOOTH",
"123 510 OFFCURVE",
"263 643 OFFCURVE",
"426 643 CURVE SMOOTH",
"523 643 OFFCURVE",
"599 604 OFFCURVE",
"650 553 CURVE",
"650 647 LINE",
"578 699 OFFCURVE",
"499 719 OFFCURVE",
"420 719 CURVE SMOOTH",
"209 719 OFFCURVE",
"38 557 OFFCURVE",
"38 352 CURVE SMOOTH",
"38 149 OFFCURVE",
"193 -16 OFFCURVE",
"406 -16 CURVE SMOOTH",
"654 -16 OFFCURVE",
"767 163 OFFCURVE",
"767 373 CURVE SMOOTH",
"767 399 LINE",
"476 399 LINE",
"476 321 LINE"
);
}
);
width = 827;
}
);
unicode = 0047;
},
{
glyphname = H;
layers = (
{
hints = (
{
horizontal = 1;
place = "{0, 21}";
target = up;
type = BottomGhost;
},
{
horizontal = 1;
place = "{320, 78}";
type = Stem;
},
{
horizontal = 1;
place = "{706, -20}";
target = down;
type = TopGhost;
},
{
place = "{80, 84}";
type = Stem;
},
{
place = "{546, 84}";
type = Stem;
}
);
layerId = "F34C6FC4-EF5D-4900-948D-0C8CFE233EE1";
paths = (
{
closed = 1;
nodes = (
"80 0 LINE",
"164 0 LINE",
"164 320 LINE",
"546 320 LINE",
"546 0 LINE",
"630 0 LINE",
"630 706 LINE",
"546 706 LINE",
"546 398 LINE",
"164 398 LINE",
"164 706 LINE",
"80 706 LINE"
);
}
);
width = 709;
}
);
unicode = 0048;
},
{
glyphname = I;
layers = (
{
hints = (
{
horizontal = 1;
place = "{0, 21}";
target = up;
type = BottomGhost;
},
{
horizontal = 1;
place = "{705, -20}";
target = down;
type = TopGhost;
},
{
place = "{80, 84}";
type = Stem;
}
);
layerId = "F34C6FC4-EF5D-4900-948D-0C8CFE233EE1";
paths = (
{
closed = 1;
nodes = (
"164 705 LINE",
"80 705 LINE",
"80 0 LINE",
"164 0 LINE"
);
}
);
width = 243;
}
);
unicode = 0049;
},
{
glyphname = J;
layers = (
{
hints = (
{
horizontal = 1;
place = "{-11, 76}";
type = Stem;
},
{
horizontal = 1;
place = "{705, -20}";
target = down;
type = TopGhost;
},
{
place = "{214, 86}";
type = Stem;
}
);
layerId = "F34C6FC4-EF5D-4900-948D-0C8CFE233EE1";
paths = (
{
closed = 1;
nodes = (
"4 22 LINE",
"21 11 OFFCURVE",
"41 2 OFFCURVE",
"65 -5 CURVE SMOOTH",
"76 -8 OFFCURVE",
"85 -9 OFFCURVE",
"97 -10 CURVE SMOOTH",
"102 -11 OFFCURVE",
"107 -11 OFFCURVE",
"114 -11 CURVE SMOOTH",
"231 -11 OFFCURVE",
"300 64 OFFCURVE",
"300 209 CURVE SMOOTH",
"300 705 LINE",
"214 705 LINE",
"214 207 LINE SMOOTH",
"214 102 OFFCURVE",
"180 65 OFFCURVE",
"116 65 CURVE SMOOTH",
"96 65 OFFCURVE",
"76 68 OFFCURVE",
"57 75 CURVE SMOOTH",
"38 82 OFFCURVE",
"21 91 OFFCURVE",
"4 102 CURVE"
);
}
);
width = 373;
}
);
unicode = 004A;
},
{
glyphname = K;
layers = (
{
hints = (
{
horizontal = 1;
place = "{0, 21}";
target = up;
type = BottomGhost;
},
{
horizontal = 1;
place = "{705, -20}";
target = down;
type = TopGhost;
},
{
place = "{80, 84}";
type = Stem;
}
);
layerId = "F34C6FC4-EF5D-4900-948D-0C8CFE233EE1";
paths = (
{
closed = 1;
nodes = (
"164 705 LINE",
"80 705 LINE",
"80 0 LINE",
"164 0 LINE",
"164 330 LINE",
"459 0 LINE",
"567 0 LINE",
"236 375 LINE",
"539 705 LINE",
"431 705 LINE",
"164 409 LINE"
);
}
);
width = 557;
}
);
unicode = 004B;
},
{
glyphname = L;
layers = (
{
hints = (
{
horizontal = 1;
place = "{0, 76}";
type = Stem;
},
{
horizontal = 1;
place = "{705, -20}";
target = down;
type = TopGhost;
},
{
place = "{80, 85}";
type = Stem;
}
);
layerId = "F34C6FC4-EF5D-4900-948D-0C8CFE233EE1";
paths = (
{
closed = 1;
nodes = (
"165 705 LINE",
"80 705 LINE",
"80 0 LINE",
"510 0 LINE",
"510 76 LINE",
"165 76 LINE"
);
}
);
width = 532;
}
);
unicode = 004C;
},
{
glyphname = M;
layers = (
{
hints = (
{
horizontal = 1;
place = "{0, 21}";
target = up;
type = BottomGhost;
},
{
place = "{61, 84}";
type = Stem;
},
{
place = "{691, 84}";
type = Stem;
}
);
layerId = "F34C6FC4-EF5D-4900-948D-0C8CFE233EE1";
paths = (
{
closed = 1;
nodes = (
"418 153 LINE",
"691 565 LINE",
"691 0 LINE",
"775 0 LINE",
"775 700 LINE",
"693 700 LINE",
"418 279 LINE",
"143 700 LINE",
"61 700 LINE",
"61 0 LINE",
"145 0 LINE",
"145 565 LINE"
);
}
);
width = 836;
}
);
unicode = 004D;
},
{
glyphname = N;
layers = (
{
hints = (
{
horizontal = 1;
place = "{0, 21}";
target = up;
type = BottomGhost;
},
{
horizontal = 1;
place = "{705, -20}";
target = down;
type = TopGhost;
},
{
place = "{80, 82}";
type = Stem;
},
{
place = "{584, 82}";
type = Stem;
}
);
layerId = "F34C6FC4-EF5D-4900-948D-0C8CFE233EE1";
paths = (
{
closed = 1;
nodes = (
"165 700 LINE",
"80 700 LINE",
"80 0 LINE",
"162 0 LINE",
"162 577 LINE",
"582 0 LINE",
"666 0 LINE",
"666 705 LINE",
"584 705 LINE",
"584 126 LINE"
);
}
);
width = 745;
}
);
unicode = 004E;
},
{
glyphname = O;
layers = (
{
hints = (
{
horizontal = 1;
place = "{-14, 77}";
type = Stem;
},
{
horizontal = 1;
place = "{642, 77}";
type = Stem;
},
{
place = "{38, 87}";
type = Stem;
},
{
place = "{682, 87}";
type = Stem;
}
);
layerId = "F34C6FC4-EF5D-4900-948D-0C8CFE233EE1";
paths = (
{
closed = 1;
nodes = (
"769 553 OFFCURVE",
"617 719 OFFCURVE",
"406 719 CURVE SMOOTH",
"193 719 OFFCURVE",
"38 555 OFFCURVE",
"38 351 CURVE SMOOTH",
"38 148 OFFCURVE",
"191 -14 OFFCURVE",
"404 -14 CURVE SMOOTH",
"615 -14 OFFCURVE",
"769 151 OFFCURVE",
"769 354 CURVE SMOOTH"
);
},
{
closed = 1;
nodes = (
"682 191 OFFCURVE",
"566 63 OFFCURVE",
"405 63 CURVE SMOOTH",
"240 63 OFFCURVE",
"125 190 OFFCURVE",
"125 354 CURVE SMOOTH",
"125 514 OFFCURVE",
"240 642 OFFCURVE",
"405 642 CURVE SMOOTH",
"566 642 OFFCURVE",
"682 512 OFFCURVE",
"682 350 CURVE SMOOTH"
);
}
);
width = 808;
}
);
unicode = 004F;
},
{
glyphname = P;
layers = (
{
hints = (
{
horizontal = 1;
place = "{-2, 21}";
target = up;
type = BottomGhost;
},
{
horizontal = 1;
place = "{279, 76}";
type = Stem;
},
{
horizontal = 1;
place = "{629, 76}";
type = Stem;
},
{
place = "{80, 86}";
type = Stem;
},
{
place = "{472, 86}";
type = Stem;
}
);
layerId = "F34C6FC4-EF5D-4900-948D-0C8CFE233EE1";
paths = (
{
closed = 1;
nodes = (
"80 -2 LINE",
"166 -2 LINE",
"166 279 LINE",
"300 279 LINE SMOOTH",
"444 279 OFFCURVE",
"558 358 OFFCURVE",
"558 497 CURVE SMOOTH",
"558 628 OFFCURVE",
"457 705 OFFCURVE",
"307 705 CURVE SMOOTH",
"80 705 LINE"
);
},
{
closed = 1;
nodes = (
"166 629 LINE",
"300 629 LINE SMOOTH",
"409 629 OFFCURVE",
"472 584 OFFCURVE",
"472 493 CURVE SMOOTH",
"472 406 OFFCURVE",
"407 355 OFFCURVE",
"298 355 CURVE SMOOTH",
"166 355 LINE"
);
}
);
width = 601;
}
);
unicode = 0050;
},
{
glyphname = Q;
layers = (
{
hints = (
{
horizontal = 1;
place = "{-14, 77}";
type = Stem;
},
{
horizontal = 1;
place = "{642, 77}";
type = Stem;
},
{
place = "{38, 87}";
type = Stem;
},
{
place = "{682, 87}";
type = Stem;
}
);
layerId = "F34C6FC4-EF5D-4900-948D-0C8CFE233EE1";
paths = (
{
closed = 1;
nodes = (
"767 -79 LINE",
"767 30 LINE",
"673 104 LINE",
"733 169 OFFCURVE",
"769 254 OFFCURVE",
"769 354 CURVE SMOOTH",
"769 553 OFFCURVE",
"617 719 OFFCURVE",
"406 719 CURVE SMOOTH",
"193 719 OFFCURVE",
"38 554 OFFCURVE",
"38 350 CURVE SMOOTH",
"38 149 OFFCURVE",
"191 -14 OFFCURVE",
"404 -14 CURVE SMOOTH",
"483 -14 OFFCURVE",
"542 9 OFFCURVE",
"605 44 CURVE"
);
},
{
closed = 1;
nodes = (
"682 191 OFFCURVE",
"566 63 OFFCURVE",
"405 63 CURVE SMOOTH",
"240 63 OFFCURVE",
"125 190 OFFCURVE",
"125 354 CURVE SMOOTH",
"125 514 OFFCURVE",
"240 642 OFFCURVE",
"405 642 CURVE SMOOTH",
"566 642 OFFCURVE",
"682 512 OFFCURVE",
"682 350 CURVE SMOOTH"
);
}
);
width = 803;
}
);
unicode = 0051;
},
{
glyphname = R;
layers = (
{
hints = (
{
horizontal = 1;
place = "{0, 21}";
target = up;
type = BottomGhost;
},
{
horizontal = 1;
place = "{299, 69}";
type = Stem;
},
{
horizontal = 1;
place = "{629, 76}";
type = Stem;
},
{
place = "{80, 86}";
type = Stem;
},
{
place = "{457, 86}";
type = Stem;
}
);
layerId = "F34C6FC4-EF5D-4900-948D-0C8CFE233EE1";
paths = (
{
closed = 1;
nodes = (
"166 0 LINE",
"166 299 LINE",
"256 299 LINE",
"475 0 LINE",
"578 0 LINE",
"349 304 LINE",
"466 324 OFFCURVE",
"543 395 OFFCURVE",
"543 503 CURVE SMOOTH",
"543 623 OFFCURVE",
"443 705 OFFCURVE",
"299 705 CURVE SMOOTH",
"80 705 LINE",
"80 0 LINE"
);
},
{
closed = 1;
nodes = (
"166 368 LINE",
"166 629 LINE",
"289 629 LINE SMOOTH",
"396 629 OFFCURVE",
"457 589 OFFCURVE",
"457 500 CURVE SMOOTH",
"457 404 OFFCURVE",
"377 368 OFFCURVE",
"272 368 CURVE SMOOTH"
);
}
);
width = 603;
}
);
unicode = 0052;
},
{
glyphname = S;
layers = (
{
hints = (
{
horizontal = 1;
place = "{-12, 75}";
type = Stem;
},
{
horizontal = 1;
place = "{643, 75}";
type = Stem;
},
{
place = "{59, 86}";
type = Stem;
},
{
place = "{419, 86}";
type = Stem;
}
);
layerId = "F34C6FC4-EF5D-4900-948D-0C8CFE233EE1";
paths = (
{
closed = 1;
nodes = (
"200 63 OFFCURVE",
"121 87 OFFCURVE",
"44 164 CURVE",
"44 71 LINE",
"108 10 OFFCURVE",
"180 -12 OFFCURVE",
"263 -12 CURVE SMOOTH",
"382 -12 OFFCURVE",
"505 38 OFFCURVE",
"505 178 CURVE SMOOTH",
"505 402 OFFCURVE",
"145 404 OFFCURVE",
"145 552 CURVE SMOOTH",
"145 611 OFFCURVE",
"201 643 OFFCURVE",
"277 643 CURVE SMOOTH",
"330 643 OFFCURVE",
"394 627 OFFCURVE",
"447 558 CURVE",
"447 661 LINE",
"400 701 OFFCURVE",
"341 718 OFFCURVE",
"276 718 CURVE SMOOTH",
"163 718 OFFCURVE",
"59 658 OFFCURVE",
"59 554 CURVE SMOOTH",
"59 338 OFFCURVE",
"419 334 OFFCURVE",
"419 170 CURVE SMOOTH",
"419 90 OFFCURVE",
"337 63 OFFCURVE",
"269 63 CURVE SMOOTH"
);
}
);
width = 550;
}
);
unicode = 0053;
},
{
glyphname = T;
layers = (
{
hints = (
{
horizontal = 1;
place = "{0, 21}";
target = up;
type = BottomGhost;
},
{
horizontal = 1;
place = "{629, 76}";
type = Stem;
},
{
place = "{209, 84}";
type = Stem;
}
);
layerId = "F34C6FC4-EF5D-4900-948D-0C8CFE233EE1";
paths = (
{
closed = 1;
nodes = (
"293 629 LINE",
"503 629 LINE",
"503 705 LINE",
"-1 705 LINE",
"-1 629 LINE",
"209 629 LINE",
"209 0 LINE",
"293 0 LINE"
);
}
);
width = 502;
}
);
unicode = 0054;
},
{
glyphname = U;
layers = (
{
hints = (
{
horizontal = 1;
place = "{-15, 78}";
type = Stem;
},
{
horizontal = 1;
place = "{706, -20}";
target = down;
type = TopGhost;
},
{
place = "{79, 84}";
type = Stem;
},
{
place = "{554, 84}";
type = Stem;
}
);
layerId = "F34C6FC4-EF5D-4900-948D-0C8CFE233EE1";
paths = (
{
closed = 1;
nodes = (
"544 -15 OFFCURVE",
"638 100 OFFCURVE",
"638 287 CURVE SMOOTH",
"638 706 LINE",
"554 706 LINE",
"554 285 LINE SMOOTH",
"554 136 OFFCURVE",
"484 63 OFFCURVE",
"359 63 CURVE SMOOTH",
"227 63 OFFCURVE",
"163 149 OFFCURVE",
"163 288 CURVE SMOOTH",
"163 706 LINE",
"79 706 LINE",
"79 284 LINE SMOOTH",
"79 105 OFFCURVE",
"176 -15 OFFCURVE",
"360 -15 CURVE SMOOTH"
);
}
);
width = 717;
}
);
unicode = 0055;
},
{
glyphname = V;
layers = (
{
hints = (
{
place = "{4, 653}";
type = Stem;
},
{
horizontal = 1;
place = "{0, 88}";
type = Stem;
},
{
horizontal = 1;
place = "{0, 21}";
target = up;
type = BottomGhost;
},
{
horizontal = 1;
place = "{705, -20}";
target = down;
type = TopGhost;
}
);
layerId = "F34C6FC4-EF5D-4900-948D-0C8CFE233EE1";
paths = (
{
closed = 1;
nodes = (
"4 705 LINE",
"281 0 LINE",
"382 0 LINE",
"657 705 LINE",
"565 705 LINE",
"333 88 LINE",
"98 705 LINE"
);
}
);
width = 653;
}
);
unicode = 0056;
},
{
glyphname = W;
layers = (
{
hints = (
{
place = "{16, 985}";
type = Stem;
},
{
horizontal = 1;
place = "{0, 126}";
type = Stem;
},
{
horizontal = 1;
place = "{0, 21}";
target = up;
type = BottomGhost;
},
{
horizontal = 1;
place = "{705, -20}";
target = down;
type = TopGhost;
},
{
horizontal = 1;
place = "{706, -20}";
target = down;
type = TopGhost;
}
);
layerId = "F34C6FC4-EF5D-4900-948D-0C8CFE233EE1";
paths = (
{
closed = 1;
nodes = (
"107 705 LINE",
"16 705 LINE",
"253 0 LINE",
"335 0 LINE",
"508 582 LINE",
"687 0 LINE",
"767 0 LINE",
"1001 705 LINE",
"913 705 LINE",
"729 126 LINE",
"551 706 LINE",
"470 706 LINE",
"297 126 LINE"
);
}
);
width = 1009;
}
);
unicode = 0057;
},
{
glyphname = X;
layers = (
{
hints = (
{
horizontal = 1;
place = "{0, 21}";
target = up;
type = BottomGhost;
},
{
horizontal = 1;
place = "{705, -20}";
target = down;
type = TopGhost;
},
{
place = "{26, 606}";
type = Stem;
}
);
layerId = "F34C6FC4-EF5D-4900-948D-0C8CFE233EE1";
paths = (
{
closed = 1;
nodes = (
"38 705 LINE",
"281 361 LINE",
"26 0 LINE",
"125 0 LINE",
"329 296 LINE",
"535 0 LINE",
"632 0 LINE",
"379 363 LINE",
"619 705 LINE",
"523 705 LINE",
"332 426 LINE",
"137 705 LINE"
);
}
);
width = 658;
}
);
unicode = 0058;
},
{
glyphname = Y;
layers = (
{
hints = (
{
horizontal = 1;
place = "{0, 21}";
target = up;
type = BottomGhost;
},
{
horizontal = 1;
place = "{705, -20}";
target = down;
type = TopGhost;
},
{
place = "{285, 84}";
type = Stem;
}
);
layerId = "F34C6FC4-EF5D-4900-948D-0C8CFE233EE1";
paths = (
{
closed = 1;
nodes = (
"369 281 LINE",
"639 705 LINE",
"544 705 LINE",
"330 358 LINE",
"114 705 LINE",
"14 705 LINE",
"285 280 LINE",
"285 0 LINE",
"369 0 LINE"
);
}
);
width = 640;
}
);
unicode = 0059;
},
{
glyphname = Z;
layers = (
{
hints = (
{
horizontal = 1;
place = "{0, 75}";
type = Stem;
},
{
horizontal = 1;
place = "{630, 75}";
type = Stem;
},
{
place = "{31, 603}";
type = Stem;
}
);
layerId = "F34C6FC4-EF5D-4900-948D-0C8CFE233EE1";
paths = (
{
closed = 1;
nodes = (
"634 632 LINE",
"634 705 LINE",
"59 705 LINE",
"59 630 LINE",
"531 630 LINE",
"31 72 LINE",
"31 0 LINE",
"613 0 LINE",
"613 75 LINE",
"141 75 LINE"
);
}
);
width = 666;
}
);
unicode = 005A;
},
{
glyphname = bracketleft;
layers = (
{
hints = (
{
horizontal = 1;
place = "{-158, 66}";
type = Stem;
},
{
horizontal = 1;
place = "{660, 66}";
type = Stem;
},
{
place = "{86, 77}";
type = Stem;
}
);
layerId = "F34C6FC4-EF5D-4900-948D-0C8CFE233EE1";
paths = (
{
closed = 1;
nodes = (
"326 726 LINE",
"86 726 LINE",
"86 -158 LINE",
"326 -158 LINE",
"326 -92 LINE",
"163 -92 LINE",
"163 660 LINE",
"326 660 LINE"
);
}
);
width = 345;
}
);
unicode = 005B;
},
{
glyphname = backslash;
layers = (
{
hints = (
{
horizontal = 1;
place = "{-117, 898}";
type = Stem;
},
{
place = "{2, 484}";
type = Stem;
}
);
layerId = "F34C6FC4-EF5D-4900-948D-0C8CFE233EE1";
paths = (
{
closed = 1;
nodes = (
"413 -117 LINE",
"486 -111 LINE",
"74 781 LINE",
"2 773 LINE"
);
}
);
width = 485;
}
);
unicode = 005C;
},
{
glyphname = bracketright;
layers = (
{
hints = (
{
horizontal = 1;
place = "{-159, 67}";
type = Stem;
},
{
horizontal = 1;
place = "{659, 67}";
type = Stem;
},
{
place = "{183, 79}";
type = Stem;
}
);
layerId = "F34C6FC4-EF5D-4900-948D-0C8CFE233EE1";
paths = (
{
closed = 1;
nodes = (
"20 -159 LINE",
"262 -159 LINE",
"262 726 LINE",
"20 726 LINE",
"20 659 LINE",
"183 659 LINE",
"183 -92 LINE",
"20 -92 LINE"
);
}
);
width = 347;
}
);
unicode = 005D;
},
{
glyphname = asciicircum;
layers = (
{
hints = (
{
place = "{63, 431}";
type = Stem;
},
{
horizontal = 1;
place = "{642, 64}";
type = Stem;
},
{
horizontal = 1;
place = "{706, -20}";
target = down;
type = TopGhost;
}
);
layerId = "F34C6FC4-EF5D-4900-948D-0C8CFE233EE1";
paths = (
{
closed = 1;
nodes = (
"63 418 LINE",
"136 418 LINE",
"277 642 LINE",
"418 418 LINE",
"494 418 LINE",
"313 706 LINE",
"241 706 LINE"
);
}
);
width = 557;
}
);
unicode = 005E;
},
{
glyphname = underscore;
layers = (
{
hints = (
{
horizontal = 1;
place = "{-147, 65}";
type = Stem;
},
{
place = "{0, 561}";
type = Stem;
}
);
layerId = "F34C6FC4-EF5D-4900-948D-0C8CFE233EE1";
paths = (
{
closed = 1;
nodes = (
"0 -147 LINE",
"561 -147 LINE",
"561 -82 LINE",
"0 -82 LINE"
);
}
);
width = 561;
}
);
unicode = 005F;
},
{
glyphname = grave;
layers = (
{
hints = (
{
horizontal = 1;
place = "{712, -20}";
target = down;
type = TopGhost;
},
{
place = "{23, 189}";
type = Stem;
}
);
layerId = "F34C6FC4-EF5D-4900-948D-0C8CFE233EE1";
paths = (
{
closed = 1;
nodes = (
"149 563 LINE",
"212 563 LINE",
"117 712 LINE",
"23 692 LINE"
);
}
);
width = 310;
}
);
unicode = 0060;
},
{
glyphname = a;
layers = (
{
hints = (
{
place = "{37, 82}";
type = Stem;
},
{
place = "{400, 82}";
type = Stem;
},
{
horizontal = 1;
place = "{-11, 68}";
type = Stem;
},
{
horizontal = 1;
place = "{0, 21}";
target = up;
type = BottomGhost;
},
{
horizontal = 1;
place = "{266, 67}";
type = Stem;
},
{
horizontal = 1;
place = "{422, 70}";
type = Stem;
}
);
layerId = "F34C6FC4-EF5D-4900-948D-0C8CFE233EE1";
paths = (
{
closed = 1;
nodes = (
"482 0 LINE",
"482 308 LINE SMOOTH",
"482 431 OFFCURVE",
"375 492 OFFCURVE",
"259 492 CURVE SMOOTH",
"184 492 OFFCURVE",
"114 470 OFFCURVE",
"69 450 CURVE",
"69 372 LINE",
"128 408 OFFCURVE",
"192 422 OFFCURVE",
"256 422 CURVE SMOOTH",
"340 422 OFFCURVE",
"400 394 OFFCURVE",
"400 318 CURVE SMOOTH",
"400 299 LINE",
"357 324 OFFCURVE",
"305 333 OFFCURVE",
"248 333 CURVE SMOOTH",
"148 333 OFFCURVE",
"37 296 OFFCURVE",
"37 171 CURVE SMOOTH",
"37 54 OFFCURVE",
"142 -11 OFFCURVE",
"237 -11 CURVE SMOOTH",
"304 -11 OFFCURVE",
"353 9 OFFCURVE",
"398 49 CURVE"
);
},
{
closed = 1;
nodes = (
"400 122 LINE",
"367 82 OFFCURVE",
"320 57 OFFCURVE",
"255 57 CURVE SMOOTH",
"183 57 OFFCURVE",
"119 90 OFFCURVE",
"119 161 CURVE SMOOTH",
"119 238 OFFCURVE",
"195 266 OFFCURVE",
"260 266 CURVE SMOOTH",
"324 266 OFFCURVE",
"367 247 OFFCURVE",
"400 228 CURVE"
);
}
);
width = 546;
}
);
unicode = 0061;
},
{
glyphname = b;
layers = (
{
hints = (
{
place = "{72, 82}";
type = Stem;
},
{
place = "{495, 82}";
type = Stem;
},
{
horizontal = 1;
place = "{-10, 69}";
type = Stem;
},
{
horizontal = 1;
place = "{1, 21}";
target = up;
type = BottomGhost;
},
{
horizontal = 1;
place = "{422, 72}";
type = Stem;
}
);
layerId = "F34C6FC4-EF5D-4900-948D-0C8CFE233EE1";
paths = (
{
closed = 1;
nodes = (
"470 -10 OFFCURVE",
"577 91 OFFCURVE",
"577 241 CURVE SMOOTH",
"577 393 OFFCURVE",
"471 494 OFFCURVE",
"340 494 CURVE SMOOTH",
"260 494 OFFCURVE",
"197 454 OFFCURVE",
"154 394 CURVE",
"154 732 LINE",
"72 732 LINE",
"72 1 LINE",
"163 71 LINE",
"200 24 OFFCURVE",
"259 -10 OFFCURVE",
"338 -10 CURVE SMOOTH"
);
},
{
closed = 1;
nodes = (
"495 134 OFFCURVE",
"422 59 OFFCURVE",
"323 59 CURVE SMOOTH",
"229 59 OFFCURVE",
"151 138 OFFCURVE",
"151 241 CURVE SMOOTH",
"151 346 OFFCURVE",
"229 422 OFFCURVE",
"323 422 CURVE SMOOTH",
"426 422 OFFCURVE",
"495 342 OFFCURVE",
"495 240 CURVE SMOOTH"
);
}
);
width = 616;
}
);
unicode = 0062;
},
{
glyphname = c;
layers = (
{
hints = (
{
horizontal = 1;
place = "{-9, 69}";
type = Stem;
},
{
horizontal = 1;
place = "{423, 69}";
type = Stem;
},
{
place = "{40, 83}";
type = Stem;
}
);
layerId = "F34C6FC4-EF5D-4900-948D-0C8CFE233EE1";
paths = (
{
closed = 1;
nodes = (
"425 452 LINE",
"389 479 OFFCURVE",
"337 492 OFFCURVE",
"289 492 CURVE SMOOTH",
"140 492 OFFCURVE",
"40 379 OFFCURVE",
"40 240 CURVE SMOOTH",
"40 99 OFFCURVE",
"144 -9 OFFCURVE",
"282 -9 CURVE SMOOTH",
"342 -9 OFFCURVE",
"391 11 OFFCURVE",
"430 35 CURVE",
"430 125 LINE",
"394 86 OFFCURVE",
"347 60 OFFCURVE",
"291 60 CURVE SMOOTH",
"196 60 OFFCURVE",
"123 146 OFFCURVE",
"123 246 CURVE SMOOTH",
"123 347 OFFCURVE",
"192 423 OFFCURVE",
"288 423 CURVE SMOOTH",
"341 423 OFFCURVE",
"388 399 OFFCURVE",
"425 359 CURVE"
);
}
);
width = 459;
}
);
unicode = 0063;
},
{
glyphname = d;
layers = (
{
hints = (
{
place = "{39, 83}";
type = Stem;
},
{
place = "{460, 82}";
type = Stem;
},
{
horizontal = 1;
place = "{-10, 70}";
type = Stem;
},
{
horizontal = 1;
place = "{1, 21}";
target = up;
type = BottomGhost;
},
{
horizontal = 1;
place = "{424, 70}";
type = Stem;
}
);
layerId = "F34C6FC4-EF5D-4900-948D-0C8CFE233EE1";
paths = (
{
closed = 1;
nodes = (
"542 1 LINE",
"542 732 LINE",
"460 732 LINE",
"460 398 LINE",
"419 457 OFFCURVE",
"356 494 OFFCURVE",
"275 494 CURVE SMOOTH",
"147 494 OFFCURVE",
"39 394 OFFCURVE",
"39 241 CURVE SMOOTH",
"39 88 OFFCURVE",
"147 -10 OFFCURVE",
"278 -10 CURVE SMOOTH",
"357 -10 OFFCURVE",
"406 24 OFFCURVE",
"450 77 CURVE"
);
},
{
closed = 1;
nodes = (
"122 351 OFFCURVE",
"196 424 OFFCURVE",
"288 424 CURVE SMOOTH",
"380 424 OFFCURVE",
"463 347 OFFCURVE",
"463 242 CURVE SMOOTH",
"463 137 OFFCURVE",
"383 60 OFFCURVE",
"288 60 CURVE SMOOTH",
"193 60 OFFCURVE",
"122 135 OFFCURVE",
"122 242 CURVE SMOOTH"
);
}
);
width = 615;
}
);
unicode = 0064;
},
{
glyphname = e;
layers = (
{
hints = (
{
horizontal = 1;
place = "{-11, 70}";
type = Stem;
},
{
horizontal = 1;
place = "{425, 70}";
type = Stem;
},
{
place = "{40, 80}";
type = Stem;
}
);
layerId = "F34C6FC4-EF5D-4900-948D-0C8CFE233EE1";
paths = (
{
closed = 1;
nodes = (
"207 59 OFFCURVE",
"152 107 OFFCURVE",
"129 175 CURVE",
"504 266 LINE",
"488 390 OFFCURVE",
"409 495 OFFCURVE",
"271 495 CURVE SMOOTH",
"131 495 OFFCURVE",
"40 382 OFFCURVE",
"40 239 CURVE SMOOTH",
"40 92 OFFCURVE",
"147 -11 OFFCURVE",
"290 -11 CURVE SMOOTH",
"361 -11 OFFCURVE",
"420 12 OFFCURVE",
"460 44 CURVE",
"460 132 LINE",
"423 95 OFFCURVE",
"370 59 OFFCURVE",
"295 59 CURVE SMOOTH"
);
},
{
closed = 1;
nodes = (
"120 247 LINE",
"120 338 OFFCURVE",
"174 425 OFFCURVE",
"274 425 CURVE SMOOTH",
"350 425 OFFCURVE",
"404 377 OFFCURVE",
"421 316 CURVE",
"124 240 LINE"
);
}
);
width = 542;
}
);
unicode = 0065;
},
{
glyphname = f;
layers = (
{
hints = (
{
horizontal = 1;
place = "{0, 21}";
target = up;
type = BottomGhost;
},
{
horizontal = 1;
place = "{413, 69}";
type = Stem;
},
{
horizontal = 1;
place = "{668, 68}";
type = Stem;
},
{
place = "{113, 79}";
type = Stem;
}
);
layerId = "F34C6FC4-EF5D-4900-948D-0C8CFE233EE1";
paths = (
{
closed = 1;
nodes = (
"329 726 LINE",
"313 731 OFFCURVE",
"292 736 OFFCURVE",
"268 736 CURVE SMOOTH",
"173 736 OFFCURVE",
"113 685 OFFCURVE",
"113 557 CURVE SMOOTH",
"113 484 LINE",
"15 413 LINE",
"113 413 LINE",
"113 0 LINE",
"192 0 LINE",
"192 413 LINE",
"313 413 LINE",
"313 482 LINE",
"192 482 LINE",
"192 553 LINE SMOOTH",
"192 628 OFFCURVE",
"215 668 OFFCURVE",
"278 668 CURVE SMOOTH",
"295 668 OFFCURVE",
"312 665 OFFCURVE",
"329 658 CURVE"
);
}
);
width = 288;
}
);
unicode = 0066;
},
{
glyphname = g;
layers = (
{
hints = (
{
place = "{40, 84}";
type = Stem;
},
{
place = "{462, 81}";
type = Stem;
},
{
horizontal = 1;
place = "{-194, 70}";
type = Stem;
},
{
horizontal = 1;
place = "{19, 70}";
type = Stem;
},
{
horizontal = 1;
place = "{424, 70}";
type = Stem;
},
{
horizontal = 1;
place = "{482, -20}";
target = down;
type = TopGhost;
}
);
layerId = "F34C6FC4-EF5D-4900-948D-0C8CFE233EE1";
paths = (
{
closed = 1;
nodes = (
"200 -124 OFFCURVE",
"137 -102 OFFCURVE",
"81 -57 CURVE",
"81 -147 LINE",
"129 -174 OFFCURVE",
"197 -194 OFFCURVE",
"275 -194 CURVE SMOOTH",
"433 -194 OFFCURVE",
"543 -108 OFFCURVE",
"543 56 CURVE SMOOTH",
"543 482 LINE",
"451 412 LINE",
"410 461 OFFCURVE",
"355 494 OFFCURVE",
"275 494 CURVE SMOOTH",
"147 494 OFFCURVE",
"40 397 OFFCURVE",
"40 253 CURVE SMOOTH",
"40 117 OFFCURVE",
"142 19 OFFCURVE",
"275 19 CURVE SMOOTH",
"356 19 OFFCURVE",
"415 56 OFFCURVE",
"462 115 CURVE",
"462 55 LINE SMOOTH",
"462 -73 OFFCURVE",
"396 -124 OFFCURVE",
"275 -124 CURVE SMOOTH"
);
},
{
closed = 1;
nodes = (
"124 357 OFFCURVE",
"194 424 OFFCURVE",
"290 424 CURVE SMOOTH",
"386 424 OFFCURVE",
"462 354 OFFCURVE",
"462 255 CURVE SMOOTH",
"462 159 OFFCURVE",
"385 89 OFFCURVE",
"291 89 CURVE SMOOTH",
"195 89 OFFCURVE",
"124 159 OFFCURVE",
"124 258 CURVE SMOOTH"
);
}
);
width = 616;
}
);
unicode = 0067;
},
{
glyphname = h;
layers = (
{
hints = (
{
horizontal = 1;
place = "{0, 21}";
target = up;
type = BottomGhost;
},
{
horizontal = 1;
place = "{412, 81}";
type = Stem;
},
{
place = "{76, 82}";
type = Stem;
},
{
place = "{408, 82}";
type = Stem;
}
);
layerId = "F34C6FC4-EF5D-4900-948D-0C8CFE233EE1";
paths = (
{
closed = 1;
nodes = (
"245 493 OFFCURVE",
"185 459 OFFCURVE",
"150 416 CURVE",
"150 732 LINE",
"76 732 LINE",
"76 0 LINE",
"158 0 LINE",
"158 280 LINE SMOOTH",
"158 369 OFFCURVE",
"225 412 OFFCURVE",
"297 412 CURVE SMOOTH",
"372 412 OFFCURVE",
"408 368 OFFCURVE",
"408 280 CURVE SMOOTH",
"408 0 LINE",
"490 0 LINE",
"490 303 LINE SMOOTH",
"490 436 OFFCURVE",
"424 493 OFFCURVE",
"318 493 CURVE SMOOTH"
);
}
);
width = 563;
}
);
unicode = 0068;
},
{
glyphname = i;
layers = (
{
hints = (
{
place = "{65, 121}";
type = Stem;
},
{
place = "{86, 81}";
type = Stem;
},
{
horizontal = 1;
place = "{0, 21}";
target = up;
type = BottomGhost;
},
{
horizontal = 1;
place = "{482, -20}";
target = down;
type = TopGhost;
},
{
horizontal = 1;
place = "{578, 120}";
type = Stem;
}
);
layerId = "F34C6FC4-EF5D-4900-948D-0C8CFE233EE1";
paths = (
{
closed = 1;
nodes = (
"65 606 OFFCURVE",
"93 578 OFFCURVE",
"125 578 CURVE SMOOTH",
"160 578 OFFCURVE",
"186 606 OFFCURVE",
"186 637 CURVE SMOOTH",
"186 673 OFFCURVE",
"160 698 OFFCURVE",
"125 698 CURVE SMOOTH",
"93 698 OFFCURVE",
"65 673 OFFCURVE",
"65 637 CURVE SMOOTH"
);
},
{
closed = 1;
nodes = (
"167 482 LINE",
"86 482 LINE",
"86 0 LINE",
"167 0 LINE"
);
}
);
width = 251;
}
);
unicode = 0069;
},
{
glyphname = j;
layers = (
{
hints = (
{
place = "{12, 120}";
type = Stem;
},
{
place = "{36, 81}";
type = Stem;
},
{
horizontal = 1;
place = "{-194, 69}";
type = Stem;
},
{
horizontal = 1;
place = "{482, -20}";
target = down;
type = TopGhost;
},
{
horizontal = 1;
place = "{578, 120}";
type = Stem;
}
);
layerId = "F34C6FC4-EF5D-4900-948D-0C8CFE233EE1";
paths = (
{
closed = 1;
nodes = (
"12 606 OFFCURVE",
"39 578 OFFCURVE",
"72 578 CURVE SMOOTH",
"103 578 OFFCURVE",
"132 606 OFFCURVE",
"132 637 CURVE SMOOTH",
"132 673 OFFCURVE",
"103 698 OFFCURVE",
"72 698 CURVE SMOOTH",
"39 698 OFFCURVE",
"12 673 OFFCURVE",
"12 637 CURVE SMOOTH"
);
},
{
closed = 1;
nodes = (
"-47 -187 LINE",
"-32 -191 OFFCURVE",
"-17 -194 OFFCURVE",
"3 -194 CURVE SMOOTH",
"104 -194 OFFCURVE",
"117 -122 OFFCURVE",
"117 -37 CURVE SMOOTH",
"117 482 LINE",
"36 482 LINE",
"36 -62 LINE SMOOTH",
"36 -94 OFFCURVE",
"29 -125 OFFCURVE",
"-14 -125 CURVE SMOOTH",
"-25 -125 OFFCURVE",
"-36 -123 OFFCURVE",
"-47 -119 CURVE"
);
}
);
width = 195;
}
);
unicode = 006A;
},
{
glyphname = k;
layers = (
{
hints = (
{
horizontal = 1;
place = "{0, 21}";
target = up;
type = BottomGhost;
},
{
horizontal = 1;
place = "{482, -20}";
target = down;
type = TopGhost;
},
{
place = "{76, 82}";
type = Stem;
}
);
layerId = "F34C6FC4-EF5D-4900-948D-0C8CFE233EE1";
paths = (
{
closed = 1;
nodes = (
"158 732 LINE",
"76 732 LINE",
"76 0 LINE",
"158 0 LINE",
"158 216 LINE",
"355 0 LINE",
"456 0 LINE",
"228 254 LINE",
"447 482 LINE",
"342 482 LINE",
"158 281 LINE"
);
}
);
width = 445;
}
);
unicode = 006B;
},
{
glyphname = l;
layers = (
{
hints = (
{
horizontal = 1;
place = "{0, 21}";
target = up;
type = BottomGhost;
},
{
place = "{76, 81}";
type = Stem;
}
);
layerId = "F34C6FC4-EF5D-4900-948D-0C8CFE233EE1";
paths = (
{
closed = 1;
nodes = (
"157 732 LINE",
"76 732 LINE",
"76 0 LINE",
"157 0 LINE"
);
}
);
width = 235;
}
);
unicode = 006C;
},
{
glyphname = m;
layers = (
{
hints = (
{
horizontal = 1;
place = "{0, 21}";
target = up;
type = BottomGhost;
},
{
horizontal = 1;
place = "{421, 72}";
type = Stem;
},
{
place = "{72, 82}";
type = Stem;
},
{
place = "{385, 82}";
type = Stem;
},
{
place = "{699, 82}";
type = Stem;
}
);
layerId = "F34C6FC4-EF5D-4900-948D-0C8CFE233EE1";
paths = (
{
closed = 1;
nodes = (
"781 0 LINE",
"781 304 LINE SMOOTH",
"781 411 OFFCURVE",
"729 493 OFFCURVE",
"614 493 CURVE SMOOTH",
"543 493 OFFCURVE",
"480 461 OFFCURVE",
"449 404 CURVE",
"422 467 OFFCURVE",
"367 493 OFFCURVE",
"302 493 CURVE SMOOTH",
"245 493 OFFCURVE",
"186 472 OFFCURVE",
"151 424 CURVE",
"72 481 LINE",
"72 0 LINE",
"154 0 LINE",
"154 279 LINE SMOOTH",
"154 355 OFFCURVE",
"197 421 OFFCURVE",
"277 421 CURVE SMOOTH",
"358 421 OFFCURVE",
"385 359 OFFCURVE",
"385 279 CURVE SMOOTH",
"385 0 LINE",
"467 0 LINE",
"467 279 LINE SMOOTH",
"467 355 OFFCURVE",
"510 421 OFFCURVE",
"591 421 CURVE SMOOTH",
"659 421 OFFCURVE",
"699 379 OFFCURVE",
"699 279 CURVE SMOOTH",
"699 0 LINE"
);
}
);
width = 855;
}
);
unicode = 006D;
},
{
glyphname = n;
layers = (
{
hints = (
{
place = "{72, 82}";
type = Stem;
},
{
place = "{404, 82}";
type = Stem;
},
{
horizontal = 1;
place = "{0, 21}";
target = up;
type = BottomGhost;
},
{
horizontal = 1;
place = "{421, 72}";
type = Stem;
},
{
horizontal = 1;
place = "{482, -20}";
target = down;
type = TopGhost;
}
);
layerId = "F34C6FC4-EF5D-4900-948D-0C8CFE233EE1";
paths = (
{
closed = 1;
nodes = (
"243 493 OFFCURVE",
"192 464 OFFCURVE",
"156 421 CURVE",
"72 482 LINE",
"72 0 LINE",
"154 0 LINE",
"154 280 LINE SMOOTH",
"154 390 OFFCURVE",
"231 421 OFFCURVE",
"286 421 CURVE SMOOTH",
"343 421 OFFCURVE",
"404 388 OFFCURVE",
"404 280 CURVE SMOOTH",
"404 0 LINE",
"486 0 LINE",
"486 303 LINE SMOOTH",
"486 428 OFFCURVE",
"418 493 OFFCURVE",
"312 493 CURVE SMOOTH"
);
}
);
width = 559;
}
);
unicode = 006E;
},
{
glyphname = o;
layers = (
{
hints = (
{
horizontal = 1;
place = "{-10, 69}";
type = Stem;
},
{
horizontal = 1;
place = "{425, 69}";
type = Stem;
},
{
place = "{40, 83}";
type = Stem;
},
{
place = "{473, 83}";
type = Stem;
}
);
layerId = "F34C6FC4-EF5D-4900-948D-0C8CFE233EE1";
paths = (
{
closed = 1;
nodes = (
"556 383 OFFCURVE",
"446 494 OFFCURVE",
"297 494 CURVE SMOOTH",
"148 494 OFFCURVE",
"40 382 OFFCURVE",
"40 240 CURVE SMOOTH",
"40 99 OFFCURVE",
"148 -10 OFFCURVE",
"296 -10 CURVE SMOOTH",
"446 -10 OFFCURVE",
"556 102 OFFCURVE",
"556 242 CURVE SMOOTH"
);
},
{
closed = 1;
nodes = (
"473 142 OFFCURVE",
"399 59 OFFCURVE",
"297 59 CURVE SMOOTH",
"198 59 OFFCURVE",
"123 138 OFFCURVE",
"123 242 CURVE SMOOTH",
"123 343 OFFCURVE",
"192 425 OFFCURVE",
"296 425 CURVE SMOOTH",
"400 425 OFFCURVE",
"473 342 OFFCURVE",
"473 241 CURVE SMOOTH"
);
}
);
width = 596;
}
);
unicode = 006F;
},
{
glyphname = p;
layers = (
{
hints = (
{
place = "{72, 82}";
type = Stem;
},
{
place = "{495, 82}";
type = Stem;
},
{
horizontal = 1;
place = "{-10, 69}";
type = Stem;
},
{
horizontal = 1;
place = "{422, 72}";
type = Stem;
},
{
horizontal = 1;
place = "{482, -20}";
target = down;
type = TopGhost;
}
);
layerId = "F34C6FC4-EF5D-4900-948D-0C8CFE233EE1";
paths = (
{
closed = 1;
nodes = (
"154 84 LINE",
"198 24 OFFCURVE",
"259 -10 OFFCURVE",
"339 -10 CURVE SMOOTH",
"464 -10 OFFCURVE",
"577 90 OFFCURVE",
"577 242 CURVE SMOOTH",
"577 394 OFFCURVE",
"468 494 OFFCURVE",
"339 494 CURVE SMOOTH",
"259 494 OFFCURVE",
"209 458 OFFCURVE",
"164 406 CURVE",
"72 482 LINE",
"72 -188 LINE",
"154 -188 LINE"
);
},
{
closed = 1;
nodes = (
"495 131 OFFCURVE",
"420 59 OFFCURVE",
"326 59 CURVE SMOOTH",
"233 59 OFFCURVE",
"150 138 OFFCURVE",
"150 241 CURVE SMOOTH",
"150 346 OFFCURVE",
"230 422 OFFCURVE",
"323 422 CURVE SMOOTH",
"422 422 OFFCURVE",
"495 349 OFFCURVE",
"495 242 CURVE SMOOTH"
);
}
);
width = 617;
}
);
unicode = 0070;
},
{
glyphname = q;
layers = (
{
hints = (
{
place = "{40, 83}";
type = Stem;
},
{
place = "{461, 82}";
type = Stem;
},
{
horizontal = 1;
place = "{-11, 70}";
type = Stem;
},
{
horizontal = 1;
place = "{424, 70}";
type = Stem;
},
{
horizontal = 1;
place = "{482, -20}";
target = down;
type = TopGhost;
}
);
layerId = "F34C6FC4-EF5D-4900-948D-0C8CFE233EE1";
paths = (
{
closed = 1;
nodes = (
"543 -188 LINE",
"543 482 LINE",
"451 410 LINE",
"407 459 OFFCURVE",
"359 494 OFFCURVE",
"279 494 CURVE SMOOTH",
"147 494 OFFCURVE",
"40 394 OFFCURVE",
"40 241 CURVE SMOOTH",
"40 93 OFFCURVE",
"146 -11 OFFCURVE",
"279 -11 CURVE SMOOTH",
"358 -11 OFFCURVE",
"416 27 OFFCURVE",
"461 87 CURVE",
"461 -188 LINE"
);
},
{
closed = 1;
nodes = (
"123 351 OFFCURVE",
"195 424 OFFCURVE",
"293 424 CURVE SMOOTH",
"386 424 OFFCURVE",
"466 347 OFFCURVE",
"466 242 CURVE SMOOTH",
"466 138 OFFCURVE",
"385 59 OFFCURVE",
"292 59 CURVE SMOOTH",
"196 59 OFFCURVE",
"123 138 OFFCURVE",
"123 243 CURVE SMOOTH"
);
}
);
width = 616;
}
);
unicode = 0071;
},
{
glyphname = r;
layers = (
{
hints = (
{
place = "{72, 82}";
type = Stem;
},
{
horizontal = 1;
place = "{0, 21}";
target = up;
type = BottomGhost;
},
{
horizontal = 1;
place = "{419, 72}";
type = Stem;
},
{
horizontal = 1;
place = "{482, -20}";
target = down;
type = TopGhost;
},
{
horizontal = 1;
place = "{486, -20}";
target = down;
type = TopGhost;
}
);
layerId = "F34C6FC4-EF5D-4900-948D-0C8CFE233EE1";
paths = (
{
closed = 1;
nodes = (
"346 486 LINE",
"333 489 OFFCURVE",
"320 491 OFFCURVE",
"304 491 CURVE SMOOTH",
"252 491 OFFCURVE",
"193 469 OFFCURVE",
"156 428 CURVE",
"72 482 LINE",
"72 0 LINE",
"154 0 LINE",
"154 271 LINE SMOOTH",
"154 378 OFFCURVE",
"238 419 OFFCURVE",
"302 419 CURVE SMOOTH",
"319 419 OFFCURVE",
"333 417 OFFCURVE",
"346 410 CURVE"
);
}
);
width = 362;
}
);
unicode = 0072;
},
{
glyphname = s;
layers = (
{
hints = (
{
horizontal = 1;
place = "{-10, 68}";
type = Stem;
},
{
horizontal = 1;
place = "{425, 68}";
type = Stem;
},
{
place = "{54, 79}";
type = Stem;
},
{
place = "{292, 79}";
type = Stem;
}
);
layerId = "F34C6FC4-EF5D-4900-948D-0C8CFE233EE1";
paths = (
{
closed = 1;
nodes = (
"140 58 OFFCURVE",
"83 95 OFFCURVE",
"41 134 CURVE",
"41 46 LINE",
"80 19 OFFCURVE",
"129 -10 OFFCURVE",
"205 -10 CURVE SMOOTH",
"308 -10 OFFCURVE",
"371 56 OFFCURVE",
"371 133 CURVE SMOOTH",
"371 287 OFFCURVE",
"133 286 OFFCURVE",
"133 373 CURVE SMOOTH",
"133 400 OFFCURVE",
"158 425 OFFCURVE",
"206 425 CURVE SMOOTH",
"256 425 OFFCURVE",
"296 397 OFFCURVE",
"336 363 CURVE",
"336 453 LINE",
"299 482 OFFCURVE",
"249 493 OFFCURVE",
"204 493 CURVE SMOOTH",
"110 493 OFFCURVE",
"54 447 OFFCURVE",
"54 376 CURVE SMOOTH",
"54 228 OFFCURVE",
"292 248 OFFCURVE",
"292 131 CURVE SMOOTH",
"292 80 OFFCURVE",
"251 58 OFFCURVE",
"203 58 CURVE SMOOTH"
);
}
);
width = 413;
}
);
unicode = 0073;
},
{
glyphname = t;
layers = (
{
hints = (
{
place = "{117, 80}";
type = Stem;
},
{
horizontal = 1;
place = "{-11, 70}";
type = Stem;
},
{
horizontal = 1;
place = "{-1, 21}";
target = up;
type = BottomGhost;
},
{
horizontal = 1;
place = "{412, 70}";
type = Stem;
}
);
layerId = "F34C6FC4-EF5D-4900-948D-0C8CFE233EE1";
paths = (
{
closed = 1;
nodes = (
"117 120 LINE SMOOTH",
"117 39 OFFCURVE",
"162 -11 OFFCURVE",
"231 -11 CURVE SMOOTH",
"250 -11 OFFCURVE",
"265 -8 OFFCURVE",
"280 -1 CURVE",
"280 68 LINE",
"265 61 OFFCURVE",
"252 59 OFFCURVE",
"241 59 CURVE SMOOTH",
"209 59 OFFCURVE",
"197 85 OFFCURVE",
"197 112 CURVE SMOOTH",
"197 412 LINE",
"325 412 LINE",
"325 482 LINE",
"197 482 LINE",
"197 649 LINE",
"19 412 LINE",
"117 412 LINE"
);
}
);
width = 353;
}
);
unicode = 0074;
},
{
glyphname = u;
layers = (
{
hints = (
{
place = "{73, 82}";
type = Stem;
},
{
place = "{405, 82}";
type = Stem;
},
{
horizontal = 1;
place = "{-10, 72}";
type = Stem;
},
{
horizontal = 1;
place = "{1, 21}";
target = up;
type = BottomGhost;
},
{
horizontal = 1;
place = "{483, -20}";
target = down;
type = TopGhost;
}
);
layerId = "F34C6FC4-EF5D-4900-948D-0C8CFE233EE1";
paths = (
{
closed = 1;
nodes = (
"318 -10 OFFCURVE",
"367 19 OFFCURVE",
"403 62 CURVE",
"487 1 LINE",
"487 483 LINE",
"405 483 LINE",
"405 203 LINE SMOOTH",
"405 93 OFFCURVE",
"330 62 OFFCURVE",
"273 62 CURVE SMOOTH",
"216 62 OFFCURVE",
"155 95 OFFCURVE",
"155 203 CURVE SMOOTH",
"155 483 LINE",
"73 483 LINE",
"73 180 LINE SMOOTH",
"73 53 OFFCURVE",
"140 -10 OFFCURVE",
"247 -10 CURVE SMOOTH"
);
}
);
width = 559;
}
);
unicode = 0075;
},
{
glyphname = v;
layers = (
{
hints = (
{
place = "{14, 485}";
type = Stem;
},
{
horizontal = 1;
place = "{0, 91}";
type = Stem;
},
{
horizontal = 1;
place = "{0, 21}";
target = up;
type = BottomGhost;
}
);
layerId = "F34C6FC4-EF5D-4900-948D-0C8CFE233EE1";
paths = (
{
closed = 1;
nodes = (
"499 481 LINE",
"413 481 LINE",
"258 91 LINE",
"104 481 LINE",
"14 481 LINE",
"216 0 LINE",
"297 0 LINE"
);
}
);
width = 510;
}
);
unicode = 0076;
},
{
glyphname = w;
layers = (
{
hints = (
{
place = "{19, 732}";
type = Stem;
},
{
horizontal = 1;
place = "{0, 100}";
type = Stem;
},
{
horizontal = 1;
place = "{0, 21}";
target = up;
type = BottomGhost;
},
{
horizontal = 1;
place = "{395, 88}";
type = Stem;
},
{
horizontal = 1;
place = "{482, -20}";
target = down;
type = TopGhost;
},
{
horizontal = 1;
place = "{483, -20}";
target = down;
type = TopGhost;
}
);
layerId = "F34C6FC4-EF5D-4900-948D-0C8CFE233EE1";
paths = (
{
closed = 1;
nodes = (
"19 482 LINE",
"184 0 LINE",
"262 0 LINE",
"383 395 LINE",
"506 0 LINE",
"587 0 LINE",
"751 482 LINE",
"665 482 LINE",
"545 100 LINE",
"428 483 LINE",
"345 483 LINE",
"227 99 LINE",
"104 482 LINE"
);
}
);
width = 767;
}
);
unicode = 0077;
},
{
glyphname = x;
layers = (
{
hints = (
{
horizontal = 1;
place = "{0, 21}";
target = up;
type = BottomGhost;
},
{
place = "{8, 478}";
type = Stem;
}
);
layerId = "F34C6FC4-EF5D-4900-948D-0C8CFE233EE1";
paths = (
{
closed = 1;
nodes = (
"8 0 LINE",
"100 0 LINE",
"246 192 LINE",
"393 0 LINE",
"486 0 LINE",
"294 251 LINE",
"472 481 LINE",
"382 481 LINE",
"248 307 LINE",
"115 481 LINE",
"21 481 LINE",
"202 249 LINE"
);
}
);
width = 499;
}
);
unicode = 0078;
},
{
glyphname = y;
layers = (
{
hints = (
{
horizontal = 1;
place = "{-188, 669}";
type = Stem;
},
{
place = "{-4, 489}";
type = Stem;
}
);
layerId = "F34C6FC4-EF5D-4900-948D-0C8CFE233EE1";
paths = (
{
closed = 1;
nodes = (
"214 0 LINE",
"139 -188 LINE",
"217 -188 LINE",
"485 481 LINE",
"399 481 LINE",
"250 98 LINE",
"85 481 LINE",
"-4 481 LINE"
);
}
);
width = 505;
}
);
unicode = 0079;
},
{
glyphname = z;
layers = (
{
hints = (
{
horizontal = 1;
place = "{0, 70}";
type = Stem;
},
{
horizontal = 1;
place = "{414, 68}";
type = Stem;
},
{
place = "{19, 467}";
type = Stem;
}
);
layerId = "F34C6FC4-EF5D-4900-948D-0C8CFE233EE1";
paths = (
{
closed = 1;
nodes = (
"486 414 LINE",
"486 482 LINE",
"40 482 LINE",
"40 414 LINE",
"388 414 LINE",
"19 69 LINE",
"19 0 LINE",
"480 0 LINE",
"480 70 LINE",
"117 70 LINE"
);
}
);
width = 503;
}
);
unicode = 007A;
},
{
glyphname = braceleft;
layers = (
{
hints = (
{
horizontal = 1;
place = "{252, 73}";
type = Stem;
},
{
place = "{138, 82}";
type = Stem;
}
);
layerId = "F34C6FC4-EF5D-4900-948D-0C8CFE233EE1";
paths = (
{
closed = 1;
nodes = (
"29 252 LINE",
"131 252 OFFCURVE",
"139 189 OFFCURVE",
"139 140 CURVE SMOOTH",
"139 128 OFFCURVE",
"136 98 OFFCURVE",
"136 51 CURVE SMOOTH",
"136 -107 OFFCURVE",
"178 -147 OFFCURVE",
"338 -155 CURVE",
"350 -97 LINE",
"273 -81 OFFCURVE",
"220 -67 OFFCURVE",
"220 23 CURVE SMOOTH",
"220 80 OFFCURVE",
"222 111 OFFCURVE",
"222 123 CURVE SMOOTH",
"222 180 OFFCURVE",
"216 247 OFFCURVE",
"126 289 CURVE",
"216 331 OFFCURVE",
"222 398 OFFCURVE",
"222 455 CURVE SMOOTH",
"222 467 OFFCURVE",
"220 498 OFFCURVE",
"220 555 CURVE SMOOTH",
"220 645 OFFCURVE",
"273 659 OFFCURVE",
"350 675 CURVE",
"338 733 LINE",
"280 730 OFFCURVE",
"237 722 OFFCURVE",
"209 708 CURVE SMOOTH",
"153 679 OFFCURVE",
"137 628 OFFCURVE",
"137 561 CURVE SMOOTH",
"137 557 OFFCURVE",
"138 523 OFFCURVE",
"138 431 CURVE SMOOTH",
"138 356 OFFCURVE",
"101 325 OFFCURVE",
"29 325 CURVE"
);
}
);
width = 376;
}
);
unicode = 007B;
},
{
glyphname = bar;
layers = (
{
hints = (
{
horizontal = 1;
place = "{-168, 935}";
type = Stem;
},
{
place = "{90, 73}";
type = Stem;
}
);
layerId = "F34C6FC4-EF5D-4900-948D-0C8CFE233EE1";
paths = (
{
closed = 1;
nodes = (
"90 767 LINE",
"90 -168 LINE",
"163 -168 LINE",
"163 767 LINE"
);
}
);
width = 253;
}
);
unicode = 007C;
},
{
glyphname = braceright;
layers = (
{
hints = (
{
horizontal = 1;
place = "{252, 73}";
type = Stem;
},
{
place = "{156, 82}";
type = Stem;
}
);
layerId = "F34C6FC4-EF5D-4900-948D-0C8CFE233EE1";
paths = (
{
closed = 1;
nodes = (
"347 325 LINE",
"342 325 LINE SMOOTH",
"249 325 OFFCURVE",
"238 388 OFFCURVE",
"238 441 CURVE SMOOTH",
"238 452 OFFCURVE",
"240 482 OFFCURVE",
"240 527 CURVE SMOOTH",
"240 685 OFFCURVE",
"198 725 OFFCURVE",
"38 733 CURVE",
"26 675 LINE",
"103 659 OFFCURVE",
"156 645 OFFCURVE",
"156 555 CURVE SMOOTH",
"156 498 OFFCURVE",
"154 467 OFFCURVE",
"154 455 CURVE SMOOTH",
"154 398 OFFCURVE",
"160 331 OFFCURVE",
"250 289 CURVE",
"160 247 OFFCURVE",
"154 180 OFFCURVE",
"154 123 CURVE SMOOTH",
"154 111 OFFCURVE",
"156 80 OFFCURVE",
"156 23 CURVE SMOOTH",
"156 -67 OFFCURVE",
"103 -81 OFFCURVE",
"26 -97 CURVE",
"38 -155 LINE",
"96 -152 OFFCURVE",
"139 -144 OFFCURVE",
"167 -131 CURVE",
"223 -103 OFFCURVE",
"240 -54 OFFCURVE",
"240 11 CURVE SMOOTH",
"240 16 OFFCURVE",
"238 51 OFFCURVE",
"238 147 CURVE SMOOTH",
"238 222 OFFCURVE",
"275 252 OFFCURVE",
"347 252 CURVE"
);
}
);
width = 376;
}
);
unicode = 007D;
},
{
glyphname = asciitilde;
layers = (
{
hints = (
{
place = "{47, 416}";
type = Stem;
},
{
horizontal = 1;
place = "{235, 74}";
type = Stem;
},
{
horizontal = 1;
place = "{290, 74}";
type = Stem;
}
);
layerId = "F34C6FC4-EF5D-4900-948D-0C8CFE233EE1";
paths = (
{
closed = 1;
nodes = (
"413 369 LINE",
"396 332 OFFCURVE",
"368 309 OFFCURVE",
"336 309 CURVE SMOOTH",
"285 309 OFFCURVE",
"241 364 OFFCURVE",
"171 364 CURVE SMOOTH",
"111 364 OFFCURVE",
"76 325 OFFCURVE",
"47 253 CURVE",
"96 229 LINE",
"115 268 OFFCURVE",
"137 290 OFFCURVE",
"172 290 CURVE SMOOTH",
"228 290 OFFCURVE",
"284 235 OFFCURVE",
"345 235 CURVE SMOOTH",
"400 235 OFFCURVE",
"436 279 OFFCURVE",
"463 347 CURVE"
);
}
);
width = 508;
}
);
unicode = 007E;
},
{
glyphname = Euro;
layers = (
{
hints = (
{
horizontal = 1;
place = "{-17, 75}";
type = Stem;
},
{
horizontal = 1;
place = "{289, 67}";
type = Stem;
},
{
horizontal = 1;
place = "{648, 75}";
type = Stem;
},
{
place = "{10, 82}";
type = Stem;
}
);
layerId = "F34C6FC4-EF5D-4900-948D-0C8CFE233EE1";
paths = (
{
closed = 1;
nodes = (
"92 356 LINE",
"92 471 OFFCURVE",
"150 648 OFFCURVE",
"315 648 CURVE SMOOTH",
"382 648 OFFCURVE",
"421 618 OFFCURVE",
"460 575 CURVE",
"492 601 OFFCURVE",
"486 601 OFFCURVE",
"517 627 CURVE",
"469 687 OFFCURVE",
"413 723 OFFCURVE",
"317 723 CURVE SMOOTH",
"99 723 OFFCURVE",
"10 535 OFFCURVE",
"10 347 CURVE SMOOTH",
"10 180 OFFCURVE",
"91 -17 OFFCURVE",
"301 -17 CURVE SMOOTH",
"396 -17 OFFCURVE",
"469 19 OFFCURVE",
"517 80 CURVE",
"460 133 LINE",
"424 89 OFFCURVE",
"373 58 OFFCURVE",
"305 58 CURVE SMOOTH",
"166 58 OFFCURVE",
"104 174 OFFCURVE",
"96 289 CURVE",
"341 289 LINE",
"341 356 LINE"
);
}
);
width = 534;
}
);
unicode = 20AC;
},
{
glyphname = quotesinglbase;
layers = (
{
hints = (
{
horizontal = 1;
place = "{-140, 246}";
type = Stem;
},
{
place = "{22, 136}";
type = Stem;
}
);
layerId = "F34C6FC4-EF5D-4900-948D-0C8CFE233EE1";
paths = (
{
closed = 1;
nodes = (
"158 106 LINE",
"75 106 LINE",
"22 -140 LINE",
"87 -140 LINE"
);
}
);
width = 197;
}
);
unicode = 201A;
},
{
glyphname = florin;
layers = (
{
hints = (
{
horizontal = 1;
place = "{371, 68}";
type = Stem;
},
{
horizontal = 1;
place = "{641, 72}";
type = Stem;
},
{
place = "{12, 381}";
type = Stem;
}
);
layerId = "F34C6FC4-EF5D-4900-948D-0C8CFE233EE1";
paths = (
{
closed = 1;
nodes = (
"12 -103 LINE",
"90 -103 LINE",
"197 371 LINE",
"299 371 LINE",
"311 439 LINE",
"210 439 LINE",
"222 500 LINE SMOOTH",
"243 611 OFFCURVE",
"279 641 OFFCURVE",
"334 641 CURVE SMOOTH",
"350 641 OFFCURVE",
"367 638 OFFCURVE",
"379 631 CURVE",
"393 703 LINE",
"373 710 OFFCURVE",
"352 713 OFFCURVE",
"329 713 CURVE SMOOTH",
"260 713 OFFCURVE",
"176 675 OFFCURVE",
"147 531 CURVE SMOOTH",
"128 439 LINE",
"44 439 LINE",
"31 371 LINE",
"114 371 LINE"
);
}
);
width = 432;
}
);
unicode = 0192;
},
{
glyphname = quotedblbase;
layers = (
{
hints = (
{
horizontal = 1;
place = "{-140, 246}";
type = Stem;
},
{
place = "{21, 303}";
type = Stem;
}
);
layerId = "F34C6FC4-EF5D-4900-948D-0C8CFE233EE1";
paths = (
{
closed = 1;
nodes = (
"157 106 LINE",
"75 106 LINE",
"21 -140 LINE",
"86 -140 LINE"
);
},
{
closed = 1;
nodes = (
"324 106 LINE",
"244 106 LINE",
"190 -140 LINE",
"255 -140 LINE"
);
}
);
width = 364;
}
);
unicode = 201E;
},
{
glyphname = ellipsis;
layers = (
{
hints = (
{
horizontal = 1;
place = "{-9, 118}";
type = Stem;
},
{
place = "{112, 121}";
type = Stem;
},
{
place = "{359, 121}";
type = Stem;
},
{
place = "{607, 118}";
type = Stem;
}
);
layerId = "F34C6FC4-EF5D-4900-948D-0C8CFE233EE1";
paths = (
{
closed = 1;
nodes = (
"112 16 OFFCURVE",
"140 -9 OFFCURVE",
"172 -9 CURVE SMOOTH",
"204 -9 OFFCURVE",
"233 16 OFFCURVE",
"233 51 CURVE SMOOTH",
"233 86 OFFCURVE",
"204 109 OFFCURVE",
"172 109 CURVE SMOOTH",
"140 109 OFFCURVE",
"112 86 OFFCURVE",
"112 51 CURVE SMOOTH"
);
},
{
closed = 1;
nodes = (
"359 16 OFFCURVE",
"385 -9 OFFCURVE",
"420 -9 CURVE SMOOTH",
"453 -9 OFFCURVE",
"480 16 OFFCURVE",
"480 51 CURVE SMOOTH",
"480 86 OFFCURVE",
"453 109 OFFCURVE",
"420 109 CURVE SMOOTH",
"385 109 OFFCURVE",
"359 86 OFFCURVE",
"359 51 CURVE SMOOTH"
);
},
{
closed = 1;
nodes = (
"607 16 OFFCURVE",
"632 -9 OFFCURVE",
"667 -9 CURVE SMOOTH",
"700 -9 OFFCURVE",
"725 16 OFFCURVE",
"725 51 CURVE SMOOTH",
"725 86 OFFCURVE",
"700 109 OFFCURVE",
"667 109 CURVE SMOOTH",
"632 109 OFFCURVE",
"607 86 OFFCURVE",
"607 51 CURVE SMOOTH"
);
}
);
width = 837;
}
);
unicode = 2026;
},
{
glyphname = dagger;
layers = (
{
hints = (
{
horizontal = 1;
place = "{486, 57}";
type = Stem;
},
{
horizontal = 1;
place = "{708, -20}";
target = down;
type = TopGhost;
},
{
place = "{185, 63}";
type = Stem;
}
);
layerId = "F34C6FC4-EF5D-4900-948D-0C8CFE233EE1";
paths = (
{
closed = 1;
nodes = (
"252 708 LINE",
"181 708 LINE",
"187 541 LINE",
"45 546 LINE",
"45 483 LINE",
"189 489 LINE",
"181 63 LINE",
"252 63 LINE",
"244 489 LINE",
"390 483 LINE",
"390 546 LINE",
"246 541 LINE"
);
}
);
width = 435;
}
);
unicode = 2020;
},
{
glyphname = daggerdbl;
layers = (
{
hints = (
{
place = "{183, 64}";
type = Stem;
},
{
place = "{185, 60}";
type = Stem;
},
{
horizontal = 1;
place = "{92, 59}";
type = Stem;
},
{
horizontal = 1;
place = "{488, 59}";
type = Stem;
},
{
horizontal = 1;
place = "{708, -20}";
target = down;
type = TopGhost;
}
);
layerId = "F34C6FC4-EF5D-4900-948D-0C8CFE233EE1";
paths = (
{
closed = 1;
nodes = (
"182 -61 LINE",
"250 -61 LINE",
"245 94 LINE",
"385 90 LINE",
"385 154 LINE",
"245 149 LINE",
"250 263 OFFCURVE",
"250 377 OFFCURVE",
"245 491 CURVE",
"385 485 LINE",
"385 549 LINE",
"245 545 LINE",
"250 708 LINE",
"182 708 LINE",
"184 545 LINE",
"45 549 LINE",
"45 485 LINE",
"185 491 LINE",
"182 377 OFFCURVE",
"182 263 OFFCURVE",
"185 149 CURVE",
"45 154 LINE",
"45 90 LINE",
"184 94 LINE"
);
}
);
width = 430;
}
);
unicode = 2021;
},
{
glyphname = circumflex;
layers = (
{
hints = (
{
horizontal = 1;
place = "{558, 141}";
type = Stem;
},
{
place = "{26, 286}";
type = Stem;
}
);
layerId = "F34C6FC4-EF5D-4900-948D-0C8CFE233EE1";
paths = (
{
closed = 1;
nodes = (
"206 699 LINE",
"133 699 LINE",
"26 558 LINE",
"92 558 LINE",
"168 640 LINE",
"246 558 LINE",
"312 558 LINE"
);
}
);
width = 337;
}
);
unicode = 02C6;
},
{
glyphname = perthousand;
layers = (
{
hints = (
{
place = "{31, 66}";
type = Stem;
},
{
place = "{287, 66}";
type = Stem;
},
{
place = "{410, 66}";
type = Stem;
},
{
place = "{665, 66}";
type = Stem;
},
{
place = "{782, 66}";
type = Stem;
},
{
place = "{1038, 66}";
type = Stem;
},
{
horizontal = 1;
place = "{-11, 59}";
type = Stem;
},
{
horizontal = 1;
place = "{0, 21}";
target = up;
type = BottomGhost;
},
{
horizontal = 1;
place = "{280, 59}";
type = Stem;
},
{
horizontal = 1;
place = "{358, 59}";
type = Stem;
},
{
horizontal = 1;
place = "{651, 59}";
type = Stem;
}
);
layerId = "F34C6FC4-EF5D-4900-948D-0C8CFE233EE1";
paths = (
{
closed = 1;
nodes = (
"353 634 OFFCURVE",
"288 710 OFFCURVE",
"194 710 CURVE SMOOTH",
"99 710 OFFCURVE",
"31 630 OFFCURVE",
"31 534 CURVE SMOOTH",
"31 438 OFFCURVE",
"94 358 OFFCURVE",
"193 358 CURVE SMOOTH",
"286 358 OFFCURVE",
"353 439 OFFCURVE",
"353 535 CURVE SMOOTH"
);
},
{
closed = 1;
nodes = (
"590 701 LINE",
"104 0 LINE",
"190 0 LINE",
"354 248 OFFCURVE",
"505 452 OFFCURVE",
"674 701 CURVE"
);
},
{
closed = 1;
nodes = (
"287 466 OFFCURVE",
"250 417 OFFCURVE",
"194 417 CURVE SMOOTH",
"138 417 OFFCURVE",
"97 466 OFFCURVE",
"97 535 CURVE SMOOTH",
"97 604 OFFCURVE",
"132 651 OFFCURVE",
"189 651 CURVE SMOOTH",
"249 651 OFFCURVE",
"287 602 OFFCURVE",
"287 534 CURVE SMOOTH"
);
},
{
closed = 1;
nodes = (
"731 262 OFFCURVE",
"664 339 OFFCURVE",
"572 339 CURVE SMOOTH",
"478 339 OFFCURVE",
"410 263 OFFCURVE",
"410 163 CURVE SMOOTH",
"410 66 OFFCURVE",
"476 -11 OFFCURVE",
"571 -11 CURVE SMOOTH",
"664 -11 OFFCURVE",
"731 66 OFFCURVE",
"731 166 CURVE SMOOTH"
);
},
{
closed = 1;
nodes = (
"1104 262 OFFCURVE",
"1037 339 OFFCURVE",
"945 339 CURVE SMOOTH",
"852 339 OFFCURVE",
"782 263 OFFCURVE",
"782 163 CURVE SMOOTH",
"782 66 OFFCURVE",
"850 -11 OFFCURVE",
"944 -11 CURVE SMOOTH",
"1037 -11 OFFCURVE",
"1104 66 OFFCURVE",
"1104 166 CURVE SMOOTH"
);
},
{
closed = 1;
nodes = (
"665 92 OFFCURVE",
"632 48 OFFCURVE",
"572 48 CURVE SMOOTH",
"516 48 OFFCURVE",
"476 94 OFFCURVE",
"476 165 CURVE SMOOTH",
"476 233 OFFCURVE",
"515 280 OFFCURVE",
"571 280 CURVE SMOOTH",
"627 280 OFFCURVE",
"665 235 OFFCURVE",
"665 160 CURVE SMOOTH"
);
},
{
closed = 1;
nodes = (
"1038 92 OFFCURVE",
"1005 48 OFFCURVE",
"945 48 CURVE SMOOTH",
"889 48 OFFCURVE",
"848 94 OFFCURVE",
"848 165 CURVE SMOOTH",
"848 232 OFFCURVE",
"887 280 OFFCURVE",
"944 280 CURVE SMOOTH",
"999 280 OFFCURVE",
"1038 235 OFFCURVE",
"1038 160 CURVE SMOOTH"
);
}
);
width = 1136;
}
);
unicode = 2030;
},
{
glyphname = guilsinglleft;
layers = (
{
hints = (
{
horizontal = 1;
place = "{39, 418}";
type = Stem;
},
{
place = "{30, 221}";
type = Stem;
}
);
layerId = "F34C6FC4-EF5D-4900-948D-0C8CFE233EE1";
paths = (
{
closed = 1;
nodes = (
"121 249 LINE",
"251 433 LINE",
"182 457 LINE",
"30 246 LINE",
"182 39 LINE",
"249 68 LINE"
);
}
);
width = 275;
}
);
unicode = 2039;
},
{
glyphname = quoteleft;
layers = (
{
hints = (
{
horizontal = 1;
place = "{707, -20}";
target = down;
type = TopGhost;
},
{
place = "{37, 136}";
type = Stem;
}
);
layerId = "F34C6FC4-EF5D-4900-948D-0C8CFE233EE1";
paths = (
{
closed = 1;
nodes = (
"37 461 LINE",
"119 461 LINE",
"173 707 LINE",
"107 707 LINE"
);
}
);
width = 197;
}
);
unicode = 2018;
},
{
glyphname = quoteright;
layers = (
{
hints = (
{
horizontal = 1;
place = "{705, -20}";
target = down;
type = TopGhost;
},
{
place = "{36, 136}";
type = Stem;
}
);
layerId = "F34C6FC4-EF5D-4900-948D-0C8CFE233EE1";
paths = (
{
closed = 1;
nodes = (
"172 705 LINE",
"90 705 LINE",
"36 459 LINE",
"101 459 LINE"
);
}
);
width = 196;
}
);
unicode = 2019;
},
{
glyphname = quotedblleft;
layers = (
{
hints = (
{
place = "{36, 303}";
type = Stem;
},
{
horizontal = 1;
place = "{461, 246}";
type = Stem;
},
{
horizontal = 1;
place = "{707, -20}";
target = down;
type = TopGhost;
}
);
layerId = "F34C6FC4-EF5D-4900-948D-0C8CFE233EE1";
paths = (
{
closed = 1;
nodes = (
"36 461 LINE",
"118 461 LINE",
"172 707 LINE",
"106 707 LINE"
);
},
{
closed = 1;
nodes = (
"205 461 LINE",
"286 461 LINE",
"339 707 LINE",
"274 707 LINE"
);
}
);
width = 362;
}
);
unicode = 201C;
},
{
glyphname = quotedblright;
layers = (
{
hints = (
{
place = "{36, 303}";
type = Stem;
},
{
horizontal = 1;
place = "{459, 246}";
type = Stem;
},
{
horizontal = 1;
place = "{705, -20}";
target = down;
type = TopGhost;
}
);
layerId = "F34C6FC4-EF5D-4900-948D-0C8CFE233EE1";
paths = (
{
closed = 1;
nodes = (
"172 705 LINE",
"90 705 LINE",
"36 459 LINE",
"101 459 LINE"
);
},
{
closed = 1;
nodes = (
"339 705 LINE",
"259 705 LINE",
"205 459 LINE",
"270 459 LINE"
);
}
);
width = 363;
}
);
unicode = 201D;
},
{
glyphname = bullet;
layers = (
{
hints = (
{
horizontal = 1;
place = "{207, 295}";
type = Stem;
},
{
place = "{37, 295}";
type = Stem;
}
);
layerId = "F34C6FC4-EF5D-4900-948D-0C8CFE233EE1";
paths = (
{
closed = 1;
nodes = (
"37 273 OFFCURVE",
"104 207 OFFCURVE",
"184 207 CURVE SMOOTH",
"267 207 OFFCURVE",
"332 272 OFFCURVE",
"332 355 CURVE SMOOTH",
"332 437 OFFCURVE",
"265 502 OFFCURVE",
"184 502 CURVE SMOOTH",
"102 502 OFFCURVE",
"37 434 OFFCURVE",
"37 353 CURVE SMOOTH"
);
}
);
width = 369;
}
);
unicode = 2022;
},
{
glyphname = endash;
layers = (
{
hints = (
{
horizontal = 1;
place = "{246, 76}";
type = Stem;
},
{
place = "{31, 438}";
type = Stem;
}
);
layerId = "F34C6FC4-EF5D-4900-948D-0C8CFE233EE1";
paths = (
{
closed = 1;
nodes = (
"469 322 LINE",
"31 322 LINE",
"31 246 LINE",
"469 246 LINE"
);
}
);
width = 501;
}
);
unicode = 2013;
},
{
glyphname = emdash;
layers = (
{
hints = (
{
horizontal = 1;
place = "{246, 76}";
type = Stem;
},
{
place = "{31, 683}";
type = Stem;
}
);
layerId = "F34C6FC4-EF5D-4900-948D-0C8CFE233EE1";
paths = (
{
closed = 1;
nodes = (
"714 322 LINE",
"31 322 LINE",
"31 246 LINE",
"714 246 LINE"
);
}
);
width = 745;
}
);
unicode = 2014;
},
{
glyphname = tilde;
layers = (
{
hints = (
{
place = "{26, 330}";
type = Stem;
},
{
horizontal = 1;
place = "{567, 68}";
type = Stem;
},
{
horizontal = 1;
place = "{604, 68}";
type = Stem;
}
);
layerId = "F34C6FC4-EF5D-4900-948D-0C8CFE233EE1";
paths = (
{
closed = 1;
nodes = (
"80 558 LINE",
"91 591 OFFCURVE",
"115 604 OFFCURVE",
"139 604 CURVE SMOOTH",
"181 604 OFFCURVE",
"219 567 OFFCURVE",
"262 567 CURVE SMOOTH",
"309 567 OFFCURVE",
"337 606 OFFCURVE",
"356 670 CURVE",
"303 680 LINE",
"292 651 OFFCURVE",
"279 635 OFFCURVE",
"256 635 CURVE SMOOTH",
"220 635 OFFCURVE",
"181 672 OFFCURVE",
"133 672 CURVE SMOOTH",
"81 672 OFFCURVE",
"45 631 OFFCURVE",
"26 568 CURVE"
);
}
);
width = 382;
}
);
unicode = 02DC;
},
{
glyphname = trademark;
layers = (
{
hints = (
{
horizontal = 1;
place = "{644, 62}";
type = Stem;
},
{
place = "{164, 69}";
type = Stem;
},
{
place = "{440, 69}";
type = Stem;
},
{
place = "{814, 69}";
type = Stem;
}
);
layerId = "F34C6FC4-EF5D-4900-948D-0C8CFE233EE1";
paths = (
{
closed = 1;
nodes = (
"365 706 LINE",
"31 706 LINE",
"31 644 LINE",
"164 644 LINE",
"164 292 LINE",
"233 292 LINE",
"233 644 LINE",
"365 644 LINE"
);
},
{
closed = 1;
nodes = (
"883 706 LINE",
"787 706 LINE",
"662 405 LINE",
"539 706 LINE",
"440 706 LINE",
"440 292 LINE",
"509 292 LINE",
"509 612 LINE",
"639 292 LINE",
"683 292 LINE",
"814 610 LINE",
"814 292 LINE",
"883 292 LINE"
);
}
);
width = 896;
}
);
unicode = 2122;
},
{
glyphname = guilsinglright;
layers = (
{
hints = (
{
horizontal = 1;
place = "{39, 418}";
type = Stem;
},
{
place = "{24, 221}";
type = Stem;
}
);
layerId = "F34C6FC4-EF5D-4900-948D-0C8CFE233EE1";
paths = (
{
closed = 1;
nodes = (
"28 68 LINE",
"94 39 LINE",
"245 246 LINE",
"94 457 LINE",
"24 433 LINE",
"154 249 LINE"
);
}
);
width = 274;
}
);
unicode = 203A;
},
{
glyphname = exclamdown;
layers = (
{
hints = (
{
place = "{59, 120}";
type = Stem;
},
{
place = "{81, 76}";
type = Stem;
},
{
horizontal = 1;
place = "{508, 117}";
type = Stem;
}
);
layerId = "F34C6FC4-EF5D-4900-948D-0C8CFE233EE1";
paths = (
{
closed = 1;
nodes = (
"179 603 OFFCURVE",
"150 625 OFFCURVE",
"119 625 CURVE SMOOTH",
"86 625 OFFCURVE",
"59 603 OFFCURVE",
"59 567 CURVE SMOOTH",
"59 534 OFFCURVE",
"86 508 OFFCURVE",
"119 508 CURVE SMOOTH",
"150 508 OFFCURVE",
"179 534 OFFCURVE",
"179 567 CURVE SMOOTH"
);
},
{
closed = 1;
nodes = (
"168 -89 LINE",
"147 414 LINE",
"92 414 LINE",
"70 -89 LINE"
);
}
);
width = 238;
}
);
unicode = 00A1;
},
{
glyphname = cent;
layers = (
{
hints = (
{
horizontal = 1;
place = "{-14, 21}";
target = up;
type = BottomGhost;
},
{
horizontal = 1;
place = "{72, 70}";
type = Stem;
},
{
horizontal = 1;
place = "{494, 161}";
type = Stem;
},
{
place = "{70, 81}";
type = Stem;
},
{
place = "{310, 63}";
type = Stem;
}
);
layerId = "F34C6FC4-EF5D-4900-948D-0C8CFE233EE1";
paths = (
{
closed = 1;
nodes = (
"478 518 LINE",
"443 545 OFFCURVE",
"406 562 OFFCURVE",
"370 569 CURVE",
"378 655 LINE",
"315 655 LINE",
"306 574 LINE",
"165 566 OFFCURVE",
"70 464 OFFCURVE",
"70 321 CURVE SMOOTH",
"70 207 OFFCURVE",
"143 110 OFFCURVE",
"252 81 CURVE",
"240 -14 LINE",
"305 -14 LINE",
"316 72 LINE",
"385 72 OFFCURVE",
"437 95 OFFCURVE",
"477 134 CURVE",
"477 218 LINE",
"436 175 OFFCURVE",
"380 142 OFFCURVE",
"321 142 CURVE",
"360 494 LINE",
"411 489 OFFCURVE",
"455 462 OFFCURVE",
"478 435 CURVE"
);
},
{
closed = 1;
nodes = (
"260 151 LINE",
"192 184 OFFCURVE",
"151 238 OFFCURVE",
"151 325 CURVE SMOOTH",
"151 432 OFFCURVE",
"207 493 OFFCURVE",
"299 500 CURVE"
);
}
);
width = 553;
}
);
unicode = 00A2;
},
{
glyphname = sterling;
layers = (
{
hints = (
{
horizontal = 1;
place = "{0, 73}";
type = Stem;
},
{
horizontal = 1;
place = "{305, 68}";
type = Stem;
},
{
horizontal = 1;
place = "{640, 77}";
type = Stem;
},
{
place = "{125, 86}";
type = Stem;
}
);
layerId = "F34C6FC4-EF5D-4900-948D-0C8CFE233EE1";
paths = (
{
closed = 1;
nodes = (
"461 373 LINE",
"211 373 LINE",
"211 475 LINE SMOOTH",
"211 563 OFFCURVE",
"249 640 OFFCURVE",
"348 640 CURVE SMOOTH",
"419 640 OFFCURVE",
"457 611 OFFCURVE",
"493 566 CURVE",
"549 620 LINE",
"502 679 OFFCURVE",
"438 717 OFFCURVE",
"350 717 CURVE SMOOTH",
"206 717 OFFCURVE",
"125 615 OFFCURVE",
"125 476 CURVE SMOOTH",
"125 373 LINE",
"59 373 LINE",
"59 305 LINE",
"125 305 LINE",
"125 0 LINE",
"541 0 LINE",
"541 73 LINE",
"211 73 LINE",
"211 305 LINE",
"461 305 LINE"
);
}
);
width = 593;
}
);
unicode = 00A3;
},
{
glyphname = currency;
layers = (
{
hints = (
{
horizontal = 1;
place = "{74, 75}";
type = Stem;
},
{
horizontal = 1;
place = "{483, -20}";
target = down;
type = TopGhost;
},
{
horizontal = 1;
place = "{507, 75}";
type = Stem;
},
{
place = "{76, 80}";
type = Stem;
},
{
place = "{503, 83}";
type = Stem;
}
);
layerId = "F34C6FC4-EF5D-4900-948D-0C8CFE233EE1";
paths = (
{
closed = 1;
nodes = (
"578 624 LINE",
"484 531 LINE",
"441 564 OFFCURVE",
"389 582 OFFCURVE",
"330 582 CURVE SMOOTH",
"274 582 OFFCURVE",
"219 565 OFFCURVE",
"174 530 CURVE",
"79 624 LINE",
"30 574 LINE",
"124 481 LINE",
"89 432 OFFCURVE",
"76 391 OFFCURVE",
"76 328 CURVE SMOOTH",
"76 264 OFFCURVE",
"92 217 OFFCURVE",
"127 174 CURVE",
"30 77 LINE",
"79 27 LINE",
"177 123 LINE",
"224 90 OFFCURVE",
"274 74 OFFCURVE",
"330 74 CURVE SMOOTH",
"386 74 OFFCURVE",
"436 90 OFFCURVE",
"483 122 CURVE",
"579 27 LINE",
"629 77 LINE",
"534 171 LINE",
"567 216 OFFCURVE",
"586 267 OFFCURVE",
"586 328 CURVE SMOOTH",
"586 389 OFFCURVE",
"568 434 OFFCURVE",
"536 483 CURVE",
"629 574 LINE"
);
},
{
closed = 1;
nodes = (
"433 507 OFFCURVE",
"503 431 OFFCURVE",
"503 327 CURVE SMOOTH",
"503 228 OFFCURVE",
"433 149 OFFCURVE",
"330 149 CURVE SMOOTH",
"226 149 OFFCURVE",
"156 229 OFFCURVE",
"156 328 CURVE SMOOTH",
"156 427 OFFCURVE",
"226 507 OFFCURVE",
"330 507 CURVE SMOOTH"
);
}
);
width = 656;
}
);
unicode = 00A4;
},
{
glyphname = yen;
layers = (
{
hints = (
{
place = "{267, 90}";
type = Stem;
},
{
place = "{271, 81}";
type = Stem;
},
{
horizontal = 1;
place = "{0, 213}";
type = Stem;
},
{
horizontal = 1;
place = "{146, 67}";
type = Stem;
},
{
horizontal = 1;
place = "{303, 67}";
type = Stem;
},
{
horizontal = 1;
place = "{705, -20}";
target = down;
type = TopGhost;
}
);
layerId = "F34C6FC4-EF5D-4900-948D-0C8CFE233EE1";
paths = (
{
closed = 1;
nodes = (
"86 213 LINE",
"86 146 LINE",
"271 146 LINE",
"271 0 LINE",
"352 0 LINE",
"352 146 LINE",
"536 146 LINE",
"536 213 LINE",
"354 213 LINE",
"360 303 LINE",
"536 303 LINE",
"536 370 LINE",
"392 370 LINE",
"606 705 LINE",
"511 705 LINE",
"314 372 LINE",
"115 705 LINE",
"17 705 LINE",
"231 370 LINE",
"86 370 LINE",
"86 303 LINE",
"262 303 LINE",
"272 213 LINE"
);
}
);
width = 622;
}
);
unicode = 00A5;
},
{
glyphname = brokenbar;
layers = (
{
hints = (
{
horizontal = 1;
place = "{-174, 855}";
type = Stem;
},
{
place = "{90, 76}";
type = Stem;
}
);
layerId = "F34C6FC4-EF5D-4900-948D-0C8CFE233EE1";
paths = (
{
closed = 1;
nodes = (
"90 681 LINE",
"90 328 LINE",
"166 328 LINE",
"166 681 LINE"
);
},
{
closed = 1;
nodes = (
"90 173 LINE",
"90 -174 LINE",
"166 -174 LINE",
"166 173 LINE"
);
}
);
width = 256;
}
);
unicode = 00A6;
},
{
glyphname = section;
layers = (
{
hints = (
{
place = "{62, 77}";
type = Stem;
},
{
place = "{113, 82}";
type = Stem;
},
{
place = "{401, 82}";
type = Stem;
},
{
place = "{456, 77}";
type = Stem;
},
{
horizontal = 1;
place = "{-86, 68}";
type = Stem;
},
{
horizontal = 1;
place = "{654, 68}";
type = Stem;
}
);
layerId = "F34C6FC4-EF5D-4900-948D-0C8CFE233EE1";
paths = (
{
closed = 1;
nodes = (
"457 668 LINE",
"417 701 OFFCURVE",
"361 722 OFFCURVE",
"296 722 CURVE SMOOTH",
"193 722 OFFCURVE",
"113 667 OFFCURVE",
"113 584 CURVE SMOOTH",
"113 531 OFFCURVE",
"147 491 OFFCURVE",
"186 464 CURVE",
"105 445 OFFCURVE",
"62 402 OFFCURVE",
"62 334 CURVE SMOOTH",
"62 268 OFFCURVE",
"105 216 OFFCURVE",
"244 173 CURVE SMOOTH",
"344 142 OFFCURVE",
"401 106 OFFCURVE",
"401 59 CURVE SMOOTH",
"401 8 OFFCURVE",
"362 -18 OFFCURVE",
"299 -18 CURVE SMOOTH",
"234 -18 OFFCURVE",
"174 4 OFFCURVE",
"129 55 CURVE",
"129 -25 LINE",
"172 -62 OFFCURVE",
"227 -86 OFFCURVE",
"298 -86 CURVE SMOOTH",
"405 -86 OFFCURVE",
"483 -27 OFFCURVE",
"483 62 CURVE SMOOTH",
"483 107 OFFCURVE",
"459 144 OFFCURVE",
"412 179 CURVE",
"489 199 OFFCURVE",
"533 238 OFFCURVE",
"533 309 CURVE SMOOTH",
"533 372 OFFCURVE",
"503 417 OFFCURVE",
"346 470 CURVE SMOOTH",
"229 510 OFFCURVE",
"195 549 OFFCURVE",
"195 583 CURVE SMOOTH",
"195 631 OFFCURVE",
"239 654 OFFCURVE",
"302 654 CURVE SMOOTH",
"363 654 OFFCURVE",
"406 631 OFFCURVE",
"457 588 CURVE"
);
},
{
closed = 1;
nodes = (
"456 247 OFFCURVE",
"418 218 OFFCURVE",
"358 218 CURVE",
"227 237 OFFCURVE",
"139 284 OFFCURVE",
"139 345 CURVE SMOOTH",
"139 392 OFFCURVE",
"180 417 OFFCURVE",
"240 424 CURVE",
"301 413 OFFCURVE",
"456 367 OFFCURVE",
"456 287 CURVE SMOOTH"
);
}
);
width = 594;
}
);
unicode = 00A7;
},
{
glyphname = dieresis;
layers = (
{
hints = (
{
horizontal = 1;
place = "{504, 118}";
type = Stem;
},
{
place = "{7, 119}";
type = Stem;
},
{
place = "{199, 116}";
type = Stem;
}
);
layerId = "F34C6FC4-EF5D-4900-948D-0C8CFE233EE1";
paths = (
{
closed = 1;
nodes = (
"7 530 OFFCURVE",
"31 504 OFFCURVE",
"66 504 CURVE SMOOTH",
"98 504 OFFCURVE",
"126 530 OFFCURVE",
"126 563 CURVE SMOOTH",
"126 595 OFFCURVE",
"98 622 OFFCURVE",
"66 622 CURVE SMOOTH",
"31 622 OFFCURVE",
"7 595 OFFCURVE",
"7 563 CURVE SMOOTH"
);
},
{
closed = 1;
nodes = (
"199 530 OFFCURVE",
"224 504 OFFCURVE",
"256 504 CURVE SMOOTH",
"291 504 OFFCURVE",
"315 530 OFFCURVE",
"315 563 CURVE SMOOTH",
"315 595 OFFCURVE",
"291 622 OFFCURVE",
"256 622 CURVE SMOOTH",
"224 622 OFFCURVE",
"199 595 OFFCURVE",
"199 563 CURVE SMOOTH"
);
}
);
width = 323;
}
);
unicode = 00A8;
},
{
glyphname = copyright;
layers = (
{
hints = (
{
horizontal = 1;
place = "{-63, 69}";
type = Stem;
},
{
horizontal = 1;
place = "{106, 72}";
type = Stem;
},
{
horizontal = 1;
place = "{495, 72}";
type = Stem;
},
{
horizontal = 1;
place = "{657, 69}";
type = Stem;
},
{
place = "{44, 65}";
type = Stem;
},
{
place = "{218, 82}";
type = Stem;
},
{
place = "{760, 65}";
type = Stem;
}
);
layerId = "F34C6FC4-EF5D-4900-948D-0C8CFE233EE1";
paths = (
{
closed = 1;
nodes = (
"651 -63 OFFCURVE",
"825 111 OFFCURVE",
"825 331 CURVE SMOOTH",
"825 550 OFFCURVE",
"648 726 OFFCURVE",
"434 726 CURVE SMOOTH",
"221 726 OFFCURVE",
"44 548 OFFCURVE",
"44 335 CURVE SMOOTH",
"44 114 OFFCURVE",
"215 -63 OFFCURVE",
"435 -63 CURVE SMOOTH"
);
},
{
closed = 1;
nodes = (
"254 6 OFFCURVE",
"109 153 OFFCURVE",
"109 333 CURVE SMOOTH",
"109 512 OFFCURVE",
"255 657 OFFCURVE",
"435 657 CURVE SMOOTH",
"614 657 OFFCURVE",
"760 511 OFFCURVE",
"760 331 CURVE SMOOTH",
"760 151 OFFCURVE",
"614 6 OFFCURVE",
"435 6 CURVE SMOOTH"
);
},
{
closed = 1;
nodes = (
"566 231 LINE",
"519 188 OFFCURVE",
"476 178 OFFCURVE",
"443 178 CURVE SMOOTH",
"355 178 OFFCURVE",
"300 249 OFFCURVE",
"300 339 CURVE SMOOTH",
"300 427 OFFCURVE",
"360 495 OFFCURVE",
"440 495 CURVE SMOOTH",
"487 495 OFFCURVE",
"535 474 OFFCURVE",
"568 441 CURVE",
"568 522 LINE",
"541 543 OFFCURVE",
"494 567 OFFCURVE",
"434 567 CURVE SMOOTH",
"303 567 OFFCURVE",
"218 469 OFFCURVE",
"218 339 CURVE SMOOTH",
"218 207 OFFCURVE",
"305 106 OFFCURVE",
"432 106 CURVE SMOOTH",
"488 106 OFFCURVE",
"530 125 OFFCURVE",
"566 157 CURVE"
);
}
);
width = 865;
}
);
unicode = 00A9;
},
{
glyphname = ordfeminine;
layers = (
{
hints = (
{
horizontal = 1;
place = "{291, 47}";
type = Stem;
},
{
horizontal = 1;
place = "{412, 42}";
type = Stem;
},
{
horizontal = 1;
place = "{560, 38}";
type = Stem;
},
{
horizontal = 1;
place = "{662, 47}";
type = Stem;
},
{
place = "{39, 51}";
type = Stem;
},
{
place = "{241, 51}";
type = Stem;
}
);
layerId = "F34C6FC4-EF5D-4900-948D-0C8CFE233EE1";
paths = (
{
closed = 1;
nodes = (
"184 412 OFFCURVE",
"218 431 OFFCURVE",
"241 460 CURVE",
"241 418 LINE",
"292 418 LINE",
"292 592 LINE SMOOTH",
"292 672 OFFCURVE",
"240 709 OFFCURVE",
"168 709 CURVE SMOOTH",
"129 709 OFFCURVE",
"92 698 OFFCURVE",
"63 683 CURVE",
"79 639 LINE",
"104 654 OFFCURVE",
"132 662 OFFCURVE",
"163 662 CURVE SMOOTH",
"211 662 OFFCURVE",
"241 640 OFFCURVE",
"241 592 CURVE SMOOTH",
"241 584 LINE",
"214 592 OFFCURVE",
"194 598 OFFCURVE",
"161 598 CURVE SMOOTH",
"89 598 OFFCURVE",
"39 567 OFFCURVE",
"39 502 CURVE SMOOTH",
"39 443 OFFCURVE",
"94 412 OFFCURVE",
"144 412 CURVE SMOOTH"
);
},
{
closed = 1;
nodes = (
"119 454 OFFCURVE",
"90 470 OFFCURVE",
"90 505 CURVE SMOOTH",
"90 540 OFFCURVE",
"118 560 OFFCURVE",
"166 560 CURVE SMOOTH",
"197 560 OFFCURVE",
"221 554 OFFCURVE",
"241 545 CURVE",
"241 524 LINE SMOOTH",
"241 481 OFFCURVE",
"202 454 OFFCURVE",
"155 454 CURVE SMOOTH"
);
},
{
closed = 1;
nodes = (
"35 291 LINE",
"297 291 LINE",
"297 338 LINE",
"35 338 LINE"
);
}
);
width = 340;
}
);
unicode = 00AA;
},
{
glyphname = guillemotleft;
layers = (
{
hints = (
{
horizontal = 1;
place = "{39, 418}";
type = Stem;
},
{
place = "{30, 430}";
type = Stem;
}
);
layerId = "F34C6FC4-EF5D-4900-948D-0C8CFE233EE1";
paths = (
{
closed = 1;
nodes = (
"121 249 LINE",
"251 433 LINE",
"182 457 LINE",
"30 246 LINE",
"182 39 LINE",
"249 68 LINE"
);
},
{
closed = 1;
nodes = (
"330 249 LINE",
"460 433 LINE",
"391 457 LINE",
"239 246 LINE",
"391 39 LINE",
"458 68 LINE"
);
}
);
width = 484;
}
);
unicode = 00AB;
},
{
glyphname = logicalnot;
layers = (
{
hints = (
{
horizontal = 1;
place = "{340, 71}";
type = Stem;
},
{
place = "{485, 69}";
type = Stem;
}
);
layerId = "F34C6FC4-EF5D-4900-948D-0C8CFE233EE1";
paths = (
{
closed = 1;
nodes = (
"554 411 LINE",
"42 411 LINE",
"42 340 LINE",
"485 340 LINE",
"485 129 LINE",
"554 129 LINE"
);
}
);
width = 596;
}
);
unicode = 00AC;
},
{
glyphname = registered;
layers = (
{
hints = (
{
horizontal = 1;
place = "{13, 61}";
type = Stem;
},
{
horizontal = 1;
place = "{338, 65}";
type = Stem;
},
{
horizontal = 1;
place = "{523, 61}";
type = Stem;
},
{
horizontal = 1;
place = "{665, 61}";
type = Stem;
},
{
place = "{43, 64}";
type = Stem;
},
{
place = "{275, 71}";
type = Stem;
},
{
place = "{477, 64}";
type = Stem;
},
{
place = "{700, 64}";
type = Stem;
}
);
layerId = "F34C6FC4-EF5D-4900-948D-0C8CFE233EE1";
paths = (
{
closed = 1;
nodes = (
"43 175 OFFCURVE",
"205 13 OFFCURVE",
"405 13 CURVE SMOOTH",
"598 13 OFFCURVE",
"764 176 OFFCURVE",
"764 371 CURVE SMOOTH",
"764 566 OFFCURVE",
"602 726 OFFCURVE",
"408 726 CURVE SMOOTH",
"205 726 OFFCURVE",
"43 569 OFFCURVE",
"43 371 CURVE SMOOTH"
);
},
{
closed = 1;
nodes = (
"107 535 OFFCURVE",
"240 665 OFFCURVE",
"407 665 CURVE SMOOTH",
"566 665 OFFCURVE",
"700 533 OFFCURVE",
"700 372 CURVE SMOOTH",
"700 211 OFFCURVE",
"569 74 OFFCURVE",
"405 74 CURVE SMOOTH",
"237 74 OFFCURVE",
"107 208 OFFCURVE",
"107 371 CURVE SMOOTH"
);
},
{
closed = 1;
nodes = (
"275 157 LINE",
"346 157 LINE",
"346 338 LINE",
"359 338 LINE",
"501 157 LINE",
"585 157 LINE",
"434 346 LINE",
"491 357 OFFCURVE",
"541 403 OFFCURVE",
"541 468 CURVE SMOOTH",
"541 540 OFFCURVE",
"484 584 OFFCURVE",
"416 584 CURVE SMOOTH",
"275 584 LINE"
);
},
{
closed = 1;
nodes = (
"346 403 LINE",
"346 523 LINE",
"402 523 LINE SMOOTH",
"453 523 OFFCURVE",
"477 493 OFFCURVE",
"477 462 CURVE SMOOTH",
"477 425 OFFCURVE",
"443 403 OFFCURVE",
"400 403 CURVE SMOOTH"
);
}
);
width = 807;
}
);
unicode = 00AE;
},
{
glyphname = degree;
layers = (
{
hints = (
{
horizontal = 1;
place = "{421, 54}";
type = Stem;
},
{
horizontal = 1;
place = "{659, 54}";
type = Stem;
},
{
place = "{29, 57}";
type = Stem;
},
{
place = "{268, 57}";
type = Stem;
}
);
layerId = "F34C6FC4-EF5D-4900-948D-0C8CFE233EE1";
paths = (
{
closed = 1;
nodes = (
"325 649 OFFCURVE",
"260 713 OFFCURVE",
"177 713 CURVE SMOOTH",
"98 713 OFFCURVE",
"29 646 OFFCURVE",
"29 566 CURVE SMOOTH",
"29 486 OFFCURVE",
"97 421 OFFCURVE",
"177 421 CURVE SMOOTH",
"258 421 OFFCURVE",
"325 486 OFFCURVE",
"325 567 CURVE SMOOTH"
);
},
{
closed = 1;
nodes = (
"268 512 OFFCURVE",
"228 475 OFFCURVE",
"177 475 CURVE SMOOTH",
"125 475 OFFCURVE",
"86 516 OFFCURVE",
"86 567 CURVE SMOOTH",
"86 615 OFFCURVE",
"126 659 OFFCURVE",
"177 659 CURVE SMOOTH",
"228 659 OFFCURVE",
"268 618 OFFCURVE",
"268 567 CURVE SMOOTH"
);
}
);
width = 350;
}
);
unicode = 00B0;
},
{
glyphname = plusminus;
layers = (
{
hints = (
{
horizontal = 1;
place = "{34, 70}";
type = Stem;
},
{
horizontal = 1;
place = "{339, 70}";
type = Stem;
},
{
place = "{256, 69}";
type = Stem;
}
);
layerId = "F34C6FC4-EF5D-4900-948D-0C8CFE233EE1";
paths = (
{
closed = 1;
nodes = (
"42 339 LINE",
"256 339 LINE",
"256 181 LINE",
"325 181 LINE",
"325 339 LINE",
"539 339 LINE",
"539 409 LINE",
"325 409 LINE",
"325 573 LINE",
"256 573 LINE",
"256 409 LINE",
"42 409 LINE"
);
},
{
closed = 1;
nodes = (
"42 34 LINE",
"539 34 LINE",
"539 104 LINE",
"42 104 LINE"
);
}
);
width = 581;
}
);
unicode = 00B1;
},
{
glyphname = acute;
layers = (
{
hints = (
{
horizontal = 1;
place = "{712, -20}";
target = down;
type = TopGhost;
},
{
place = "{106, 187}";
type = Stem;
}
);
layerId = "F34C6FC4-EF5D-4900-948D-0C8CFE233EE1";
paths = (
{
closed = 1;
nodes = (
"293 692 LINE",
"197 712 LINE",
"106 563 LINE",
"165 563 LINE"
);
}
);
width = 307;
}
);
unicode = 00B4;
},
{
glyphname = paragraph;
layers = (
{
hints = (
{
horizontal = 1;
place = "{625, 81}";
type = Stem;
},
{
place = "{209, 79}";
type = Stem;
},
{
place = "{383, 79}";
type = Stem;
}
);
layerId = "F34C6FC4-EF5D-4900-948D-0C8CFE233EE1";
paths = (
{
closed = 1;
nodes = (
"288 -104 LINE",
"288 625 LINE",
"383 625 LINE",
"383 -104 LINE",
"462 -104 LINE",
"462 625 LINE",
"495 625 LINE",
"539 706 LINE",
"233 706 LINE SMOOTH",
"112 706 OFFCURVE",
"36 645 OFFCURVE",
"36 532 CURVE SMOOTH",
"36 409 OFFCURVE",
"122 379 OFFCURVE",
"209 361 CURVE",
"209 -104 LINE"
);
}
);
width = 629;
}
);
unicode = 00B6;
},
{
glyphname = cedilla;
layers = (
{
hints = (
{
horizontal = 1;
place = "{-217, 51}";
type = Stem;
},
{
horizontal = 1;
place = "{-90, 24}";
type = Stem;
},
{
place = "{183, 78}";
type = Stem;
}
);
layerId = "F34C6FC4-EF5D-4900-948D-0C8CFE233EE1";
paths = (
{
closed = 1;
nodes = (
"219 4 LINE",
"154 4 LINE",
"94 -84 LINE",
"111 -97 LINE",
"123 -92 OFFCURVE",
"131 -90 OFFCURVE",
"142 -90 CURVE SMOOTH",
"166 -90 OFFCURVE",
"183 -100 OFFCURVE",
"183 -121 CURVE SMOOTH",
"183 -156 OFFCURVE",
"141 -166 OFFCURVE",
"118 -166 CURVE SMOOTH",
"103 -166 OFFCURVE",
"88 -163 OFFCURVE",
"69 -156 CURVE",
"58 -197 LINE",
"83 -209 OFFCURVE",
"109 -217 OFFCURVE",
"141 -217 CURVE SMOOTH",
"192 -217 OFFCURVE",
"261 -194 OFFCURVE",
"261 -131 CURVE SMOOTH",
"261 -79 OFFCURVE",
"213 -66 OFFCURVE",
"181 -66 CURVE SMOOTH",
"178 -66 LINE"
);
}
);
width = 337;
}
);
unicode = 00B8;
},
{
glyphname = ordmasculine;
layers = (
{
hints = (
{
horizontal = 1;
place = "{291, 47}";
type = Stem;
},
{
horizontal = 1;
place = "{410, 50}";
type = Stem;
},
{
horizontal = 1;
place = "{660, 50}";
type = Stem;
},
{
place = "{19, 54}";
type = Stem;
},
{
place = "{261, 54}";
type = Stem;
}
);
layerId = "F34C6FC4-EF5D-4900-948D-0C8CFE233EE1";
paths = (
{
closed = 1;
nodes = (
"250 410 OFFCURVE",
"315 479 OFFCURVE",
"315 563 CURVE SMOOTH",
"315 640 OFFCURVE",
"253 710 OFFCURVE",
"168 710 CURVE SMOOTH",
"82 710 OFFCURVE",
"19 642 OFFCURVE",
"19 559 CURVE SMOOTH",
"19 478 OFFCURVE",
"81 410 OFFCURVE",
"166 410 CURVE SMOOTH"
);
},
{
closed = 1;
nodes = (
"113 460 OFFCURVE",
"73 503 OFFCURVE",
"73 563 CURVE SMOOTH",
"73 614 OFFCURVE",
"109 660 OFFCURVE",
"166 660 CURVE SMOOTH",
"221 660 OFFCURVE",
"261 618 OFFCURVE",
"261 559 CURVE SMOOTH",
"261 503 OFFCURVE",
"224 460 OFFCURVE",
"168 460 CURVE SMOOTH"
);
},
{
closed = 1;
nodes = (
"23 291 LINE",
"311 291 LINE",
"311 338 LINE",
"23 338 LINE"
);
}
);
width = 334;
}
);
unicode = 00BA;
},
{
glyphname = guillemotright;
layers = (
{
hints = (
{
horizontal = 1;
place = "{39, 418}";
type = Stem;
},
{
place = "{24, 429}";
type = Stem;
}
);
layerId = "F34C6FC4-EF5D-4900-948D-0C8CFE233EE1";
paths = (
{
closed = 1;
nodes = (
"26 68 LINE",
"93 39 LINE",
"245 246 LINE",
"93 457 LINE",
"24 433 LINE",
"154 249 LINE"
);
},
{
closed = 1;
nodes = (
"234 68 LINE",
"301 39 LINE",
"453 246 LINE",
"301 457 LINE",
"232 433 LINE",
"362 249 LINE"
);
}
);
width = 483;
}
);
unicode = 00BB;
},
{
glyphname = onequarter;
layers = (
{
hints = (
{
place = "{102, 68}";
type = Stem;
},
{
place = "{578, 68}";
type = Stem;
},
{
horizontal = 1;
place = "{0, 125}";
type = Stem;
},
{
horizontal = 1;
place = "{70, 55}";
type = Stem;
},
{
horizontal = 1;
place = "{705, -20}";
target = down;
type = TopGhost;
},
{
horizontal = 1;
place = "{719, -20}";
target = down;
type = TopGhost;
}
);
layerId = "F34C6FC4-EF5D-4900-948D-0C8CFE233EE1";
paths = (
{
closed = 1;
nodes = (
"88 -19 LINE",
"135 -49 LINE",
"569 719 LINE",
"517 750 LINE"
);
},
{
closed = 1;
nodes = (
"102 277 LINE",
"170 277 LINE",
"170 705 LINE",
"116 705 LINE",
"102 677 OFFCURVE",
"79 651 OFFCURVE",
"45 622 CURVE",
"45 553 LINE",
"62 565 OFFCURVE",
"86 587 OFFCURVE",
"102 610 CURVE"
);
},
{
closed = 1;
nodes = (
"390 70 LINE",
"578 70 LINE",
"578 0 LINE",
"646 0 LINE",
"646 70 LINE",
"670 70 LINE",
"688 125 LINE",
"646 125 LINE",
"646 428 LINE",
"601 428 LINE",
"390 105 LINE"
);
},
{
closed = 1;
nodes = (
"471 125 LINE",
"503 174 LINE SMOOTH",
"536 225 OFFCURVE",
"569 276 OFFCURVE",
"577 288 CURVE",
"577 289 OFFCURVE",
"577 289 OFFCURVE",
"578 290 CURVE",
"578 125 LINE"
);
}
);
width = 725;
}
);
unicode = 00BC;
},
{
glyphname = onehalf;
layers = (
{
hints = (
{
horizontal = 1;
place = "{1, 57}";
type = Stem;
},
{
horizontal = 1;
place = "{379, 57}";
type = Stem;
},
{
horizontal = 1;
place = "{705, -20}";
target = down;
type = TopGhost;
},
{
horizontal = 1;
place = "{719, -20}";
target = down;
type = TopGhost;
},
{
place = "{87, 68}";
type = Stem;
},
{
place = "{612, 68}";
type = Stem;
}
);
layerId = "F34C6FC4-EF5D-4900-948D-0C8CFE233EE1";
paths = (
{
closed = 1;
nodes = (
"63 -19 LINE",
"110 -49 LINE",
"546 719 LINE",
"494 750 LINE"
);
},
{
closed = 1;
nodes = (
"87 277 LINE",
"155 277 LINE",
"155 705 LINE",
"101 705 LINE",
"88 678 OFFCURVE",
"65 650 OFFCURVE",
"30 622 CURVE",
"30 553 LINE",
"53 572 OFFCURVE",
"71 587 OFFCURVE",
"87 610 CURVE"
);
},
{
closed = 1;
nodes = (
"393 1 LINE",
"651 1 LINE",
"682 58 LINE",
"517 58 LINE",
"573 127 LINE SMOOTH",
"653 223 OFFCURVE",
"680 259 OFFCURVE",
"680 314 CURVE SMOOTH",
"680 385 OFFCURVE",
"625 436 OFFCURVE",
"550 436 CURVE SMOOTH",
"509 436 OFFCURVE",
"472 420 OFFCURVE",
"435 385 CURVE",
"475 337 LINE",
"500 369 OFFCURVE",
"526 379 OFFCURVE",
"547 379 CURVE SMOOTH",
"584 379 OFFCURVE",
"612 351 OFFCURVE",
"612 314 CURVE SMOOTH",
"612 285 OFFCURVE",
"596 252 OFFCURVE",
"538 181 CURVE SMOOTH"
);
}
);
width = 733;
}
);
unicode = 00BD;
},
{
glyphname = threequarters;
layers = (
{
hints = (
{
place = "{204, 64}";
type = Stem;
},
{
place = "{227, 64}";
type = Stem;
},
{
place = "{589, 64}";
type = Stem;
},
{
horizontal = 1;
place = "{0, 126}";
type = Stem;
},
{
horizontal = 1;
place = "{70, 56}";
type = Stem;
},
{
horizontal = 1;
place = "{270, 56}";
type = Stem;
},
{
horizontal = 1;
place = "{488, 56}";
type = Stem;
},
{
horizontal = 1;
place = "{659, 56}";
type = Stem;
},
{
horizontal = 1;
place = "{720, -20}";
target = down;
type = TopGhost;
}
);
layerId = "F34C6FC4-EF5D-4900-948D-0C8CFE233EE1";
paths = (
{
closed = 1;
nodes = (
"136 -19 LINE",
"186 -48 LINE",
"621 720 LINE",
"569 750 LINE"
);
},
{
closed = 1;
nodes = (
"31 287 LINE",
"65 276 OFFCURVE",
"101 270 OFFCURVE",
"135 270 CURVE SMOOTH",
"219 270 OFFCURVE",
"291 322 OFFCURVE",
"291 410 CURVE SMOOTH",
"291 466 OFFCURVE",
"260 499 OFFCURVE",
"209 520 CURVE",
"242 543 OFFCURVE",
"268 569 OFFCURVE",
"268 612 CURVE SMOOTH",
"268 687 OFFCURVE",
"203 715 OFFCURVE",
"138 715 CURVE SMOOTH",
"110 715 OFFCURVE",
"84 708 OFFCURVE",
"58 698 CURVE",
"55 637 LINE",
"82 650 OFFCURVE",
"110 659 OFFCURVE",
"141 659 CURVE SMOOTH",
"173 659 OFFCURVE",
"204 642 OFFCURVE",
"204 607 CURVE SMOOTH",
"204 554 OFFCURVE",
"138 544 OFFCURVE",
"98 544 CURVE",
"98 488 LINE",
"154 488 OFFCURVE",
"227 483 OFFCURVE",
"227 409 CURVE SMOOTH",
"227 357 OFFCURVE",
"181 326 OFFCURVE",
"133 326 CURVE SMOOTH",
"98 326 OFFCURVE",
"64 339 OFFCURVE",
"31 351 CURVE"
);
},
{
closed = 1;
nodes = (
"402 70 LINE",
"589 70 LINE",
"589 0 LINE",
"653 0 LINE",
"653 70 LINE",
"678 70 LINE",
"696 126 LINE",
"653 126 LINE",
"653 430 LINE",
"612 430 LINE",
"402 108 LINE"
);
},
{
closed = 1;
nodes = (
"482 126 LINE",
"562 249 LINE",
"589 291 LINE",
"589 126 LINE"
);
}
);
width = 721;
}
);
unicode = 00BE;
},
{
glyphname = questiondown;
layers = (
{
hints = (
{
place = "{58, 82}";
type = Stem;
},
{
place = "{197, 121}";
type = Stem;
},
{
place = "{222, 82}";
type = Stem;
},
{
horizontal = 1;
place = "{-227, 76}";
type = Stem;
},
{
horizontal = 1;
place = "{381, 118}";
type = Stem;
}
);
layerId = "F34C6FC4-EF5D-4900-948D-0C8CFE233EE1";
paths = (
{
closed = 1;
nodes = (
"318 476 OFFCURVE",
"290 499 OFFCURVE",
"258 499 CURVE SMOOTH",
"225 499 OFFCURVE",
"197 476 OFFCURVE",
"197 440 CURVE SMOOTH",
"197 409 OFFCURVE",
"225 381 OFFCURVE",
"258 381 CURVE SMOOTH",
"290 381 OFFCURVE",
"318 409 OFFCURVE",
"318 440 CURVE SMOOTH"
);
},
{
closed = 1;
nodes = (
"175 -151 OFFCURVE",
"140 -102 OFFCURVE",
"140 -54 CURVE SMOOTH",
"140 -6 OFFCURVE",
"173 26 OFFCURVE",
"210 61 CURVE SMOOTH",
"255 103 OFFCURVE",
"304 152 OFFCURVE",
"304 238 CURVE SMOOTH",
"304 300 LINE",
"222 300 LINE",
"222 268 LINE SMOOTH",
"222 197 OFFCURVE",
"201 161 OFFCURVE",
"148 116 CURVE SMOOTH",
"97 71 OFFCURVE",
"58 15 OFFCURVE",
"58 -61 CURVE SMOOTH",
"58 -160 OFFCURVE",
"127 -227 OFFCURVE",
"235 -227 CURVE SMOOTH",
"303 -227 OFFCURVE",
"361 -199 OFFCURVE",
"392 -159 CURVE",
"392 -62 LINE",
"344 -131 OFFCURVE",
"292 -151 OFFCURVE",
"245 -151 CURVE SMOOTH"
);
}
);
width = 434;
}
);
unicode = 00BF;
},
{
glyphname = germandbls;
layers = (
{
hints = (
{
place = "{76, 80}";
type = Stem;
},
{
place = "{418, 83}";
type = Stem;
},
{
place = "{465, 83}";
type = Stem;
},
{
horizontal = 1;
place = "{-3, 65}";
type = Stem;
},
{
horizontal = 1;
place = "{0, 21}";
target = up;
type = BottomGhost;
},
{
horizontal = 1;
place = "{680, 73}";
type = Stem;
}
);
layerId = "F34C6FC4-EF5D-4900-948D-0C8CFE233EE1";
paths = (
{
closed = 1;
nodes = (
"156 519 LINE SMOOTH",
"156 599 OFFCURVE",
"197 680 OFFCURVE",
"295 680 CURVE SMOOTH",
"367 680 OFFCURVE",
"418 637 OFFCURVE",
"418 564 CURVE SMOOTH",
"418 483 OFFCURVE",
"355 451 OFFCURVE",
"275 422 CURVE",
"275 360 LINE",
"390 344 OFFCURVE",
"465 310 OFFCURVE",
"465 209 CURVE SMOOTH",
"465 105 OFFCURVE",
"381 62 OFFCURVE",
"265 62 CURVE",
"265 -3 LINE",
"426 -3 OFFCURVE",
"548 67 OFFCURVE",
"548 209 CURVE SMOOTH",
"548 313 OFFCURVE",
"471 383 OFFCURVE",
"378 399 CURVE",
"449 430 OFFCURVE",
"501 487 OFFCURVE",
"501 572 CURVE SMOOTH",
"501 680 OFFCURVE",
"416 753 OFFCURVE",
"299 753 CURVE SMOOTH",
"143 753 OFFCURVE",
"76 644 OFFCURVE",
"76 520 CURVE SMOOTH",
"76 0 LINE",
"156 0 LINE"
);
}
);
width = 592;
}
);
unicode = 00DF;
},
{
glyphname = divide;
layers = (
{
hints = (
{
horizontal = 1;
place = "{86, 114}";
type = Stem;
},
{
horizontal = 1;
place = "{270, 66}";
type = Stem;
},
{
horizontal = 1;
place = "{407, 114}";
type = Stem;
},
{
place = "{239, 116}";
type = Stem;
}
);
layerId = "F34C6FC4-EF5D-4900-948D-0C8CFE233EE1";
paths = (
{
closed = 1;
nodes = (
"355 494 OFFCURVE",
"331 521 OFFCURVE",
"296 521 CURVE SMOOTH",
"261 521 OFFCURVE",
"239 494 OFFCURVE",
"239 463 CURVE SMOOTH",
"239 432 OFFCURVE",
"261 407 OFFCURVE",
"296 407 CURVE SMOOTH",
"331 407 OFFCURVE",
"355 432 OFFCURVE",
"355 463 CURVE SMOOTH"
);
},
{
closed = 1;
nodes = (
"552 336 LINE",
"42 336 LINE",
"42 270 LINE",
"552 270 LINE"
);
},
{
closed = 1;
nodes = (
"355 177 OFFCURVE",
"331 200 OFFCURVE",
"296 200 CURVE SMOOTH",
"261 200 OFFCURVE",
"239 177 OFFCURVE",
"239 144 CURVE SMOOTH",
"239 113 OFFCURVE",
"261 86 OFFCURVE",
"296 86 CURVE SMOOTH",
"331 86 OFFCURVE",
"355 113 OFFCURVE",
"355 144 CURVE SMOOTH"
);
}
);
width = 594;
}
);
unicode = 00F7;
},
{
glyphname = oslash;
layers = (
{
hints = (
{
horizontal = 1;
place = "{-12, 65}";
type = Stem;
},
{
horizontal = 1;
place = "{418, 65}";
type = Stem;
},
{
horizontal = 1;
place = "{489, -20}";
target = down;
type = TopGhost;
},
{
place = "{51, 80}";
type = Stem;
},
{
place = "{474, 80}";
type = Stem;
}
);
layerId = "F34C6FC4-EF5D-4900-948D-0C8CFE233EE1";
paths = (
{
closed = 1;
nodes = (
"40 4 LINE",
"79 -35 LINE",
"147 39 LINE",
"190 4 OFFCURVE",
"237 -12 OFFCURVE",
"301 -12 CURVE SMOOTH",
"448 -12 OFFCURVE",
"554 95 OFFCURVE",
"554 236 CURVE SMOOTH",
"554 304 OFFCURVE",
"532 354 OFFCURVE",
"497 398 CURVE",
"546 451 LINE",
"512 489 LINE",
"457 435 LINE",
"414 470 OFFCURVE",
"361 483 OFFCURVE",
"301 483 CURVE SMOOTH",
"154 483 OFFCURVE",
"51 376 OFFCURVE",
"51 236 CURVE SMOOTH",
"51 173 OFFCURVE",
"70 122 OFFCURVE",
"109 74 CURVE"
);
},
{
closed = 1;
nodes = (
"161 127 LINE",
"138 158 OFFCURVE",
"131 191 OFFCURVE",
"131 236 CURVE SMOOTH",
"131 337 OFFCURVE",
"196 418 OFFCURVE",
"302 418 CURVE SMOOTH",
"347 418 OFFCURVE",
"381 405 OFFCURVE",
"408 382 CURVE"
);
},
{
closed = 1;
nodes = (
"443 344 LINE",
"462 313 OFFCURVE",
"474 279 OFFCURVE",
"474 236 CURVE SMOOTH",
"474 133 OFFCURVE",
"405 53 OFFCURVE",
"299 53 CURVE SMOOTH",
"256 53 OFFCURVE",
"223 65 OFFCURVE",
"194 88 CURVE"
);
}
);
width = 594;
}
);
unicode = 00F8;
},
{
glyphname = fraction;
layers = (
{
hints = (
{
horizontal = 1;
place = "{-57, 821}";
type = Stem;
},
{
place = "{-164, 525}";
type = Stem;
}
);
layerId = "F34C6FC4-EF5D-4900-948D-0C8CFE233EE1";
paths = (
{
closed = 1;
nodes = (
"361 749 LINE",
"290 764 LINE",
"-164 -44 LINE",
"-95 -57 LINE"
);
}
);
width = 196;
}
);
unicode = 2044;
},
{
glyphname = fi;
layers = (
{
hints = (
{
place = "{113, 79}";
type = Stem;
},
{
place = "{363, 121}";
type = Stem;
},
{
place = "{384, 81}";
type = Stem;
},
{
horizontal = 1;
place = "{0, 21}";
target = up;
type = BottomGhost;
},
{
horizontal = 1;
place = "{413, 69}";
type = Stem;
},
{
horizontal = 1;
place = "{578, 120}";
type = Stem;
},
{
horizontal = 1;
place = "{668, 68}";
type = Stem;
}
);
layerId = "F34C6FC4-EF5D-4900-948D-0C8CFE233EE1";
paths = (
{
closed = 1;
nodes = (
"329 726 LINE",
"313 731 OFFCURVE",
"292 736 OFFCURVE",
"268 736 CURVE SMOOTH",
"173 736 OFFCURVE",
"113 685 OFFCURVE",
"113 557 CURVE SMOOTH",
"113 484 LINE",
"15 413 LINE",
"113 413 LINE",
"113 0 LINE",
"192 0 LINE",
"192 413 LINE",
"313 413 LINE",
"313 482 LINE",
"192 482 LINE",
"192 553 LINE SMOOTH",
"192 628 OFFCURVE",
"215 668 OFFCURVE",
"278 668 CURVE SMOOTH",
"295 668 OFFCURVE",
"312 665 OFFCURVE",
"329 658 CURVE"
);
},
{
closed = 1;
nodes = (
"363 606 OFFCURVE",
"391 578 OFFCURVE",
"423 578 CURVE SMOOTH",
"458 578 OFFCURVE",
"484 606 OFFCURVE",
"484 637 CURVE SMOOTH",
"484 673 OFFCURVE",
"458 698 OFFCURVE",
"423 698 CURVE SMOOTH",
"391 698 OFFCURVE",
"363 673 OFFCURVE",
"363 637 CURVE SMOOTH"
);
},
{
closed = 1;
nodes = (
"465 482 LINE",
"384 482 LINE",
"384 0 LINE",
"465 0 LINE"
);
}
);
width = 561;
}
);
unicode = FB01;
},
{
glyphname = fl;
layers = (
{
hints = (
{
horizontal = 1;
place = "{0, 21}";
target = up;
type = BottomGhost;
},
{
horizontal = 1;
place = "{413, 69}";
type = Stem;
},
{
horizontal = 1;
place = "{668, 68}";
type = Stem;
},
{
place = "{113, 79}";
type = Stem;
},
{
place = "{365, 81}";
type = Stem;
}
);
layerId = "F34C6FC4-EF5D-4900-948D-0C8CFE233EE1";
paths = (
{
closed = 1;
nodes = (
"329 726 LINE",
"313 731 OFFCURVE",
"292 736 OFFCURVE",
"268 736 CURVE SMOOTH",
"173 736 OFFCURVE",
"113 685 OFFCURVE",
"113 557 CURVE SMOOTH",
"113 484 LINE",
"15 413 LINE",
"113 413 LINE",
"113 0 LINE",
"192 0 LINE",
"192 413 LINE",
"313 413 LINE",
"313 482 LINE",
"192 482 LINE",
"192 553 LINE SMOOTH",
"192 628 OFFCURVE",
"215 668 OFFCURVE",
"278 668 CURVE SMOOTH",
"295 668 OFFCURVE",
"312 665 OFFCURVE",
"329 658 CURVE"
);
},
{
closed = 1;
nodes = (
"446 732 LINE",
"365 732 LINE",
"365 0 LINE",
"446 0 LINE"
);
}
);
width = 523;
}
);
unicode = FB02;
},
{
glyphname = breve;
layers = (
{
hints = (
{
horizontal = 1;
place = "{581, 66}";
type = Stem;
},
{
horizontal = 1;
place = "{720, -20}";
target = down;
type = TopGhost;
},
{
place = "{27, 299}";
type = Stem;
}
);
layerId = "F34C6FC4-EF5D-4900-948D-0C8CFE233EE1";
paths = (
{
closed = 1;
nodes = (
"272 720 LINE",
"260 673 OFFCURVE",
"226 647 OFFCURVE",
"178 647 CURVE SMOOTH",
"129 647 OFFCURVE",
"93 673 OFFCURVE",
"81 720 CURVE",
"27 720 LINE",
"38 636 OFFCURVE",
"92 581 OFFCURVE",
"175 581 CURVE SMOOTH",
"258 581 OFFCURVE",
"318 636 OFFCURVE",
"326 720 CURVE"
);
}
);
width = 353;
}
);
unicode = 02D8;
},
{
glyphname = dotaccent;
layers = (
{
hints = (
{
horizontal = 1;
place = "{591, 103}";
type = Stem;
},
{
place = "{93, 102}";
type = Stem;
}
);
layerId = "F34C6FC4-EF5D-4900-948D-0C8CFE233EE1";
paths = (
{
closed = 1;
nodes = (
"195 672 OFFCURVE",
"170 694 OFFCURVE",
"143 694 CURVE SMOOTH",
"116 694 OFFCURVE",
"93 672 OFFCURVE",
"93 643 CURVE SMOOTH",
"93 612 OFFCURVE",
"116 591 OFFCURVE",
"143 591 CURVE SMOOTH",
"170 591 OFFCURVE",
"195 612 OFFCURVE",
"195 643 CURVE SMOOTH"
);
}
);
width = 311;
}
);
unicode = 02D9;
},
{
glyphname = ring;
layers = (
{
hints = (
{
horizontal = 1;
place = "{571, 44}";
type = Stem;
},
{
horizontal = 1;
place = "{727, 44}";
type = Stem;
},
{
place = "{43, 44}";
type = Stem;
},
{
place = "{202, 44}";
type = Stem;
}
);
layerId = "F34C6FC4-EF5D-4900-948D-0C8CFE233EE1";
paths = (
{
closed = 1;
nodes = (
"246 725 OFFCURVE",
"200 771 OFFCURVE",
"143 771 CURVE SMOOTH",
"90 771 OFFCURVE",
"43 726 OFFCURVE",
"43 670 CURVE SMOOTH",
"43 614 OFFCURVE",
"90 571 OFFCURVE",
"143 571 CURVE SMOOTH",
"201 571 OFFCURVE",
"246 612 OFFCURVE",
"246 668 CURVE SMOOTH"
);
},
{
closed = 1;
nodes = (
"202 639 OFFCURVE",
"180 615 OFFCURVE",
"145 615 CURVE SMOOTH",
"113 615 OFFCURVE",
"87 636 OFFCURVE",
"87 671 CURVE SMOOTH",
"87 702 OFFCURVE",
"112 727 OFFCURVE",
"145 727 CURVE SMOOTH",
"178 727 OFFCURVE",
"202 701 OFFCURVE",
"202 670 CURVE SMOOTH"
);
}
);
width = 307;
}
);
unicode = 02DA;
},
{
glyphname = hungarumlaut;
layers = (
{
hints = (
{
horizontal = 1;
place = "{707, -20}";
target = down;
type = TopGhost;
},
{
horizontal = 1;
place = "{709, -20}";
target = down;
type = TopGhost;
},
{
place = "{46, 343}";
type = Stem;
}
);
layerId = "F34C6FC4-EF5D-4900-948D-0C8CFE233EE1";
paths = (
{
closed = 1;
nodes = (
"236 709 LINE",
"147 725 LINE",
"46 576 LINE",
"112 576 LINE"
);
},
{
closed = 1;
nodes = (
"389 707 LINE",
"300 725 LINE",
"199 576 LINE",
"263 576 LINE"
);
}
);
width = 333;
}
);
unicode = 02DD;
},
{
glyphname = ogonek;
layers = (
{
hints = (
{
horizontal = 1;
place = "{-185, 50}";
type = Stem;
},
{
place = "{66, 68}";
type = Stem;
}
);
layerId = "F34C6FC4-EF5D-4900-948D-0C8CFE233EE1";
paths = (
{
closed = 1;
nodes = (
"236 -127 LINE",
"217 -132 OFFCURVE",
"205 -135 OFFCURVE",
"192 -135 CURVE SMOOTH",
"157 -135 OFFCURVE",
"134 -112 OFFCURVE",
"134 -80 CURVE SMOOTH",
"134 -48 OFFCURVE",
"151 -26 OFFCURVE",
"175 12 CURVE",
"115 12 LINE",
"92 -17 OFFCURVE",
"66 -53 OFFCURVE",
"66 -92 CURVE SMOOTH",
"66 -152 OFFCURVE",
"114 -185 OFFCURVE",
"178 -185 CURVE SMOOTH",
"199 -185 OFFCURVE",
"221 -181 OFFCURVE",
"246 -170 CURVE"
);
}
);
width = 312;
}
);
unicode = 02DB;
},
{
glyphname = caron;
layers = (
{
hints = (
{
horizontal = 1;
place = "{576, 143}";
type = Stem;
},
{
place = "{24, 298}";
type = Stem;
}
);
layerId = "F34C6FC4-EF5D-4900-948D-0C8CFE233EE1";
paths = (
{
closed = 1;
nodes = (
"251 719 LINE",
"173 633 LINE",
"96 719 LINE",
"24 719 LINE",
"136 576 LINE",
"211 576 LINE",
"322 719 LINE"
);
}
);
width = 346;
}
);
unicode = 02C7;
},
{
glyphname = dotlessi;
layers = (
{
hints = (
{
horizontal = 1;
place = "{0, 21}";
target = up;
type = BottomGhost;
},
{
horizontal = 1;
place = "{482, -20}";
target = down;
type = TopGhost;
},
{
place = "{76, 81}";
type = Stem;
}
);
layerId = "F34C6FC4-EF5D-4900-948D-0C8CFE233EE1";
paths = (
{
closed = 1;
nodes = (
"157 482 LINE",
"76 482 LINE",
"76 0 LINE",
"157 0 LINE"
);
}
);
width = 233;
}
);
unicode = 0131;
},
{
glyphname = greaterequal;
layers = (
{
hints = (
{
horizontal = 1;
place = "{6, 68}";
type = Stem;
},
{
place = "{69, 502}";
type = Stem;
}
);
layerId = "F34C6FC4-EF5D-4900-948D-0C8CFE233EE1";
paths = (
{
closed = 1;
nodes = (
"571 298 LINE",
"571 367 LINE",
"69 557 LINE",
"69 483 LINE",
"473 332 LINE",
"69 184 LINE",
"69 110 LINE"
);
},
{
closed = 1;
nodes = (
"571 6 LINE",
"571 74 LINE",
"69 74 LINE",
"69 6 LINE"
);
}
);
width = 640;
}
);
unicode = 2265;
},
{
glyphname = radical;
layers = (
{
hints = (
{
horizontal = 1;
place = "{-211, 994}";
type = Stem;
},
{
place = "{34, 514}";
type = Stem;
}
);
layerId = "F34C6FC4-EF5D-4900-948D-0C8CFE233EE1";
paths = (
{
closed = 1;
nodes = (
"548 783 LINE",
"474 783 LINE",
"291 -108 LINE",
"142 209 LINE",
"34 160 LINE",
"61 101 LINE",
"107 122 LINE",
"267 -211 LINE",
"340 -211 LINE"
);
}
);
width = 531;
}
);
unicode = 221A;
},
{
glyphname = notequal;
layers = (
{
hints = (
{
horizontal = 1;
place = "{118, 68}";
type = Stem;
},
{
horizontal = 1;
place = "{308, 68}";
type = Stem;
},
{
horizontal = 1;
place = "{488, -20}";
target = down;
type = TopGhost;
},
{
place = "{42, 503}";
type = Stem;
}
);
layerId = "F34C6FC4-EF5D-4900-948D-0C8CFE233EE1";
paths = (
{
closed = 1;
nodes = (
"544 118 LINE",
"544 186 LINE",
"300 186 LINE",
"362 308 LINE",
"545 308 LINE",
"545 376 LINE",
"399 376 LINE",
"459 488 LINE",
"400 522 LINE",
"323 376 LINE",
"43 376 LINE",
"43 308 LINE",
"286 308 LINE",
"223 186 LINE",
"42 186 LINE",
"42 118 LINE",
"187 118 LINE",
"127 7 LINE",
"187 -26 LINE",
"262 118 LINE"
);
}
);
width = 587;
}
);
unicode = 2260;
},
{
glyphname = product;
layers = (
{
hints = (
{
horizontal = 1;
place = "{713, 70}";
type = Stem;
},
{
place = "{9, 75}";
type = Stem;
},
{
place = "{503, 75}";
type = Stem;
}
);
layerId = "F34C6FC4-EF5D-4900-948D-0C8CFE233EE1";
paths = (
{
closed = 1;
nodes = (
"578 -211 LINE",
"578 783 LINE",
"9 783 LINE",
"9 -211 LINE",
"84 -211 LINE",
"84 713 LINE",
"503 713 LINE",
"503 -211 LINE"
);
}
);
width = 588;
}
);
unicode = 220F;
},
{
glyphname = summation;
layers = (
{
hints = (
{
horizontal = 1;
place = "{-211, 70}";
type = Stem;
},
{
horizontal = 1;
place = "{713, 70}";
type = Stem;
},
{
place = "{9, 552}";
type = Stem;
}
);
layerId = "F34C6FC4-EF5D-4900-948D-0C8CFE233EE1";
paths = (
{
closed = 1;
nodes = (
"561 -211 LINE",
"561 -141 LINE",
"102 -141 LINE",
"421 290 LINE",
"119 713 LINE",
"550 713 LINE",
"550 783 LINE",
"22 783 LINE",
"22 723 LINE",
"331 290 LINE",
"9 -150 LINE",
"9 -211 LINE"
);
}
);
width = 554;
}
);
unicode = 2211;
},
{
glyphname = lessequal;
layers = (
{
hints = (
{
horizontal = 1;
place = "{6, 68}";
type = Stem;
},
{
place = "{69, 502}";
type = Stem;
}
);
layerId = "F34C6FC4-EF5D-4900-948D-0C8CFE233EE1";
paths = (
{
closed = 1;
nodes = (
"571 110 LINE",
"571 184 LINE",
"171 332 LINE",
"571 483 LINE",
"571 557 LINE",
"69 367 LINE",
"69 298 LINE"
);
},
{
closed = 1;
nodes = (
"571 6 LINE",
"571 74 LINE",
"69 74 LINE",
"69 6 LINE"
);
}
);
width = 640;
}
);
unicode = 2264;
},
{
glyphname = uni02C9;
layers = (
{
hints = (
{
horizontal = 1;
place = "{787, 64}";
type = Stem;
},
{
place = "{40, 275}";
type = Stem;
}
);
layerId = "F34C6FC4-EF5D-4900-948D-0C8CFE233EE1";
paths = (
{
closed = 1;
nodes = (
"315 851 LINE",
"40 851 LINE",
"40 787 LINE",
"315 787 LINE"
);
}
);
width = 354;
}
);
unicode = 02C9;
},
{
glyphname = lozenge;
layers = (
{
hints = (
{
horizontal = 1;
place = "{-35, 780}";
type = Stem;
},
{
place = "{47, 408}";
type = Stem;
}
);
layerId = "F34C6FC4-EF5D-4900-948D-0C8CFE233EE1";
paths = (
{
closed = 1;
nodes = (
"455 355 LINE",
"284 745 LINE",
"217 745 LINE",
"47 355 LINE",
"217 -35 LINE",
"284 -35 LINE"
);
},
{
closed = 1;
nodes = (
"380 356 LINE",
"251 50 LINE",
"122 355 LINE",
"251 661 LINE"
);
}
);
width = 502;
}
);
unicode = 25CA;
},
{
glyphname = minus;
layers = (
{
hints = (
{
horizontal = 1;
place = "{269, 68}";
type = Stem;
},
{
place = "{42, 510}";
type = Stem;
}
);
layerId = "F34C6FC4-EF5D-4900-948D-0C8CFE233EE1";
paths = (
{
closed = 1;
nodes = (
"552 337 LINE",
"42 337 LINE",
"42 269 LINE",
"552 269 LINE"
);
}
);
width = 594;
}
);
unicode = 2212;
},
{
glyphname = uni2215;
layers = (
{
hints = (
{
horizontal = 1;
place = "{0, 21}";
target = up;
type = BottomGhost;
},
{
horizontal = 1;
place = "{718, -20}";
target = down;
type = TopGhost;
},
{
place = "{-164, 508}";
type = Stem;
}
);
layerId = "F34C6FC4-EF5D-4900-948D-0C8CFE233EE1";
paths = (
{
closed = 1;
nodes = (
"344 718 LINE",
"282 750 LINE",
"-164 0 LINE",
"-103 -31 LINE"
);
}
);
width = 179;
}
);
unicode = 2215;
},
{
glyphname = approxequal;
layers = (
{
hints = (
{
horizontal = 1;
place = "{91, 67}";
type = Stem;
},
{
horizontal = 1;
place = "{164, 67}";
type = Stem;
},
{
horizontal = 1;
place = "{260, 67}";
type = Stem;
},
{
horizontal = 1;
place = "{333, 67}";
type = Stem;
},
{
place = "{497, 54}";
type = Stem;
}
);
layerId = "F34C6FC4-EF5D-4900-948D-0C8CFE233EE1";
paths = (
{
closed = 1;
nodes = (
"497 407 LINE",
"490 363 OFFCURVE",
"469 327 OFFCURVE",
"421 327 CURVE SMOOTH",
"344 327 OFFCURVE",
"248 400 OFFCURVE",
"160 400 CURVE SMOOTH",
"72 400 OFFCURVE",
"35 328 OFFCURVE",
"24 253 CURVE",
"78 253 LINE",
"85 297 OFFCURVE",
"110 333 OFFCURVE",
"161 333 CURVE SMOOTH",
"231 333 OFFCURVE",
"330 260 OFFCURVE",
"413 260 CURVE SMOOTH",
"501 260 OFFCURVE",
"546 334 OFFCURVE",
"551 407 CURVE"
);
},
{
closed = 1;
nodes = (
"497 238 LINE",
"490 194 OFFCURVE",
"469 158 OFFCURVE",
"421 158 CURVE SMOOTH",
"344 158 OFFCURVE",
"248 231 OFFCURVE",
"160 231 CURVE SMOOTH",
"72 231 OFFCURVE",
"35 159 OFFCURVE",
"24 84 CURVE",
"78 84 LINE",
"85 128 OFFCURVE",
"110 164 OFFCURVE",
"161 164 CURVE SMOOTH",
"231 164 OFFCURVE",
"330 91 OFFCURVE",
"413 91 CURVE SMOOTH",
"501 91 OFFCURVE",
"546 165 OFFCURVE",
"551 238 CURVE"
);
}
);
width = 574;
}
);
unicode = 2248;
},
{
glyphname = integral;
layers = (
{
hints = (
{
horizontal = 1;
place = "{-210, 49}";
type = Stem;
},
{
horizontal = 1;
place = "{691, 92}";
type = Stem;
},
{
place = "{123, 76}";
type = Stem;
}
);
layerId = "F34C6FC4-EF5D-4900-948D-0C8CFE233EE1";
paths = (
{
closed = 1;
nodes = (
"76 -145 OFFCURVE",
"71 -123 OFFCURVE",
"42 -123 CURVE SMOOTH",
"22 -123 OFFCURVE",
"10 -139 OFFCURVE",
"10 -158 CURVE SMOOTH",
"10 -194 OFFCURVE",
"58 -210 OFFCURVE",
"86 -210 CURVE SMOOTH",
"197 -210 OFFCURVE",
"199 -35 OFFCURVE",
"199 42 CURVE SMOOTH",
"199 614 LINE SMOOTH",
"199 635 OFFCURVE",
"199 724 OFFCURVE",
"228 729 CURVE",
"249 718 OFFCURVE",
"250 691 OFFCURVE",
"285 691 CURVE SMOOTH",
"308 691 OFFCURVE",
"322 706 OFFCURVE",
"322 729 CURVE SMOOTH",
"322 768 OFFCURVE",
"275 783 OFFCURVE",
"239 783 CURVE SMOOTH",
"131 783 OFFCURVE",
"123 647 OFFCURVE",
"123 567 CURVE SMOOTH",
"123 -46 LINE SMOOTH",
"123 -69 OFFCURVE",
"123 -156 OFFCURVE",
"94 -161 CURVE"
);
}
);
width = 332;
}
);
unicode = 222B;
},
{
glyphname = uni2113;
layers = (
{
hints = (
{
horizontal = 1;
place = "{-14, 61}";
type = Stem;
},
{
horizontal = 1;
place = "{660, 55}";
type = Stem;
},
{
place = "{154, 76}";
type = Stem;
},
{
place = "{330, 65}";
type = Stem;
}
);
layerId = "F34C6FC4-EF5D-4900-948D-0C8CFE233EE1";
paths = (
{
closed = 1;
nodes = (
"387 87 LINE",
"352 59 OFFCURVE",
"321 47 OFFCURVE",
"297 47 CURVE SMOOTH",
"274 47 OFFCURVE",
"245 57 OFFCURVE",
"234 94 CURVE SMOOTH",
"231 105 OFFCURVE",
"230 115 OFFCURVE",
"230 128 CURVE SMOOTH",
"230 273 LINE",
"322 372 OFFCURVE",
"385 472 OFFCURVE",
"394 564 CURVE SMOOTH",
"395 571 OFFCURVE",
"395 578 OFFCURVE",
"395 585 CURVE SMOOTH",
"395 669 OFFCURVE",
"350 715 OFFCURVE",
"283 715 CURVE SMOOTH",
"207 715 OFFCURVE",
"154 655 OFFCURVE",
"154 538 CURVE SMOOTH",
"154 288 LINE",
"68 203 LINE",
"99 162 LINE",
"154 217 LINE",
"154 118 LINE SMOOTH",
"154 30 OFFCURVE",
"205 -14 OFFCURVE",
"281 -14 CURVE SMOOTH",
"326 -14 OFFCURVE",
"372 5 OFFCURVE",
"412 42 CURVE",
"416 42 LINE"
);
},
{
closed = 1;
nodes = (
"330 503 OFFCURVE",
"300 429 OFFCURVE",
"230 346 CURVE",
"230 549 LINE SMOOTH",
"230 628 OFFCURVE",
"255 660 OFFCURVE",
"283 660 CURVE SMOOTH",
"310 660 OFFCURVE",
"330 620 OFFCURVE",
"330 567 CURVE SMOOTH"
);
}
);
width = 499;
}
);
unicode = 2113;
},
{
glyphname = partialdiff;
layers = (
{
hints = (
{
horizontal = 1;
place = "{-11, 62}";
type = Stem;
},
{
horizontal = 1;
place = "{362, 65}";
type = Stem;
},
{
horizontal = 1;
place = "{654, 65}";
type = Stem;
},
{
place = "{27, 72}";
type = Stem;
},
{
place = "{382, 71}";
type = Stem;
}
);
layerId = "F34C6FC4-EF5D-4900-948D-0C8CFE233EE1";
paths = (
{
closed = 1;
nodes = (
"453 517 OFFCURVE",
"399 719 OFFCURVE",
"207 719 CURVE SMOOTH",
"150 719 OFFCURVE",
"106 700 OFFCURVE",
"59 657 CURVE",
"101 609 LINE",
"132 640 OFFCURVE",
"167 654 OFFCURVE",
"210 654 CURVE SMOOTH",
"286 654 OFFCURVE",
"330 608 OFFCURVE",
"355 548 CURVE SMOOTH",
"380 488 OFFCURVE",
"382 428 OFFCURVE",
"382 388 CURVE SMOOTH",
"382 377 OFFCURVE",
"382 365 OFFCURVE",
"381 354 CURVE",
"336 401 OFFCURVE",
"287 427 OFFCURVE",
"222 427 CURVE SMOOTH",
"98 427 OFFCURVE",
"27 329 OFFCURVE",
"27 213 CURVE SMOOTH",
"27 96 OFFCURVE",
"100 -11 OFFCURVE",
"227 -11 CURVE SMOOTH",
"422 -11 OFFCURVE",
"453 214 OFFCURVE",
"453 361 CURVE SMOOTH"
);
},
{
closed = 1;
nodes = (
"373 191 OFFCURVE",
"336 51 OFFCURVE",
"228 51 CURVE SMOOTH",
"142 51 OFFCURVE",
"99 136 OFFCURVE",
"99 211 CURVE SMOOTH",
"99 289 OFFCURVE",
"145 362 OFFCURVE",
"228 362 CURVE SMOOTH",
"287 362 OFFCURVE",
"339 324 OFFCURVE",
"376 277 CURVE"
);
}
);
width = 491;
}
);
unicode = 2202;
},
{
glyphname = uni2206;
layers = (
{
hints = (
{
place = "{27, 653}";
type = Stem;
},
{
horizontal = 1;
place = "{0, 73}";
type = Stem;
},
{
horizontal = 1;
place = "{624, 86}";
type = Stem;
},
{
horizontal = 1;
place = "{710, -20}";
target = down;
type = TopGhost;
}
);
layerId = "F34C6FC4-EF5D-4900-948D-0C8CFE233EE1";
paths = (
{
closed = 1;
nodes = (
"680 0 LINE",
"393 710 LINE",
"309 710 LINE",
"27 0 LINE"
);
},
{
closed = 1;
nodes = (
"565 73 LINE",
"138 73 LINE",
"189 211 LINE SMOOTH",
"239 349 OFFCURVE",
"294 490 OFFCURVE",
"350 624 CURVE"
);
}
);
width = 706;
}
);
unicode = 2206;
},
{
glyphname = infinity;
layers = (
{
hints = (
{
horizontal = 1;
place = "{102, 68}";
type = Stem;
},
{
horizontal = 1;
place = "{334, 68}";
type = Stem;
},
{
place = "{37, 67}";
type = Stem;
},
{
place = "{629, 67}";
type = Stem;
}
);
layerId = "F34C6FC4-EF5D-4900-948D-0C8CFE233EE1";
paths = (
{
closed = 1;
nodes = (
"696 333 OFFCURVE",
"644 402 OFFCURVE",
"562 402 CURVE SMOOTH",
"481 402 OFFCURVE",
"412 342 OFFCURVE",
"366 291 CURVE",
"323 334 OFFCURVE",
"256 401 OFFCURVE",
"177 401 CURVE SMOOTH",
"93 401 OFFCURVE",
"37 330 OFFCURVE",
"37 250 CURVE SMOOTH",
"37 167 OFFCURVE",
"95 102 OFFCURVE",
"179 102 CURVE SMOOTH",
"254 102 OFFCURVE",
"314 158 OFFCURVE",
"365 206 CURVE",
"416 158 OFFCURVE",
"478 102 OFFCURVE",
"553 102 CURVE SMOOTH",
"641 102 OFFCURVE",
"696 172 OFFCURVE",
"696 250 CURVE SMOOTH"
);
},
{
closed = 1;
nodes = (
"629 203 OFFCURVE",
"601 170 OFFCURVE",
"556 170 CURVE SMOOTH",
"499 170 OFFCURVE",
"450 209 OFFCURVE",
"411 248 CURVE",
"447 284 OFFCURVE",
"498 334 OFFCURVE",
"553 334 CURVE SMOOTH",
"604 334 OFFCURVE",
"629 298 OFFCURVE",
"629 251 CURVE SMOOTH"
);
},
{
closed = 1;
nodes = (
"287 215 OFFCURVE",
"237 170 OFFCURVE",
"180 170 CURVE SMOOTH",
"129 170 OFFCURVE",
"104 203 OFFCURVE",
"104 251 CURVE SMOOTH",
"104 298 OFFCURVE",
"129 333 OFFCURVE",
"176 333 CURVE SMOOTH",
"232 333 OFFCURVE",
"287 282 OFFCURVE",
"322 250 CURVE"
);
}
);
width = 733;
}
);
unicode = 221E;
},
{
glyphname = uni2126;
layers = (
{
hints = (
{
horizontal = 1;
place = "{0, 69}";
type = Stem;
},
{
horizontal = 1;
place = "{645, 73}";
type = Stem;
},
{
place = "{31, 80}";
type = Stem;
},
{
place = "{212, 80}";
type = Stem;
},
{
place = "{415, 80}";
type = Stem;
},
{
place = "{596, 80}";
type = Stem;
}
);
layerId = "F34C6FC4-EF5D-4900-948D-0C8CFE233EE1";
paths = (
{
closed = 1;
nodes = (
"676 0 LINE",
"676 69 LINE",
"495 69 LINE",
"495 129 LINE",
"595 163 OFFCURVE",
"676 292 OFFCURVE",
"676 412 CURVE SMOOTH",
"676 592 OFFCURVE",
"530 718 OFFCURVE",
"354 718 CURVE SMOOTH",
"177 718 OFFCURVE",
"31 592 OFFCURVE",
"31 412 CURVE SMOOTH",
"31 293 OFFCURVE",
"99 167 OFFCURVE",
"212 129 CURVE",
"212 69 LINE",
"31 69 LINE",
"31 0 LINE",
"292 0 LINE",
"292 184 LINE",
"172 200 OFFCURVE",
"111 300 OFFCURVE",
"111 410 CURVE SMOOTH",
"111 543 OFFCURVE",
"217 645 OFFCURVE",
"354 645 CURVE SMOOTH",
"491 645 OFFCURVE",
"596 550 OFFCURVE",
"596 410 CURVE SMOOTH",
"596 298 OFFCURVE",
"534 202 OFFCURVE",
"415 184 CURVE",
"415 0 LINE"
);
}
);
width = 707;
}
);
unicode = 2126;
},
{
glyphname = uni2219;
layers = (
{
hints = (
{
horizontal = 1;
place = "{257, 116}";
type = Stem;
},
{
place = "{45, 113}";
type = Stem;
}
);
layerId = "F34C6FC4-EF5D-4900-948D-0C8CFE233EE1";
paths = (
{
closed = 1;
nodes = (
"158 346 OFFCURVE",
"140 373 OFFCURVE",
"101 373 CURVE SMOOTH",
"68 373 OFFCURVE",
"45 346 OFFCURVE",
"45 314 CURVE SMOOTH",
"45 283 OFFCURVE",
"68 257 OFFCURVE",
"101 257 CURVE SMOOTH",
"140 257 OFFCURVE",
"158 283 OFFCURVE",
"158 314 CURVE SMOOTH"
);
}
);
width = 204;
}
);
unicode = 2219;
},
{
glyphname = estimated;
layers = (
{
hints = (
{
horizontal = 1;
place = "{-17, 46}";
type = Stem;
},
{
horizontal = 1;
place = "{256, 46}";
type = Stem;
},
{
horizontal = 1;
place = "{493, 43}";
type = Stem;
},
{
place = "{37, 121}";
type = Stem;
},
{
place = "{434, 121}";
type = Stem;
}
);
layerId = "F34C6FC4-EF5D-4900-948D-0C8CFE233EE1";
paths = (
{
closed = 1;
nodes = (
"555 256 LINE",
"555 421 OFFCURVE",
"450 536 OFFCURVE",
"296 536 CURVE SMOOTH",
"140 536 OFFCURVE",
"37 417 OFFCURVE",
"37 261 CURVE SMOOTH",
"37 105 OFFCURVE",
"140 -17 OFFCURVE",
"296 -17 CURVE SMOOTH",
"399 -17 OFFCURVE",
"464 24 OFFCURVE",
"528 123 CURVE",
"483 151 LINE",
"432 62 OFFCURVE",
"376 29 OFFCURVE",
"296 29 CURVE SMOOTH",
"240 29 OFFCURVE",
"194 49 OFFCURVE",
"158 84 CURVE",
"158 256 LINE"
);
},
{
closed = 1;
nodes = (
"158 302 LINE",
"158 437 LINE",
"194 473 OFFCURVE",
"243 493 OFFCURVE",
"295 493 CURVE SMOOTH",
"351 493 OFFCURVE",
"393 477 OFFCURVE",
"434 438 CURVE",
"434 302 LINE"
);
}
);
width = 592;
}
);
unicode = 212E;
},
{
glyphname = exclam;
layers = (
{
hints = (
{
place = "{59, 119}";
type = Stem;
},
{
place = "{80, 76}";
type = Stem;
},
{
horizontal = 1;
place = "{-10, 119}";
type = Stem;
},
{
horizontal = 1;
place = "{705, -20}";
target = down;
type = TopGhost;
}
);
layerId = "F34C6FC4-EF5D-4900-948D-0C8CFE233EE1";
paths = (
{
closed = 1;
nodes = (
"69 705 LINE",
"91 203 LINE",
"146 203 LINE",
"167 705 LINE"
);
},
{
closed = 1;
nodes = (
"59 14 OFFCURVE",
"86 -10 OFFCURVE",
"119 -10 CURVE SMOOTH",
"152 -10 OFFCURVE",
"178 14 OFFCURVE",
"178 50 CURVE SMOOTH",
"178 81 OFFCURVE",
"152 109 OFFCURVE",
"119 109 CURVE SMOOTH",
"87 109 OFFCURVE",
"59 81 OFFCURVE",
"59 50 CURVE SMOOTH"
);
}
);
width = 237;
}
);
unicode = 0021;
},
{
glyphname = Alpha;
layers = (
{
hints = (
{
place = "{26, 687}";
type = Stem;
},
{
horizontal = 1;
place = "{0, 21}";
target = up;
type = BottomGhost;
},
{
horizontal = 1;
place = "{197, 75}";
type = Stem;
},
{
horizontal = 1;
place = "{606, 99}";
type = Stem;
},
{
horizontal = 1;
place = "{705, -20}";
target = down;
type = TopGhost;
}
);
layerId = "F34C6FC4-EF5D-4900-948D-0C8CFE233EE1";
paths = (
{
closed = 1;
nodes = (
"536 197 LINE",
"620 0 LINE",
"713 0 LINE",
"404 705 LINE",
"334 705 LINE",
"26 0 LINE",
"117 0 LINE",
"202 197 LINE"
);
},
{
closed = 1;
nodes = (
"369 606 LINE",
"504 272 LINE",
"234 272 LINE"
);
}
);
width = 737;
}
);
unicode = 0391;
},
{
glyphname = Epsilon;
layers = (
{
hints = (
{
horizontal = 1;
place = "{0, 76}";
type = Stem;
},
{
horizontal = 1;
place = "{321, 76}";
type = Stem;
},
{
horizontal = 1;
place = "{629, 76}";
type = Stem;
},
{
place = "{80, 86}";
type = Stem;
}
);
layerId = "F34C6FC4-EF5D-4900-948D-0C8CFE233EE1";
paths = (
{
closed = 1;
nodes = (
"166 321 LINE",
"511 321 LINE",
"511 397 LINE",
"166 397 LINE",
"166 629 LINE",
"540 629 LINE",
"540 705 LINE",
"80 705 LINE",
"80 0 LINE",
"551 0 LINE",
"551 76 LINE",
"166 76 LINE"
);
}
);
width = 589;
}
);
unicode = 0395;
},
{
glyphname = Eta;
layers = (
{
hints = (
{
horizontal = 1;
place = "{0, 21}";
target = up;
type = BottomGhost;
},
{
horizontal = 1;
place = "{320, 78}";
type = Stem;
},
{
horizontal = 1;
place = "{706, -20}";
target = down;
type = TopGhost;
},
{
place = "{80, 84}";
type = Stem;
},
{
place = "{546, 84}";
type = Stem;
}
);
layerId = "F34C6FC4-EF5D-4900-948D-0C8CFE233EE1";
paths = (
{
closed = 1;
nodes = (
"80 0 LINE",
"164 0 LINE",
"164 320 LINE",
"546 320 LINE",
"546 0 LINE",
"630 0 LINE",
"630 706 LINE",
"546 706 LINE",
"546 398 LINE",
"164 398 LINE",
"164 706 LINE",
"80 706 LINE"
);
}
);
width = 709;
}
);
unicode = 0397;
},
{
glyphname = Iota;
layers = (
{
hints = (
{
horizontal = 1;
place = "{0, 21}";
target = up;
type = BottomGhost;
},
{
horizontal = 1;
place = "{705, -20}";
target = down;
type = TopGhost;
},
{
place = "{80, 84}";
type = Stem;
}
);
layerId = "F34C6FC4-EF5D-4900-948D-0C8CFE233EE1";
paths = (
{
closed = 1;
nodes = (
"164 705 LINE",
"80 705 LINE",
"80 0 LINE",
"164 0 LINE"
);
}
);
width = 243;
}
);
unicode = 0399;
},
{
glyphname = Kappa;
layers = (
{
hints = (
{
horizontal = 1;
place = "{0, 21}";
target = up;
type = BottomGhost;
},
{
horizontal = 1;
place = "{705, -20}";
target = down;
type = TopGhost;
},
{
place = "{80, 84}";
type = Stem;
}
);
layerId = "F34C6FC4-EF5D-4900-948D-0C8CFE233EE1";
paths = (
{
closed = 1;
nodes = (
"164 705 LINE",
"80 705 LINE",
"80 0 LINE",
"164 0 LINE",
"164 330 LINE",
"459 0 LINE",
"567 0 LINE",
"236 375 LINE",
"539 705 LINE",
"431 705 LINE",
"164 409 LINE"
);
}
);
width = 557;
}
);
unicode = 039A;
},
{
glyphname = Mu;
layers = (
{
hints = (
{
horizontal = 1;
place = "{0, 21}";
target = up;
type = BottomGhost;
},
{
place = "{61, 84}";
type = Stem;
},
{
place = "{691, 84}";
type = Stem;
}
);
layerId = "F34C6FC4-EF5D-4900-948D-0C8CFE233EE1";
paths = (
{
closed = 1;
nodes = (
"418 153 LINE",
"691 565 LINE",
"691 0 LINE",
"775 0 LINE",
"775 700 LINE",
"693 700 LINE",
"418 279 LINE",
"143 700 LINE",
"61 700 LINE",
"61 0 LINE",
"145 0 LINE",
"145 565 LINE"
);
}
);
width = 836;
}
);
unicode = 039C;
},
{
glyphname = Nu;
layers = (
{
hints = (
{
horizontal = 1;
place = "{0, 21}";
target = up;
type = BottomGhost;
},
{
horizontal = 1;
place = "{705, -20}";
target = down;
type = TopGhost;
},
{
place = "{80, 82}";
type = Stem;
},
{
place = "{584, 82}";
type = Stem;
}
);
layerId = "F34C6FC4-EF5D-4900-948D-0C8CFE233EE1";
paths = (
{
closed = 1;
nodes = (
"165 700 LINE",
"80 700 LINE",
"80 0 LINE",
"162 0 LINE",
"162 577 LINE",
"582 0 LINE",
"666 0 LINE",
"666 705 LINE",
"584 705 LINE",
"584 126 LINE"
);
}
);
width = 745;
}
);
unicode = 039D;
},
{
glyphname = Omicron;
layers = (
{
hints = (
{
horizontal = 1;
place = "{-14, 77}";
type = Stem;
},
{
horizontal = 1;
place = "{642, 77}";
type = Stem;
},
{
place = "{38, 87}";
type = Stem;
},
{
place = "{682, 87}";
type = Stem;
}
);
layerId = "F34C6FC4-EF5D-4900-948D-0C8CFE233EE1";
paths = (
{
closed = 1;
nodes = (
"769 553 OFFCURVE",
"617 719 OFFCURVE",
"406 719 CURVE SMOOTH",
"193 719 OFFCURVE",
"38 555 OFFCURVE",
"38 351 CURVE SMOOTH",
"38 148 OFFCURVE",
"191 -14 OFFCURVE",
"404 -14 CURVE SMOOTH",
"615 -14 OFFCURVE",
"769 151 OFFCURVE",
"769 354 CURVE SMOOTH"
);
},
{
closed = 1;
nodes = (
"682 191 OFFCURVE",
"566 63 OFFCURVE",
"405 63 CURVE SMOOTH",
"240 63 OFFCURVE",
"125 190 OFFCURVE",
"125 354 CURVE SMOOTH",
"125 514 OFFCURVE",
"240 642 OFFCURVE",
"405 642 CURVE SMOOTH",
"566 642 OFFCURVE",
"682 512 OFFCURVE",
"682 350 CURVE SMOOTH"
);
}
);
width = 808;
}
);
unicode = 039F;
},
{
glyphname = Chi;
layers = (
{
hints = (
{
horizontal = 1;
place = "{0, 21}";
target = up;
type = BottomGhost;
},
{
horizontal = 1;
place = "{705, -20}";
target = down;
type = TopGhost;
},
{
place = "{26, 606}";
type = Stem;
}
);
layerId = "F34C6FC4-EF5D-4900-948D-0C8CFE233EE1";
paths = (
{
closed = 1;
nodes = (
"38 705 LINE",
"281 361 LINE",
"26 0 LINE",
"125 0 LINE",
"329 296 LINE",
"535 0 LINE",
"632 0 LINE",
"379 363 LINE",
"619 705 LINE",
"523 705 LINE",
"332 426 LINE",
"137 705 LINE"
);
}
);
width = 658;
}
);
unicode = 03A7;
},
{
glyphname = Tau;
layers = (
{
hints = (
{
horizontal = 1;
place = "{0, 21}";
target = up;
type = BottomGhost;
},
{
horizontal = 1;
place = "{629, 76}";
type = Stem;
},
{
place = "{209, 84}";
type = Stem;
}
);
layerId = "F34C6FC4-EF5D-4900-948D-0C8CFE233EE1";
paths = (
{
closed = 1;
nodes = (
"293 629 LINE",
"503 629 LINE",
"503 705 LINE",
"-1 705 LINE",
"-1 629 LINE",
"209 629 LINE",
"209 0 LINE",
"293 0 LINE"
);
}
);
width = 502;
}
);
unicode = 03A4;
},
{
glyphname = Rho;
layers = (
{
hints = (
{
horizontal = 1;
place = "{-2, 21}";
target = up;
type = BottomGhost;
},
{
horizontal = 1;
place = "{279, 76}";
type = Stem;
},
{
horizontal = 1;
place = "{629, 76}";
type = Stem;
},
{
place = "{80, 86}";
type = Stem;
},
{
place = "{472, 86}";
type = Stem;
}
);
layerId = "F34C6FC4-EF5D-4900-948D-0C8CFE233EE1";
paths = (
{
closed = 1;
nodes = (
"80 -2 LINE",
"166 -2 LINE",
"166 279 LINE",
"300 279 LINE SMOOTH",
"444 279 OFFCURVE",
"558 358 OFFCURVE",
"558 497 CURVE SMOOTH",
"558 628 OFFCURVE",
"457 705 OFFCURVE",
"307 705 CURVE SMOOTH",
"80 705 LINE"
);
},
{
closed = 1;
nodes = (
"166 629 LINE",
"300 629 LINE SMOOTH",
"409 629 OFFCURVE",
"472 584 OFFCURVE",
"472 493 CURVE SMOOTH",
"472 406 OFFCURVE",
"407 355 OFFCURVE",
"298 355 CURVE SMOOTH",
"166 355 LINE"
);
}
);
width = 601;
}
);
unicode = 03A1;
},
{
glyphname = Upsilon;
layers = (
{
hints = (
{
horizontal = 1;
place = "{0, 21}";
target = up;
type = BottomGhost;
},
{
horizontal = 1;
place = "{705, -20}";
target = down;
type = TopGhost;
},
{
place = "{281, 84}";
type = Stem;
}
);
layerId = "F34C6FC4-EF5D-4900-948D-0C8CFE233EE1";
paths = (
{
closed = 1;
nodes = (
"365 281 LINE",
"635 705 LINE",
"540 705 LINE",
"326 358 LINE",
"110 705 LINE",
"10 705 LINE",
"281 280 LINE",
"281 0 LINE",
"365 0 LINE"
);
}
);
width = 639;
}
);
unicode = 03A5;
},
{
glyphname = uni0394;
layers = (
{
hints = (
{
place = "{26, 697}";
type = Stem;
},
{
horizontal = 1;
place = "{0, 75}";
type = Stem;
},
{
horizontal = 1;
place = "{606, 99}";
type = Stem;
},
{
horizontal = 1;
place = "{705, -20}";
target = down;
type = TopGhost;
}
);
layerId = "F34C6FC4-EF5D-4900-948D-0C8CFE233EE1";
paths = (
{
closed = 1;
nodes = (
"723 0 LINE",
"409 705 LINE",
"339 705 LINE",
"26 0 LINE"
);
},
{
closed = 1;
nodes = (
"149 75 LINE",
"374 606 LINE",
"600 75 LINE"
);
}
);
width = 753;
}
);
unicode = 0394;
},
{
glyphname = uni03A9;
layers = (
{
hints = (
{
horizontal = 1;
place = "{0, 76}";
type = Stem;
},
{
horizontal = 1;
place = "{642, 77}";
type = Stem;
},
{
place = "{16, 87}";
type = Stem;
},
{
place = "{630, 87}";
type = Stem;
}
);
layerId = "F34C6FC4-EF5D-4900-948D-0C8CFE233EE1";
paths = (
{
closed = 1;
nodes = (
"438 0 LINE",
"732 0 LINE",
"732 76 LINE",
"555 76 LINE",
"656 143 OFFCURVE",
"717 250 OFFCURVE",
"717 373 CURVE SMOOTH",
"717 576 OFFCURVE",
"571 719 OFFCURVE",
"369 719 CURVE SMOOTH",
"173 719 OFFCURVE",
"16 576 OFFCURVE",
"16 376 CURVE SMOOTH",
"16 253 OFFCURVE",
"75 142 OFFCURVE",
"178 76 CURVE",
"1 76 LINE",
"1 0 LINE",
"300 0 LINE",
"300 76 LINE",
"184 141 OFFCURVE",
"103 235 OFFCURVE",
"103 373 CURVE SMOOTH",
"103 533 OFFCURVE",
"208 642 OFFCURVE",
"368 642 CURVE SMOOTH",
"527 642 OFFCURVE",
"630 530 OFFCURVE",
"630 373 CURVE SMOOTH",
"630 234 OFFCURVE",
"552 145 OFFCURVE",
"438 76 CURVE"
);
}
);
width = 793;
}
);
unicode = 03A9;
},
{
glyphname = Lambda;
layers = (
{
hints = (
{
place = "{26, 667}";
type = Stem;
},
{
horizontal = 1;
place = "{0, 21}";
target = up;
type = BottomGhost;
},
{
horizontal = 1;
place = "{606, 99}";
type = Stem;
},
{
horizontal = 1;
place = "{705, -20}";
target = down;
type = TopGhost;
}
);
layerId = "F34C6FC4-EF5D-4900-948D-0C8CFE233EE1";
paths = (
{
closed = 1;
nodes = (
"600 0 LINE",
"693 0 LINE",
"394 705 LINE",
"324 705 LINE",
"26 0 LINE",
"117 0 LINE",
"359 606 LINE"
);
}
);
width = 713;
}
);
unicode = 039B;
},
{
glyphname = Beta;
layers = (
{
hints = (
{
place = "{80, 84}";
type = Stem;
},
{
place = "{443, 84}";
type = Stem;
},
{
place = "{507, 84}";
type = Stem;
},
{
horizontal = 1;
place = "{0, 74}";
type = Stem;
},
{
horizontal = 1;
place = "{322, 74}";
type = Stem;
},
{
horizontal = 1;
place = "{631, 74}";
type = Stem;
}
);
layerId = "F34C6FC4-EF5D-4900-948D-0C8CFE233EE1";
paths = (
{
closed = 1;
nodes = (
"80 0 LINE",
"309 0 LINE SMOOTH",
"512 0 OFFCURVE",
"591 89 OFFCURVE",
"591 194 CURVE SMOOTH",
"591 279 OFFCURVE",
"542 350 OFFCURVE",
"425 366 CURVE",
"493 391 OFFCURVE",
"527 452 OFFCURVE",
"527 527 CURVE SMOOTH",
"527 660 OFFCURVE",
"405 705 OFFCURVE",
"281 705 CURVE SMOOTH",
"80 705 LINE"
);
},
{
closed = 1;
nodes = (
"164 631 LINE",
"291 631 LINE SMOOTH",
"383 631 OFFCURVE",
"443 595 OFFCURVE",
"443 515 CURVE SMOOTH",
"443 448 OFFCURVE",
"396 396 OFFCURVE",
"291 396 CURVE SMOOTH",
"164 396 LINE"
);
},
{
closed = 1;
nodes = (
"164 322 LINE",
"290 322 LINE SMOOTH",
"450 322 OFFCURVE",
"507 278 OFFCURVE",
"507 198 CURVE SMOOTH",
"507 118 OFFCURVE",
"451 74 OFFCURVE",
"323 74 CURVE SMOOTH",
"164 74 LINE"
);
}
);
width = 634;
}
);
unicode = 0392;
},
{
glyphname = Zeta;
layers = (
{
hints = (
{
horizontal = 1;
place = "{0, 75}";
type = Stem;
},
{
horizontal = 1;
place = "{630, 75}";
type = Stem;
},
{
place = "{31, 603}";
type = Stem;
}
);
layerId = "F34C6FC4-EF5D-4900-948D-0C8CFE233EE1";
paths = (
{
closed = 1;
nodes = (
"634 632 LINE",
"634 705 LINE",
"59 705 LINE",
"59 630 LINE",
"531 630 LINE",
"31 72 LINE",
"31 0 LINE",
"613 0 LINE",
"613 75 LINE",
"141 75 LINE"
);
}
);
width = 666;
}
);
unicode = 0396;
},
{
glyphname = Pi;
layers = (
{
hints = (
{
horizontal = 1;
place = "{0, 21}";
target = up;
type = BottomGhost;
},
{
horizontal = 1;
place = "{628, 78}";
type = Stem;
},
{
place = "{80, 84}";
type = Stem;
},
{
place = "{526, 84}";
type = Stem;
}
);
layerId = "F34C6FC4-EF5D-4900-948D-0C8CFE233EE1";
paths = (
{
closed = 1;
nodes = (
"80 0 LINE",
"164 0 LINE",
"164 628 LINE",
"526 628 LINE",
"526 0 LINE",
"610 0 LINE",
"610 706 LINE",
"80 706 LINE"
);
}
);
width = 690;
}
);
unicode = 03A0;
},
{
glyphname = Xi;
layers = (
{
hints = (
{
horizontal = 1;
place = "{0, 86}";
type = Stem;
},
{
horizontal = 1;
place = "{316, 86}";
type = Stem;
},
{
horizontal = 1;
place = "{619, 86}";
type = Stem;
},
{
place = "{45, 472}";
type = Stem;
}
);
layerId = "F34C6FC4-EF5D-4900-948D-0C8CFE233EE1";
paths = (
{
closed = 1;
nodes = (
"506 619 LINE",
"506 705 LINE",
"56 705 LINE",
"56 619 LINE"
);
},
{
closed = 1;
nodes = (
"477 316 LINE",
"477 402 LINE",
"85 402 LINE",
"85 316 LINE"
);
},
{
closed = 1;
nodes = (
"517 0 LINE",
"517 86 LINE",
"45 86 LINE",
"45 0 LINE"
);
}
);
width = 554;
}
);
unicode = 039E;
},
{
glyphname = Sigma;
layers = (
{
hints = (
{
horizontal = 1;
place = "{0, 75}";
type = Stem;
},
{
horizontal = 1;
place = "{630, 75}";
type = Stem;
},
{
place = "{27, 582}";
type = Stem;
}
);
layerId = "F34C6FC4-EF5D-4900-948D-0C8CFE233EE1";
paths = (
{
closed = 1;
nodes = (
"284 355 LINE",
"27 72 LINE",
"27 0 LINE",
"609 0 LINE",
"609 75 LINE",
"137 75 LINE",
"388 355 LINE",
"143 630 LINE",
"605 630 LINE",
"605 705 LINE",
"40 705 LINE",
"40 632 LINE"
);
}
);
width = 638;
}
);
unicode = 03A3;
},
{
glyphname = Psi;
layers = (
{
hints = (
{
horizontal = 1;
place = "{0, 21}";
target = up;
type = BottomGhost;
},
{
horizontal = 1;
place = "{135, 78}";
type = Stem;
},
{
horizontal = 1;
place = "{705, -20}";
target = down;
type = TopGhost;
},
{
place = "{49, 84}";
type = Stem;
},
{
place = "{329, 84}";
type = Stem;
},
{
place = "{611, 84}";
type = Stem;
}
);
layerId = "F34C6FC4-EF5D-4900-948D-0C8CFE233EE1";
paths = (
{
closed = 1;
nodes = (
"611 438 LINE SMOOTH",
"611 310 OFFCURVE",
"552 213 OFFCURVE",
"413 213 CURVE",
"413 705 LINE",
"329 705 LINE",
"329 213 LINE",
"190 213 OFFCURVE",
"133 310 OFFCURVE",
"133 438 CURVE SMOOTH",
"133 705 LINE",
"49 705 LINE",
"49 443 LINE SMOOTH",
"49 240 OFFCURVE",
"161 135 OFFCURVE",
"330 135 CURVE",
"330 0 LINE",
"414 0 LINE",
"414 135 LINE",
"585 135 OFFCURVE",
"695 240 OFFCURVE",
"695 443 CURVE SMOOTH",
"695 705 LINE",
"611 705 LINE"
);
}
);
width = 741;
}
);
unicode = 03A8;
},
{
glyphname = omicron;
layers = (
{
hints = (
{
horizontal = 1;
place = "{-10, 69}";
type = Stem;
},
{
horizontal = 1;
place = "{425, 69}";
type = Stem;
},
{
place = "{40, 83}";
type = Stem;
},
{
place = "{473, 83}";
type = Stem;
}
);
layerId = "F34C6FC4-EF5D-4900-948D-0C8CFE233EE1";
paths = (
{
closed = 1;
nodes = (
"556 383 OFFCURVE",
"446 494 OFFCURVE",
"297 494 CURVE SMOOTH",
"148 494 OFFCURVE",
"40 382 OFFCURVE",
"40 240 CURVE SMOOTH",
"40 99 OFFCURVE",
"148 -10 OFFCURVE",
"296 -10 CURVE SMOOTH",
"446 -10 OFFCURVE",
"556 102 OFFCURVE",
"556 242 CURVE SMOOTH"
);
},
{
closed = 1;
nodes = (
"473 142 OFFCURVE",
"399 59 OFFCURVE",
"297 59 CURVE SMOOTH",
"198 59 OFFCURVE",
"123 138 OFFCURVE",
"123 242 CURVE SMOOTH",
"123 343 OFFCURVE",
"192 425 OFFCURVE",
"296 425 CURVE SMOOTH",
"400 425 OFFCURVE",
"473 342 OFFCURVE",
"473 241 CURVE SMOOTH"
);
}
);
width = 596;
}
);
unicode = 03BF;
},
{
glyphname = kappa;
layers = (
{
hints = (
{
horizontal = 1;
place = "{0, 21}";
target = up;
type = BottomGhost;
},
{
horizontal = 1;
place = "{482, -20}";
target = down;
type = TopGhost;
},
{
place = "{65, 82}";
type = Stem;
}
);
layerId = "F34C6FC4-EF5D-4900-948D-0C8CFE233EE1";
paths = (
{
closed = 1;
nodes = (
"147 482 LINE",
"65 482 LINE",
"65 0 LINE",
"147 0 LINE",
"147 216 LINE",
"344 0 LINE",
"445 0 LINE",
"217 254 LINE",
"436 482 LINE",
"331 482 LINE",
"147 281 LINE"
);
}
);
width = 451;
}
);
unicode = 03BA;
},
{
glyphname = nu;
layers = (
{
hints = (
{
place = "{4, 485}";
type = Stem;
},
{
horizontal = 1;
place = "{0, 91}";
type = Stem;
},
{
horizontal = 1;
place = "{0, 21}";
target = up;
type = BottomGhost;
}
);
layerId = "F34C6FC4-EF5D-4900-948D-0C8CFE233EE1";
paths = (
{
closed = 1;
nodes = (
"489 481 LINE",
"403 481 LINE",
"248 91 LINE",
"94 481 LINE",
"4 481 LINE",
"206 0 LINE",
"287 0 LINE"
);
}
);
width = 514;
}
);
unicode = 03BD;
},
{
glyphname = tonos;
layers = (
{
hints = (
{
horizontal = 1;
place = "{563, 149}";
type = Stem;
},
{
place = "{88, 206}";
type = Stem;
}
);
layerId = "F34C6FC4-EF5D-4900-948D-0C8CFE233EE1";
paths = (
{
closed = 1;
nodes = (
"88 563 LINE",
"147 563 LINE",
"294 712 LINE",
"179 712 LINE"
);
}
);
width = 372;
}
);
unicode = 0384;
},
{
glyphname = Alphatonos;
layers = (
{
hints = (
{
place = "{29, 687}";
type = Stem;
},
{
horizontal = 1;
place = "{0, 21}";
target = up;
type = BottomGhost;
},
{
horizontal = 1;
place = "{197, 75}";
type = Stem;
},
{
horizontal = 1;
place = "{556, 149}";
type = Stem;
},
{
horizontal = 1;
place = "{606, 99}";
type = Stem;
}
);
layerId = "F34C6FC4-EF5D-4900-948D-0C8CFE233EE1";
paths = (
{
closed = 1;
nodes = (
"539 197 LINE",
"623 0 LINE",
"716 0 LINE",
"407 705 LINE",
"337 705 LINE",
"29 0 LINE",
"120 0 LINE",
"205 197 LINE"
);
},
{
closed = 1;
nodes = (
"43 556 LINE",
"102 556 LINE",
"249 705 LINE",
"134 705 LINE"
);
},
{
closed = 1;
nodes = (
"372 606 LINE",
"507 272 LINE",
"237 272 LINE"
);
}
);
width = 740;
}
);
unicode = 0386;
},
{
glyphname = Epsilontonos;
layers = (
{
hints = (
{
horizontal = 1;
place = "{0, 76}";
type = Stem;
},
{
horizontal = 1;
place = "{321, 76}";
type = Stem;
},
{
horizontal = 1;
place = "{629, 76}";
type = Stem;
},
{
place = "{278, 86}";
type = Stem;
}
);
layerId = "F34C6FC4-EF5D-4900-948D-0C8CFE233EE1";
paths = (
{
closed = 1;
nodes = (
"364 321 LINE",
"709 321 LINE",
"709 397 LINE",
"364 397 LINE",
"364 629 LINE",
"738 629 LINE",
"738 705 LINE",
"278 705 LINE",
"278 0 LINE",
"749 0 LINE",
"749 76 LINE",
"364 76 LINE"
);
},
{
closed = 1;
nodes = (
"0 556 LINE",
"59 556 LINE",
"206 705 LINE",
"91 705 LINE"
);
}
);
width = 787;
}
);
unicode = 0388;
},
{
glyphname = Etatonos;
layers = (
{
hints = (
{
horizontal = 1;
place = "{0, 21}";
target = up;
type = BottomGhost;
},
{
horizontal = 1;
place = "{320, 78}";
type = Stem;
},
{
horizontal = 1;
place = "{556, 149}";
type = Stem;
},
{
place = "{279, 84}";
type = Stem;
},
{
place = "{745, 84}";
type = Stem;
}
);
layerId = "F34C6FC4-EF5D-4900-948D-0C8CFE233EE1";
paths = (
{
closed = 1;
nodes = (
"279 0 LINE",
"363 0 LINE",
"363 320 LINE",
"745 320 LINE",
"745 0 LINE",
"829 0 LINE",
"829 706 LINE",
"745 706 LINE",
"745 398 LINE",
"363 398 LINE",
"363 706 LINE",
"279 706 LINE"
);
},
{
closed = 1;
nodes = (
"0 556 LINE",
"59 556 LINE",
"206 705 LINE",
"91 705 LINE"
);
}
);
width = 908;
}
);
unicode = 0389;
},
{
glyphname = Iotatonos;
layers = (
{
hints = (
{
horizontal = 1;
place = "{0, 21}";
target = up;
type = BottomGhost;
},
{
horizontal = 1;
place = "{556, 149}";
type = Stem;
},
{
place = "{282, 84}";
type = Stem;
}
);
layerId = "F34C6FC4-EF5D-4900-948D-0C8CFE233EE1";
paths = (
{
closed = 1;
nodes = (
"366 705 LINE",
"282 705 LINE",
"282 0 LINE",
"366 0 LINE"
);
},
{
closed = 1;
nodes = (
"0 556 LINE",
"59 556 LINE",
"206 705 LINE",
"91 705 LINE"
);
}
);
width = 446;
}
);
unicode = 038A;
},
{
glyphname = Omicrontonos;
layers = (
{
hints = (
{
place = "{143, 87}";
type = Stem;
},
{
place = "{787, 87}";
type = Stem;
},
{
horizontal = 1;
place = "{-14, 77}";
type = Stem;
},
{
horizontal = 1;
place = "{556, 149}";
type = Stem;
},
{
horizontal = 1;
place = "{642, 77}";
type = Stem;
}
);
layerId = "F34C6FC4-EF5D-4900-948D-0C8CFE233EE1";
paths = (
{
closed = 1;
nodes = (
"874 553 OFFCURVE",
"722 719 OFFCURVE",
"511 719 CURVE SMOOTH",
"298 719 OFFCURVE",
"143 555 OFFCURVE",
"143 351 CURVE SMOOTH",
"143 148 OFFCURVE",
"296 -14 OFFCURVE",
"509 -14 CURVE SMOOTH",
"720 -14 OFFCURVE",
"874 151 OFFCURVE",
"874 354 CURVE SMOOTH"
);
},
{
closed = 1;
nodes = (
"0 556 LINE",
"59 556 LINE",
"206 705 LINE",
"91 705 LINE"
);
},
{
closed = 1;
nodes = (
"787 191 OFFCURVE",
"671 63 OFFCURVE",
"510 63 CURVE SMOOTH",
"345 63 OFFCURVE",
"230 190 OFFCURVE",
"230 354 CURVE SMOOTH",
"230 514 OFFCURVE",
"345 642 OFFCURVE",
"510 642 CURVE SMOOTH",
"671 642 OFFCURVE",
"787 512 OFFCURVE",
"787 350 CURVE SMOOTH"
);
}
);
width = 912;
}
);
unicode = 038C;
},
{
glyphname = Upsilontonos;
layers = (
{
hints = (
{
horizontal = 1;
place = "{0, 21}";
target = up;
type = BottomGhost;
},
{
horizontal = 1;
place = "{556, 149}";
type = Stem;
},
{
place = "{548, 84}";
type = Stem;
}
);
layerId = "F34C6FC4-EF5D-4900-948D-0C8CFE233EE1";
paths = (
{
closed = 1;
nodes = (
"632 281 LINE",
"902 705 LINE",
"807 705 LINE",
"593 358 LINE",
"377 705 LINE",
"277 705 LINE",
"548 280 LINE",
"548 0 LINE",
"632 0 LINE"
);
},
{
closed = 1;
nodes = (
"0 556 LINE",
"59 556 LINE",
"206 705 LINE",
"91 705 LINE"
);
}
);
width = 908;
}
);
unicode = 038E;
},
{
glyphname = Gamma;
layers = (
{
hints = (
{
horizontal = 1;
place = "{0, 21}";
target = up;
type = BottomGhost;
},
{
horizontal = 1;
place = "{629, 76}";
type = Stem;
},
{
place = "{80, 85}";
type = Stem;
}
);
layerId = "F34C6FC4-EF5D-4900-948D-0C8CFE233EE1";
paths = (
{
closed = 1;
nodes = (
"165 629 LINE",
"537 629 LINE",
"537 705 LINE",
"80 705 LINE",
"80 0 LINE",
"165 0 LINE"
);
}
);
width = 551;
}
);
unicode = 0393;
},
{
glyphname = Theta;
layers = (
{
hints = (
{
horizontal = 1;
place = "{-14, 77}";
type = Stem;
},
{
horizontal = 1;
place = "{314, 84}";
type = Stem;
},
{
horizontal = 1;
place = "{642, 77}";
type = Stem;
},
{
place = "{38, 87}";
type = Stem;
},
{
place = "{682, 87}";
type = Stem;
}
);
layerId = "F34C6FC4-EF5D-4900-948D-0C8CFE233EE1";
paths = (
{
closed = 1;
nodes = (
"769 553 OFFCURVE",
"617 719 OFFCURVE",
"406 719 CURVE SMOOTH",
"193 719 OFFCURVE",
"38 555 OFFCURVE",
"38 351 CURVE SMOOTH",
"38 148 OFFCURVE",
"191 -14 OFFCURVE",
"404 -14 CURVE SMOOTH",
"615 -14 OFFCURVE",
"769 151 OFFCURVE",
"769 354 CURVE SMOOTH"
);
},
{
closed = 1;
nodes = (
"682 191 OFFCURVE",
"566 63 OFFCURVE",
"405 63 CURVE SMOOTH",
"240 63 OFFCURVE",
"125 190 OFFCURVE",
"125 354 CURVE SMOOTH",
"125 514 OFFCURVE",
"240 642 OFFCURVE",
"405 642 CURVE SMOOTH",
"566 642 OFFCURVE",
"682 512 OFFCURVE",
"682 350 CURVE SMOOTH"
);
},
{
closed = 1;
nodes = (
"582 314 LINE",
"582 398 LINE",
"225 398 LINE",
"225 314 LINE"
);
}
);
width = 807;
}
);
unicode = 0398;
},
{
glyphname = Iotadieresis;
layers = (
{
hints = (
{
place = "{-23, 119}";
type = Stem;
},
{
place = "{88, 84}";
type = Stem;
},
{
place = "{169, 116}";
type = Stem;
},
{
horizontal = 1;
place = "{0, 21}";
target = up;
type = BottomGhost;
},
{
horizontal = 1;
place = "{704, 118}";
type = Stem;
},
{
horizontal = 1;
place = "{705, -20}";
target = down;
type = TopGhost;
}
);
layerId = "F34C6FC4-EF5D-4900-948D-0C8CFE233EE1";
paths = (
{
closed = 1;
nodes = (
"-23 730 OFFCURVE",
"1 704 OFFCURVE",
"36 704 CURVE SMOOTH",
"68 704 OFFCURVE",
"96 730 OFFCURVE",
"96 763 CURVE SMOOTH",
"96 795 OFFCURVE",
"68 822 OFFCURVE",
"36 822 CURVE SMOOTH",
"1 822 OFFCURVE",
"-23 795 OFFCURVE",
"-23 763 CURVE SMOOTH"
);
},
{
closed = 1;
nodes = (
"169 730 OFFCURVE",
"194 704 OFFCURVE",
"226 704 CURVE SMOOTH",
"261 704 OFFCURVE",
"285 730 OFFCURVE",
"285 763 CURVE SMOOTH",
"285 795 OFFCURVE",
"261 822 OFFCURVE",
"226 822 CURVE SMOOTH",
"194 822 OFFCURVE",
"169 795 OFFCURVE",
"169 763 CURVE SMOOTH"
);
},
{
closed = 1;
nodes = (
"172 705 LINE",
"88 705 LINE",
"88 0 LINE",
"172 0 LINE"
);
}
);
width = 263;
}
);
unicode = 03AA;
},
{
glyphname = Upsilondieresis;
layers = (
{
hints = (
{
place = "{169, 119}";
type = Stem;
},
{
place = "{281, 84}";
type = Stem;
},
{
place = "{361, 116}";
type = Stem;
},
{
horizontal = 1;
place = "{0, 21}";
target = up;
type = BottomGhost;
},
{
horizontal = 1;
place = "{704, 118}";
type = Stem;
},
{
horizontal = 1;
place = "{705, -20}";
target = down;
type = TopGhost;
}
);
layerId = "F34C6FC4-EF5D-4900-948D-0C8CFE233EE1";
paths = (
{
closed = 1;
nodes = (
"169 730 OFFCURVE",
"193 704 OFFCURVE",
"228 704 CURVE SMOOTH",
"260 704 OFFCURVE",
"288 730 OFFCURVE",
"288 763 CURVE SMOOTH",
"288 795 OFFCURVE",
"260 822 OFFCURVE",
"228 822 CURVE SMOOTH",
"193 822 OFFCURVE",
"169 795 OFFCURVE",
"169 763 CURVE SMOOTH"
);
},
{
closed = 1;
nodes = (
"361 730 OFFCURVE",
"386 704 OFFCURVE",
"418 704 CURVE SMOOTH",
"453 704 OFFCURVE",
"477 730 OFFCURVE",
"477 763 CURVE SMOOTH",
"477 795 OFFCURVE",
"453 822 OFFCURVE",
"418 822 CURVE SMOOTH",
"386 822 OFFCURVE",
"361 795 OFFCURVE",
"361 763 CURVE SMOOTH"
);
},
{
closed = 1;
nodes = (
"365 281 LINE",
"635 705 LINE",
"540 705 LINE",
"326 358 LINE",
"110 705 LINE",
"10 705 LINE",
"281 280 LINE",
"281 0 LINE",
"365 0 LINE"
);
}
);
width = 639;
}
);
unicode = 03AB;
},
{
glyphname = dieresistonos;
layers = (
{
hints = (
{
place = "{4, 119}";
type = Stem;
},
{
place = "{287, 116}";
type = Stem;
},
{
horizontal = 1;
place = "{504, 118}";
type = Stem;
},
{
horizontal = 1;
place = "{507, 149}";
type = Stem;
}
);
layerId = "F34C6FC4-EF5D-4900-948D-0C8CFE233EE1";
paths = (
{
closed = 1;
nodes = (
"122 507 LINE",
"181 507 LINE",
"328 656 LINE",
"213 656 LINE"
);
},
{
closed = 1;
nodes = (
"4 530 OFFCURVE",
"28 504 OFFCURVE",
"63 504 CURVE SMOOTH",
"95 504 OFFCURVE",
"123 530 OFFCURVE",
"123 563 CURVE SMOOTH",
"123 595 OFFCURVE",
"95 622 OFFCURVE",
"63 622 CURVE SMOOTH",
"28 622 OFFCURVE",
"4 595 OFFCURVE",
"4 563 CURVE SMOOTH"
);
},
{
closed = 1;
nodes = (
"379 504 OFFCURVE",
"403 530 OFFCURVE",
"403 563 CURVE SMOOTH",
"403 595 OFFCURVE",
"379 622 OFFCURVE",
"344 622 CURVE SMOOTH",
"312 622 OFFCURVE",
"287 595 OFFCURVE",
"287 563 CURVE SMOOTH",
"287 530 OFFCURVE",
"312 504 OFFCURVE",
"344 504 CURVE SMOOTH"
);
}
);
width = 410;
}
);
unicode = 0385;
},
{
glyphname = alpha;
layers = (
{
hints = (
{
place = "{28, 83}";
type = Stem;
},
{
place = "{449, 82}";
type = Stem;
},
{
horizontal = 1;
place = "{-11, 70}";
type = Stem;
},
{
horizontal = 1;
place = "{0, 21}";
target = up;
type = BottomGhost;
},
{
horizontal = 1;
place = "{424, 70}";
type = Stem;
},
{
horizontal = 1;
place = "{482, -20}";
target = down;
type = TopGhost;
}
);
layerId = "F34C6FC4-EF5D-4900-948D-0C8CFE233EE1";
paths = (
{
closed = 1;
nodes = (
"531 0 LINE",
"531 482 LINE",
"449 482 LINE",
"449 397 LINE",
"402 458 OFFCURVE",
"346 494 OFFCURVE",
"267 494 CURVE SMOOTH",
"123 494 OFFCURVE",
"28 381 OFFCURVE",
"28 241 CURVE SMOOTH",
"28 103 OFFCURVE",
"126 -11 OFFCURVE",
"267 -11 CURVE SMOOTH",
"348 -11 OFFCURVE",
"400 27 OFFCURVE",
"449 87 CURVE"
);
},
{
closed = 1;
nodes = (
"381 424 OFFCURVE",
"454 338 OFFCURVE",
"454 242 CURVE SMOOTH",
"454 145 OFFCURVE",
"380 59 OFFCURVE",
"280 59 CURVE SMOOTH",
"179 59 OFFCURVE",
"111 145 OFFCURVE",
"111 241 CURVE SMOOTH",
"111 343 OFFCURVE",
"174 424 OFFCURVE",
"281 424 CURVE SMOOTH"
);
}
);
width = 571;
}
);
unicode = 03B1;
},
{
glyphname = rho;
layers = (
{
hints = (
{
horizontal = 1;
place = "{-10, 69}";
type = Stem;
},
{
horizontal = 1;
place = "{422, 72}";
type = Stem;
},
{
place = "{71, 82}";
type = Stem;
},
{
place = "{494, 82}";
type = Stem;
}
);
layerId = "F34C6FC4-EF5D-4900-948D-0C8CFE233EE1";
paths = (
{
closed = 1;
nodes = (
"71 -188 LINE",
"153 -188 LINE",
"153 84 LINE",
"197 24 OFFCURVE",
"259 -10 OFFCURVE",
"336 -10 CURVE SMOOTH",
"481 -10 OFFCURVE",
"576 104 OFFCURVE",
"576 242 CURVE SMOOTH",
"576 391 OFFCURVE",
"469 494 OFFCURVE",
"325 494 CURVE SMOOTH",
"178 494 OFFCURVE",
"71 390 OFFCURVE",
"71 242 CURVE SMOOTH"
);
},
{
closed = 1;
nodes = (
"494 144 OFFCURVE",
"430 59 OFFCURVE",
"326 59 CURVE SMOOTH",
"225 59 OFFCURVE",
"149 133 OFFCURVE",
"149 235 CURVE SMOOTH",
"149 343 OFFCURVE",
"223 422 OFFCURVE",
"322 422 CURVE SMOOTH",
"425 422 OFFCURVE",
"494 342 OFFCURVE",
"494 242 CURVE SMOOTH"
);
}
);
width = 616;
}
);
unicode = 03C1;
},
{
glyphname = iota;
layers = (
{
hints = (
{
horizontal = 1;
place = "{0, 21}";
target = up;
type = BottomGhost;
},
{
horizontal = 1;
place = "{482, -20}";
target = down;
type = TopGhost;
},
{
place = "{76, 81}";
type = Stem;
}
);
layerId = "F34C6FC4-EF5D-4900-948D-0C8CFE233EE1";
paths = (
{
closed = 1;
nodes = (
"157 482 LINE",
"76 482 LINE",
"76 0 LINE",
"157 0 LINE"
);
}
);
width = 186;
}
);
unicode = 03B9;
},
{
glyphname = eta;
layers = (
{
hints = (
{
place = "{62, 82}";
type = Stem;
},
{
place = "{394, 82}";
type = Stem;
},
{
horizontal = 1;
place = "{0, 21}";
target = up;
type = BottomGhost;
},
{
horizontal = 1;
place = "{421, 72}";
type = Stem;
},
{
horizontal = 1;
place = "{482, -20}";
target = down;
type = TopGhost;
}
);
layerId = "F34C6FC4-EF5D-4900-948D-0C8CFE233EE1";
paths = (
{
closed = 1;
nodes = (
"233 493 OFFCURVE",
"182 464 OFFCURVE",
"146 421 CURVE",
"62 482 LINE",
"62 0 LINE",
"144 0 LINE",
"144 280 LINE SMOOTH",
"144 390 OFFCURVE",
"221 421 OFFCURVE",
"276 421 CURVE SMOOTH",
"333 421 OFFCURVE",
"394 388 OFFCURVE",
"394 280 CURVE SMOOTH",
"394 0 LINE",
"476 0 LINE",
"476 303 LINE SMOOTH",
"476 428 OFFCURVE",
"408 493 OFFCURVE",
"302 493 CURVE SMOOTH"
);
}
);
width = 539;
}
);
unicode = 03B7;
},
{
glyphname = gamma;
layers = (
{
hints = (
{
horizontal = 1;
place = "{-188, 669}";
type = Stem;
},
{
place = "{196, 82}";
type = Stem;
}
);
layerId = "F34C6FC4-EF5D-4900-948D-0C8CFE233EE1";
paths = (
{
closed = 1;
nodes = (
"278 2 LINE",
"479 481 LINE",
"393 481 LINE",
"238 91 LINE",
"84 481 LINE",
"-6 481 LINE",
"196 0 LINE",
"196 -188 LINE",
"278 -188 LINE"
);
}
);
width = 501;
}
);
unicode = 03B3;
},
{
glyphname = upsilon;
layers = (
{
hints = (
{
horizontal = 1;
place = "{-11, 72}";
type = Stem;
},
{
horizontal = 1;
place = "{483, -20}";
target = down;
type = TopGhost;
},
{
place = "{45, 82}";
type = Stem;
},
{
place = "{377, 82}";
type = Stem;
}
);
layerId = "F34C6FC4-EF5D-4900-948D-0C8CFE233EE1";
paths = (
{
closed = 1;
nodes = (
"459 483 LINE",
"377 483 LINE",
"377 193 LINE SMOOTH",
"377 121 OFFCURVE",
"329 61 OFFCURVE",
"252 61 CURVE SMOOTH",
"168 61 OFFCURVE",
"127 119 OFFCURVE",
"127 195 CURVE SMOOTH",
"127 483 LINE",
"45 483 LINE",
"45 218 LINE SMOOTH",
"45 70 OFFCURVE",
"110 -11 OFFCURVE",
"254 -11 CURVE SMOOTH",
"396 -11 OFFCURVE",
"459 77 OFFCURVE",
"459 220 CURVE SMOOTH"
);
}
);
width = 521;
}
);
unicode = 03C5;
},
{
glyphname = beta;
layers = (
{
hints = (
{
place = "{74, 82}";
type = Stem;
},
{
place = "{446, 83}";
type = Stem;
},
{
place = "{489, 83}";
type = Stem;
},
{
horizontal = 1;
place = "{-10, 72}";
type = Stem;
},
{
horizontal = 1;
place = "{664, 72}";
type = Stem;
}
);
layerId = "F34C6FC4-EF5D-4900-948D-0C8CFE233EE1";
paths = (
{
closed = 1;
nodes = (
"473 -10 OFFCURVE",
"572 83 OFFCURVE",
"572 205 CURVE SMOOTH",
"572 303 OFFCURVE",
"510 384 OFFCURVE",
"401 392 CURVE",
"478 427 OFFCURVE",
"529 474 OFFCURVE",
"529 555 CURVE SMOOTH",
"529 664 OFFCURVE",
"443 736 OFFCURVE",
"312 736 CURVE SMOOTH",
"147 736 OFFCURVE",
"74 627 OFFCURVE",
"74 503 CURVE SMOOTH",
"74 -188 LINE",
"156 -188 LINE",
"156 84 LINE",
"200 25 OFFCURVE",
"270 -10 OFFCURVE",
"350 -10 CURVE SMOOTH"
);
},
{
closed = 1;
nodes = (
"238 62 OFFCURVE",
"156 138 OFFCURVE",
"156 241 CURVE SMOOTH",
"156 502 LINE SMOOTH",
"156 584 OFFCURVE",
"203 664 OFFCURVE",
"311 664 CURVE SMOOTH",
"390 664 OFFCURVE",
"446 621 OFFCURVE",
"446 547 CURVE SMOOTH",
"446 466 OFFCURVE",
"382 431 OFFCURVE",
"293 415 CURVE",
"293 353 LINE",
"424 346 OFFCURVE",
"489 289 OFFCURVE",
"489 205 CURVE SMOOTH",
"489 121 OFFCURVE",
"426 62 OFFCURVE",
"346 62 CURVE SMOOTH"
);
}
);
width = 612;
}
);
unicode = 03B2;
},
{
glyphname = pi;
layers = (
{
hints = (
{
horizontal = 1;
place = "{0, 21}";
target = up;
type = BottomGhost;
},
{
horizontal = 1;
place = "{414, 68}";
type = Stem;
},
{
place = "{62, 82}";
type = Stem;
},
{
place = "{384, 82}";
type = Stem;
}
);
layerId = "F34C6FC4-EF5D-4900-948D-0C8CFE233EE1";
paths = (
{
closed = 1;
nodes = (
"62 482 LINE",
"62 0 LINE",
"144 0 LINE",
"144 414 LINE",
"384 414 LINE",
"384 0 LINE",
"466 0 LINE",
"466 482 LINE"
);
}
);
width = 529;
}
);
unicode = 03C0;
},
{
glyphname = uni03BC;
layers = (
{
hints = (
{
place = "{76, 82}";
type = Stem;
},
{
place = "{408, 82}";
type = Stem;
},
{
horizontal = 1;
place = "{-10, 71}";
type = Stem;
},
{
horizontal = 1;
place = "{0, 21}";
target = up;
type = BottomGhost;
},
{
horizontal = 1;
place = "{483, -20}";
target = down;
type = TopGhost;
}
);
layerId = "F34C6FC4-EF5D-4900-948D-0C8CFE233EE1";
paths = (
{
closed = 1;
nodes = (
"158 64 LINE",
"183 13 OFFCURVE",
"227 -10 OFFCURVE",
"274 -10 CURVE SMOOTH",
"328 -10 OFFCURVE",
"380 22 OFFCURVE",
"407 62 CURVE",
"490 0 LINE",
"490 483 LINE",
"408 483 LINE",
"408 204 LINE SMOOTH",
"408 107 OFFCURVE",
"347 61 OFFCURVE",
"274 61 CURVE SMOOTH",
"219 61 OFFCURVE",
"158 101 OFFCURVE",
"158 204 CURVE SMOOTH",
"158 483 LINE",
"76 483 LINE",
"76 -188 LINE",
"158 -188 LINE"
);
}
);
width = 518;
}
);
unicode = 03BC;
},
{
glyphname = tau;
layers = (
{
hints = (
{
place = "{122, 80}";
type = Stem;
},
{
horizontal = 1;
place = "{-11, 70}";
type = Stem;
},
{
horizontal = 1;
place = "{0, 21}";
target = up;
type = BottomGhost;
},
{
horizontal = 1;
place = "{412, 70}";
type = Stem;
}
);
layerId = "F34C6FC4-EF5D-4900-948D-0C8CFE233EE1";
paths = (
{
closed = 1;
nodes = (
"-6 482 LINE",
"-6 412 LINE",
"122 412 LINE",
"122 120 LINE SMOOTH",
"122 39 OFFCURVE",
"168 -11 OFFCURVE",
"236 -11 CURVE SMOOTH",
"255 -11 OFFCURVE",
"270 -7 OFFCURVE",
"285 0 CURVE",
"285 69 LINE",
"276 62 OFFCURVE",
"262 59 OFFCURVE",
"250 59 CURVE SMOOTH",
"214 59 OFFCURVE",
"202 86 OFFCURVE",
"202 123 CURVE SMOOTH",
"202 412 LINE",
"335 412 LINE",
"335 482 LINE"
);
}
);
width = 344;
}
);
unicode = 03C4;
},
{
glyphname = Phi;
layers = (
{
hints = (
{
place = "{38, 87}";
type = Stem;
},
{
place = "{382, 84}";
type = Stem;
},
{
place = "{719, 87}";
type = Stem;
},
{
horizontal = 1;
place = "{-5, 134}";
type = Stem;
},
{
horizontal = 1;
place = "{52, 77}";
type = Stem;
},
{
horizontal = 1;
place = "{55, 74}";
type = Stem;
},
{
horizontal = 1;
place = "{574, 77}";
type = Stem;
},
{
horizontal = 1;
place = "{574, 136}";
type = Stem;
}
);
layerId = "F34C6FC4-EF5D-4900-948D-0C8CFE233EE1";
paths = (
{
closed = 1;
nodes = (
"466 710 LINE",
"382 710 LINE",
"382 651 LINE",
"363 650 OFFCURVE",
"346 648 OFFCURVE",
"327 645 CURVE SMOOTH",
"135 616 OFFCURVE",
"38 495 OFFCURVE",
"38 350 CURVE SMOOTH",
"38 205 OFFCURVE",
"135 87 OFFCURVE",
"327 58 CURVE SMOOTH",
"346 55 OFFCURVE",
"363 53 OFFCURVE",
"382 52 CURVE",
"382 -5 LINE",
"466 -5 LINE",
"466 52 LINE",
"485 53 OFFCURVE",
"503 55 OFFCURVE",
"520 58 CURVE SMOOTH",
"709 90 OFFCURVE",
"806 208 OFFCURVE",
"806 352 CURVE SMOOTH",
"806 492 OFFCURVE",
"709 616 OFFCURVE",
"520 645 CURVE SMOOTH",
"503 648 OFFCURVE",
"485 650 OFFCURVE",
"466 651 CURVE"
);
},
{
closed = 1;
nodes = (
"466 574 LINE",
"641 561 OFFCURVE",
"719 472 OFFCURVE",
"719 349 CURVE SMOOTH",
"719 227 OFFCURVE",
"642 142 OFFCURVE",
"466 129 CURVE"
);
},
{
closed = 1;
nodes = (
"382 129 LINE",
"210 142 OFFCURVE",
"125 228 OFFCURVE",
"125 352 CURVE SMOOTH",
"125 475 OFFCURVE",
"210 563 OFFCURVE",
"382 574 CURVE"
);
}
);
width = 844;
}
);
unicode = 03A6;
},
{
glyphname = chi;
layers = (
{
hints = (
{
horizontal = 1;
place = "{-188, 669}";
type = Stem;
},
{
place = "{12, 478}";
type = Stem;
}
);
layerId = "F34C6FC4-EF5D-4900-948D-0C8CFE233EE1";
paths = (
{
closed = 1;
nodes = (
"252 252 LINE",
"119 481 LINE",
"25 481 LINE",
"207 171 LINE",
"12 -188 LINE",
"102 -188 LINE",
"249 93 LINE",
"396 -188 LINE",
"490 -188 LINE",
"294 176 LINE",
"476 481 LINE",
"386 481 LINE"
);
}
);
width = 494;
}
);
unicode = 03C7;
},
{
glyphname = sigma;
layers = (
{
hints = (
{
horizontal = 1;
place = "{-10, 69}";
type = Stem;
},
{
horizontal = 1;
place = "{412, 70}";
type = Stem;
},
{
place = "{40, 83}";
type = Stem;
},
{
place = "{473, 83}";
type = Stem;
}
);
layerId = "F34C6FC4-EF5D-4900-948D-0C8CFE233EE1";
paths = (
{
closed = 1;
nodes = (
"604 412 LINE",
"604 482 LINE",
"318 482 LINE SMOOTH",
"140 482 OFFCURVE",
"40 357 OFFCURVE",
"40 234 CURVE SMOOTH",
"40 102 OFFCURVE",
"148 -10 OFFCURVE",
"296 -10 CURVE SMOOTH",
"428 -10 OFFCURVE",
"556 100 OFFCURVE",
"556 236 CURVE SMOOTH",
"556 299 OFFCURVE",
"530 369 OFFCURVE",
"462 412 CURVE"
);
},
{
closed = 1;
nodes = (
"473 136 OFFCURVE",
"397 59 OFFCURVE",
"297 59 CURVE SMOOTH",
"198 59 OFFCURVE",
"123 143 OFFCURVE",
"123 236 CURVE SMOOTH",
"123 332 OFFCURVE",
"192 413 OFFCURVE",
"299 413 CURVE SMOOTH",
"405 413 OFFCURVE",
"473 339 OFFCURVE",
"473 235 CURVE SMOOTH"
);
}
);
width = 616;
}
);
unicode = 03C3;
},
{
glyphname = theta;
layers = (
{
hints = (
{
horizontal = 1;
place = "{-10, 69}";
type = Stem;
},
{
horizontal = 1;
place = "{344, 68}";
type = Stem;
},
{
horizontal = 1;
place = "{667, 69}";
type = Stem;
},
{
place = "{40, 85}";
type = Stem;
},
{
place = "{471, 85}";
type = Stem;
}
);
layerId = "F34C6FC4-EF5D-4900-948D-0C8CFE233EE1";
paths = (
{
closed = 1;
nodes = (
"96 736 OFFCURVE",
"40 521 OFFCURVE",
"40 366 CURVE SMOOTH",
"40 356 LINE SMOOTH",
"40 339 OFFCURVE",
"41 323 OFFCURVE",
"42 307 CURVE SMOOTH",
"58 103 OFFCURVE",
"157 -10 OFFCURVE",
"297 -10 CURVE SMOOTH",
"445 -10 OFFCURVE",
"537 108 OFFCURVE",
"553 300 CURVE",
"556 321 OFFCURVE",
"556 344 OFFCURVE",
"556 367 CURVE SMOOTH",
"556 596 OFFCURVE",
"450 736 OFFCURVE",
"298 736 CURVE SMOOTH"
);
},
{
closed = 1;
nodes = (
"125 412 LINE",
"129 484 OFFCURVE",
"145 543 OFFCURVE",
"172 586 CURVE SMOOTH",
"199 630 OFFCURVE",
"242 667 OFFCURVE",
"297 667 CURVE SMOOTH",
"344 667 OFFCURVE",
"387 641 OFFCURVE",
"420 590 CURVE SMOOTH",
"448 547 OFFCURVE",
"467 488 OFFCURVE",
"471 412 CURVE"
);
},
{
closed = 1;
nodes = (
"471 344 LINE",
"468 272 OFFCURVE",
"456 215 OFFCURVE",
"437 168 CURVE SMOOTH",
"434 161 OFFCURVE",
"432 156 OFFCURVE",
"429 151 CURVE SMOOTH",
"402 100 OFFCURVE",
"359 59 OFFCURVE",
"298 59 CURVE SMOOTH",
"254 59 OFFCURVE",
"212 84 OFFCURVE",
"181 132 CURVE SMOOTH",
"150 180 OFFCURVE",
"129 251 OFFCURVE",
"125 344 CURVE"
);
}
);
width = 594;
}
);
unicode = 03B8;
},
{
glyphname = lambda;
layers = (
{
hints = (
{
horizontal = 1;
place = "{0, 21}";
target = up;
type = BottomGhost;
},
{
horizontal = 1;
place = "{673, 63}";
type = Stem;
},
{
place = "{7, 489}";
type = Stem;
}
);
layerId = "F34C6FC4-EF5D-4900-948D-0C8CFE233EE1";
paths = (
{
closed = 1;
nodes = (
"202 508 LINE",
"7 0 LINE",
"96 0 LINE",
"244 411 LINE",
"410 0 LINE",
"496 0 LINE",
"240 606 LINE",
"213 667 OFFCURVE",
"184 736 OFFCURVE",
"107 736 CURVE SMOOTH",
"84 736 OFFCURVE",
"63 732 OFFCURVE",
"40 728 CURVE",
"60 661 LINE",
"73 668 OFFCURVE",
"87 673 OFFCURVE",
"102 673 CURVE SMOOTH",
"139 673 OFFCURVE",
"191 530 OFFCURVE",
"202 509 CURVE"
);
}
);
width = 511;
}
);
unicode = 03BB;
},
{
glyphname = psi;
layers = (
{
hints = (
{
horizontal = 1;
place = "{-10, 71}";
type = Stem;
},
{
horizontal = 1;
place = "{483, -20}";
target = down;
type = TopGhost;
},
{
place = "{62, 82}";
type = Stem;
},
{
place = "{309, 83}";
type = Stem;
},
{
place = "{555, 82}";
type = Stem;
}
);
layerId = "F34C6FC4-EF5D-4900-948D-0C8CFE233EE1";
paths = (
{
closed = 1;
nodes = (
"310 -188 LINE",
"392 -188 LINE",
"392 -10 LINE",
"525 -10 OFFCURVE",
"637 55 OFFCURVE",
"637 234 CURVE SMOOTH",
"637 483 LINE",
"555 483 LINE",
"555 233 LINE SMOOTH",
"555 100 OFFCURVE",
"460 61 OFFCURVE",
"392 61 CURVE",
"392 732 LINE",
"309 732 LINE",
"309 61 LINE",
"236 61 OFFCURVE",
"144 87 OFFCURVE",
"144 235 CURVE SMOOTH",
"144 483 LINE",
"62 483 LINE",
"62 232 LINE SMOOTH",
"62 75 OFFCURVE",
"155 -10 OFFCURVE",
"310 -10 CURVE"
);
}
);
width = 685;
}
);
unicode = 03C8;
},
{
glyphname = epsilon;
layers = (
{
hints = (
{
place = "{41, 83}";
type = Stem;
},
{
place = "{61, 83}";
type = Stem;
},
{
horizontal = 1;
place = "{-10, 69}";
type = Stem;
},
{
horizontal = 1;
place = "{223, 68}";
type = Stem;
},
{
horizontal = 1;
place = "{425, 69}";
type = Stem;
}
);
layerId = "F34C6FC4-EF5D-4900-948D-0C8CFE233EE1";
paths = (
{
closed = 1;
nodes = (
"175 59 OFFCURVE",
"124 93 OFFCURVE",
"124 140 CURVE SMOOTH",
"124 183 OFFCURVE",
"167 223 OFFCURVE",
"264 223 CURVE SMOOTH",
"295 223 LINE",
"295 291 LINE",
"263 291 LINE SMOOTH",
"188 291 OFFCURVE",
"144 320 OFFCURVE",
"144 364 CURVE SMOOTH",
"144 403 OFFCURVE",
"184 425 OFFCURVE",
"237 425 CURVE SMOOTH",
"273 425 OFFCURVE",
"312 416 OFFCURVE",
"347 393 CURVE",
"368 466 LINE",
"325 483 OFFCURVE",
"282 494 OFFCURVE",
"235 494 CURVE SMOOTH",
"139 494 OFFCURVE",
"61 447 OFFCURVE",
"61 370 CURVE SMOOTH",
"61 322 OFFCURVE",
"92 277 OFFCURVE",
"156 254 CURVE",
"83 237 OFFCURVE",
"41 191 OFFCURVE",
"41 134 CURVE SMOOTH",
"41 50 OFFCURVE",
"130 -10 OFFCURVE",
"238 -10 CURVE SMOOTH",
"285 -10 OFFCURVE",
"332 1 OFFCURVE",
"379 20 CURVE",
"361 90 LINE",
"316 66 OFFCURVE",
"274 59 OFFCURVE",
"243 59 CURVE SMOOTH"
);
}
);
width = 400;
}
);
unicode = 03B5;
},
{
glyphname = delta;
layers = (
{
hints = (
{
horizontal = 1;
place = "{-10, 69}";
type = Stem;
},
{
horizontal = 1;
place = "{407, 72}";
type = Stem;
},
{
horizontal = 1;
place = "{666, 70}";
type = Stem;
},
{
place = "{40, 83}";
type = Stem;
},
{
place = "{473, 83}";
type = Stem;
}
);
layerId = "F34C6FC4-EF5D-4900-948D-0C8CFE233EE1";
paths = (
{
closed = 1;
nodes = (
"214 666 LINE",
"488 666 LINE",
"488 736 LINE",
"90 736 LINE",
"90 666 LINE",
"308 478 LINE",
"299 479 OFFCURVE",
"291 479 OFFCURVE",
"283 479 CURVE SMOOTH",
"224 479 OFFCURVE",
"164 459 OFFCURVE",
"116 415 CURVE SMOOTH",
"68 371 OFFCURVE",
"40 308 OFFCURVE",
"40 241 CURVE SMOOTH",
"40 97 OFFCURVE",
"156 -10 OFFCURVE",
"296 -10 CURVE SMOOTH",
"439 -10 OFFCURVE",
"556 101 OFFCURVE",
"556 241 CURVE SMOOTH",
"556 354 OFFCURVE",
"482 427 OFFCURVE",
"408 493 CURVE SMOOTH"
);
},
{
closed = 1;
nodes = (
"473 149 OFFCURVE",
"402 59 OFFCURVE",
"297 59 CURVE SMOOTH",
"192 59 OFFCURVE",
"123 145 OFFCURVE",
"123 240 CURVE SMOOTH",
"123 340 OFFCURVE",
"202 407 OFFCURVE",
"305 407 CURVE SMOOTH",
"414 407 OFFCURVE",
"473 326 OFFCURVE",
"473 240 CURVE SMOOTH"
);
}
);
width = 596;
}
);
unicode = 03B4;
},
{
glyphname = alphatonos;
layers = (
{
hints = (
{
place = "{28, 83}";
type = Stem;
},
{
place = "{449, 82}";
type = Stem;
},
{
horizontal = 1;
place = "{-11, 70}";
type = Stem;
},
{
horizontal = 1;
place = "{0, 21}";
target = up;
type = BottomGhost;
},
{
horizontal = 1;
place = "{424, 70}";
type = Stem;
},
{
horizontal = 1;
place = "{482, -20}";
target = down;
type = TopGhost;
},
{
horizontal = 1;
place = "{563, 149}";
type = Stem;
}
);
layerId = "F34C6FC4-EF5D-4900-948D-0C8CFE233EE1";
paths = (
{
closed = 1;
nodes = (
"267 563 LINE",
"326 563 LINE",
"473 712 LINE",
"358 712 LINE"
);
},
{
closed = 1;
nodes = (
"531 0 LINE",
"531 482 LINE",
"449 482 LINE",
"449 397 LINE",
"402 458 OFFCURVE",
"346 494 OFFCURVE",
"267 494 CURVE SMOOTH",
"123 494 OFFCURVE",
"28 381 OFFCURVE",
"28 241 CURVE SMOOTH",
"28 103 OFFCURVE",
"126 -11 OFFCURVE",
"267 -11 CURVE SMOOTH",
"348 -11 OFFCURVE",
"400 27 OFFCURVE",
"449 87 CURVE"
);
},
{
closed = 1;
nodes = (
"381 424 OFFCURVE",
"454 338 OFFCURVE",
"454 242 CURVE SMOOTH",
"454 145 OFFCURVE",
"380 59 OFFCURVE",
"280 59 CURVE SMOOTH",
"179 59 OFFCURVE",
"111 145 OFFCURVE",
"111 241 CURVE SMOOTH",
"111 343 OFFCURVE",
"174 424 OFFCURVE",
"281 424 CURVE SMOOTH"
);
}
);
width = 571;
}
);
unicode = 03AC;
},
{
glyphname = etatonos;
layers = (
{
hints = (
{
place = "{62, 82}";
type = Stem;
},
{
place = "{394, 82}";
type = Stem;
},
{
horizontal = 1;
place = "{0, 21}";
target = up;
type = BottomGhost;
},
{
horizontal = 1;
place = "{421, 72}";
type = Stem;
},
{
horizontal = 1;
place = "{482, -20}";
target = down;
type = TopGhost;
},
{
horizontal = 1;
place = "{563, 149}";
type = Stem;
}
);
layerId = "F34C6FC4-EF5D-4900-948D-0C8CFE233EE1";
paths = (
{
closed = 1;
nodes = (
"234 563 LINE",
"293 563 LINE",
"440 712 LINE",
"325 712 LINE"
);
},
{
closed = 1;
nodes = (
"233 493 OFFCURVE",
"182 464 OFFCURVE",
"146 421 CURVE",
"62 482 LINE",
"62 0 LINE",
"144 0 LINE",
"144 280 LINE SMOOTH",
"144 390 OFFCURVE",
"221 421 OFFCURVE",
"276 421 CURVE SMOOTH",
"333 421 OFFCURVE",
"394 388 OFFCURVE",
"394 280 CURVE SMOOTH",
"394 0 LINE",
"476 0 LINE",
"476 303 LINE SMOOTH",
"476 428 OFFCURVE",
"408 493 OFFCURVE",
"302 493 CURVE SMOOTH"
);
}
);
width = 539;
}
);
unicode = 03AE;
},
{
glyphname = iotatonos;
layers = (
{
hints = (
{
horizontal = 1;
place = "{0, 21}";
target = up;
type = BottomGhost;
},
{
horizontal = 1;
place = "{482, -20}";
target = down;
type = TopGhost;
},
{
horizontal = 1;
place = "{563, 149}";
type = Stem;
},
{
place = "{76, 81}";
type = Stem;
}
);
layerId = "F34C6FC4-EF5D-4900-948D-0C8CFE233EE1";
paths = (
{
closed = 1;
nodes = (
"83 563 LINE",
"142 563 LINE",
"289 712 LINE",
"174 712 LINE"
);
},
{
closed = 1;
nodes = (
"157 482 LINE",
"76 482 LINE",
"76 0 LINE",
"157 0 LINE"
);
}
);
width = 303;
}
);
unicode = 03AF;
},
{
glyphname = omicrontonos;
layers = (
{
hints = (
{
horizontal = 1;
place = "{-10, 69}";
type = Stem;
},
{
horizontal = 1;
place = "{425, 69}";
type = Stem;
},
{
horizontal = 1;
place = "{563, 149}";
type = Stem;
},
{
place = "{40, 83}";
type = Stem;
},
{
place = "{473, 83}";
type = Stem;
}
);
layerId = "F34C6FC4-EF5D-4900-948D-0C8CFE233EE1";
paths = (
{
closed = 1;
nodes = (
"278 563 LINE",
"337 563 LINE",
"484 712 LINE",
"369 712 LINE"
);
},
{
closed = 1;
nodes = (
"556 383 OFFCURVE",
"446 494 OFFCURVE",
"297 494 CURVE SMOOTH",
"148 494 OFFCURVE",
"40 382 OFFCURVE",
"40 240 CURVE SMOOTH",
"40 99 OFFCURVE",
"148 -10 OFFCURVE",
"296 -10 CURVE SMOOTH",
"446 -10 OFFCURVE",
"556 102 OFFCURVE",
"556 242 CURVE SMOOTH"
);
},
{
closed = 1;
nodes = (
"473 142 OFFCURVE",
"399 59 OFFCURVE",
"297 59 CURVE SMOOTH",
"198 59 OFFCURVE",
"123 138 OFFCURVE",
"123 242 CURVE SMOOTH",
"123 343 OFFCURVE",
"192 425 OFFCURVE",
"296 425 CURVE SMOOTH",
"400 425 OFFCURVE",
"473 342 OFFCURVE",
"473 241 CURVE SMOOTH"
);
}
);
width = 596;
}
);
unicode = 03CC;
},
{
glyphname = upsilontonos;
layers = (
{
hints = (
{
horizontal = 1;
place = "{-11, 72}";
type = Stem;
},
{
horizontal = 1;
place = "{483, -20}";
target = down;
type = TopGhost;
},
{
horizontal = 1;
place = "{563, 149}";
type = Stem;
},
{
place = "{45, 82}";
type = Stem;
},
{
place = "{377, 82}";
type = Stem;
}
);
layerId = "F34C6FC4-EF5D-4900-948D-0C8CFE233EE1";
paths = (
{
closed = 1;
nodes = (
"235 563 LINE",
"294 563 LINE",
"441 712 LINE",
"326 712 LINE"
);
},
{
closed = 1;
nodes = (
"459 483 LINE",
"377 483 LINE",
"377 193 LINE SMOOTH",
"377 121 OFFCURVE",
"329 61 OFFCURVE",
"252 61 CURVE SMOOTH",
"168 61 OFFCURVE",
"127 119 OFFCURVE",
"127 195 CURVE SMOOTH",
"127 483 LINE",
"45 483 LINE",
"45 218 LINE SMOOTH",
"45 70 OFFCURVE",
"110 -11 OFFCURVE",
"254 -11 CURVE SMOOTH",
"396 -11 OFFCURVE",
"459 77 OFFCURVE",
"459 220 CURVE SMOOTH"
);
}
);
width = 521;
}
);
unicode = 03CD;
},
{
glyphname = iotadieresistonos;
layers = (
{
hints = (
{
place = "{-43, 119}";
type = Stem;
},
{
place = "{112, 81}";
type = Stem;
},
{
place = "{240, 116}";
type = Stem;
},
{
horizontal = 1;
place = "{0, 21}";
target = up;
type = BottomGhost;
},
{
horizontal = 1;
place = "{482, -20}";
target = down;
type = TopGhost;
},
{
horizontal = 1;
place = "{544, 118}";
type = Stem;
},
{
horizontal = 1;
place = "{547, 149}";
type = Stem;
}
);
layerId = "F34C6FC4-EF5D-4900-948D-0C8CFE233EE1";
paths = (
{
closed = 1;
nodes = (
"75 547 LINE",
"134 547 LINE",
"281 696 LINE",
"166 696 LINE"
);
},
{
closed = 1;
nodes = (
"-43 570 OFFCURVE",
"-19 544 OFFCURVE",
"16 544 CURVE SMOOTH",
"48 544 OFFCURVE",
"76 570 OFFCURVE",
"76 603 CURVE SMOOTH",
"76 635 OFFCURVE",
"48 662 OFFCURVE",
"16 662 CURVE SMOOTH",
"-19 662 OFFCURVE",
"-43 635 OFFCURVE",
"-43 603 CURVE SMOOTH"
);
},
{
closed = 1;
nodes = (
"332 544 OFFCURVE",
"356 570 OFFCURVE",
"356 603 CURVE SMOOTH",
"356 635 OFFCURVE",
"332 662 OFFCURVE",
"297 662 CURVE SMOOTH",
"265 662 OFFCURVE",
"240 635 OFFCURVE",
"240 603 CURVE SMOOTH",
"240 570 OFFCURVE",
"265 544 OFFCURVE",
"297 544 CURVE SMOOTH"
);
},
{
closed = 1;
nodes = (
"193 482 LINE",
"112 482 LINE",
"112 0 LINE",
"193 0 LINE"
);
}
);
width = 297;
}
);
unicode = 0390;
},
{
glyphname = iotadieresis;
layers = (
{
hints = (
{
place = "{-22, 119}";
type = Stem;
},
{
place = "{91, 81}";
type = Stem;
},
{
place = "{170, 116}";
type = Stem;
},
{
horizontal = 1;
place = "{0, 21}";
target = up;
type = BottomGhost;
},
{
horizontal = 1;
place = "{482, -20}";
target = down;
type = TopGhost;
},
{
horizontal = 1;
place = "{514, 118}";
type = Stem;
}
);
layerId = "F34C6FC4-EF5D-4900-948D-0C8CFE233EE1";
paths = (
{
closed = 1;
nodes = (
"-22 540 OFFCURVE",
"2 514 OFFCURVE",
"37 514 CURVE SMOOTH",
"69 514 OFFCURVE",
"97 540 OFFCURVE",
"97 573 CURVE SMOOTH",
"97 605 OFFCURVE",
"69 632 OFFCURVE",
"37 632 CURVE SMOOTH",
"2 632 OFFCURVE",
"-22 605 OFFCURVE",
"-22 573 CURVE SMOOTH"
);
},
{
closed = 1;
nodes = (
"170 540 OFFCURVE",
"195 514 OFFCURVE",
"227 514 CURVE SMOOTH",
"262 514 OFFCURVE",
"286 540 OFFCURVE",
"286 573 CURVE SMOOTH",
"286 605 OFFCURVE",
"262 632 OFFCURVE",
"227 632 CURVE SMOOTH",
"195 632 OFFCURVE",
"170 605 OFFCURVE",
"170 573 CURVE SMOOTH"
);
},
{
closed = 1;
nodes = (
"172 482 LINE",
"91 482 LINE",
"91 0 LINE",
"172 0 LINE"
);
}
);
width = 260;
}
);
unicode = 03CA;
},
{
glyphname = upsilondieresis;
layers = (
{
hints = (
{
place = "{45, 82}";
type = Stem;
},
{
place = "{98, 119}";
type = Stem;
},
{
place = "{290, 116}";
type = Stem;
},
{
place = "{377, 82}";
type = Stem;
},
{
horizontal = 1;
place = "{-11, 72}";
type = Stem;
},
{
horizontal = 1;
place = "{483, -20}";
target = down;
type = TopGhost;
},
{
horizontal = 1;
place = "{514, 118}";
type = Stem;
}
);
layerId = "F34C6FC4-EF5D-4900-948D-0C8CFE233EE1";
paths = (
{
closed = 1;
nodes = (
"98 540 OFFCURVE",
"122 514 OFFCURVE",
"157 514 CURVE SMOOTH",
"189 514 OFFCURVE",
"217 540 OFFCURVE",
"217 573 CURVE SMOOTH",
"217 605 OFFCURVE",
"189 632 OFFCURVE",
"157 632 CURVE SMOOTH",
"122 632 OFFCURVE",
"98 605 OFFCURVE",
"98 573 CURVE SMOOTH"
);
},
{
closed = 1;
nodes = (
"290 540 OFFCURVE",
"315 514 OFFCURVE",
"347 514 CURVE SMOOTH",
"382 514 OFFCURVE",
"406 540 OFFCURVE",
"406 573 CURVE SMOOTH",
"406 605 OFFCURVE",
"382 632 OFFCURVE",
"347 632 CURVE SMOOTH",
"315 632 OFFCURVE",
"290 605 OFFCURVE",
"290 573 CURVE SMOOTH"
);
},
{
closed = 1;
nodes = (
"459 483 LINE",
"377 483 LINE",
"377 193 LINE SMOOTH",
"377 121 OFFCURVE",
"329 61 OFFCURVE",
"252 61 CURVE SMOOTH",
"168 61 OFFCURVE",
"127 119 OFFCURVE",
"127 195 CURVE SMOOTH",
"127 483 LINE",
"45 483 LINE",
"45 218 LINE SMOOTH",
"45 70 OFFCURVE",
"110 -11 OFFCURVE",
"254 -11 CURVE SMOOTH",
"396 -11 OFFCURVE",
"459 77 OFFCURVE",
"459 220 CURVE SMOOTH"
);
}
);
width = 521;
}
);
unicode = 03CB;
},
{
glyphname = upsilondieresistonos;
layers = (
{
hints = (
{
place = "{45, 82}";
type = Stem;
},
{
place = "{67, 119}";
type = Stem;
},
{
place = "{350, 116}";
type = Stem;
},
{
place = "{377, 82}";
type = Stem;
},
{
horizontal = 1;
place = "{-11, 72}";
type = Stem;
},
{
horizontal = 1;
place = "{483, -20}";
target = down;
type = TopGhost;
},
{
horizontal = 1;
place = "{544, 118}";
type = Stem;
},
{
horizontal = 1;
place = "{547, 149}";
type = Stem;
}
);
layerId = "F34C6FC4-EF5D-4900-948D-0C8CFE233EE1";
paths = (
{
closed = 1;
nodes = (
"185 547 LINE",
"244 547 LINE",
"391 696 LINE",
"276 696 LINE"
);
},
{
closed = 1;
nodes = (
"67 570 OFFCURVE",
"91 544 OFFCURVE",
"126 544 CURVE SMOOTH",
"158 544 OFFCURVE",
"186 570 OFFCURVE",
"186 603 CURVE SMOOTH",
"186 635 OFFCURVE",
"158 662 OFFCURVE",
"126 662 CURVE SMOOTH",
"91 662 OFFCURVE",
"67 635 OFFCURVE",
"67 603 CURVE SMOOTH"
);
},
{
closed = 1;
nodes = (
"442 544 OFFCURVE",
"466 570 OFFCURVE",
"466 603 CURVE SMOOTH",
"466 635 OFFCURVE",
"442 662 OFFCURVE",
"407 662 CURVE SMOOTH",
"375 662 OFFCURVE",
"350 635 OFFCURVE",
"350 603 CURVE SMOOTH",
"350 570 OFFCURVE",
"375 544 OFFCURVE",
"407 544 CURVE SMOOTH"
);
},
{
closed = 1;
nodes = (
"459 483 LINE",
"377 483 LINE",
"377 193 LINE SMOOTH",
"377 121 OFFCURVE",
"329 61 OFFCURVE",
"252 61 CURVE SMOOTH",
"168 61 OFFCURVE",
"127 119 OFFCURVE",
"127 195 CURVE SMOOTH",
"127 483 LINE",
"45 483 LINE",
"45 218 LINE SMOOTH",
"45 70 OFFCURVE",
"110 -11 OFFCURVE",
"254 -11 CURVE SMOOTH",
"396 -11 OFFCURVE",
"459 77 OFFCURVE",
"459 220 CURVE SMOOTH"
);
}
);
width = 521;
}
);
unicode = 03B0;
},
{
glyphname = Omegatonos;
layers = (
{
hints = (
{
place = "{118, 87}";
type = Stem;
},
{
place = "{732, 87}";
type = Stem;
},
{
horizontal = 1;
place = "{0, 76}";
type = Stem;
},
{
horizontal = 1;
place = "{556, 149}";
type = Stem;
},
{
horizontal = 1;
place = "{642, 77}";
type = Stem;
}
);
layerId = "F34C6FC4-EF5D-4900-948D-0C8CFE233EE1";
paths = (
{
closed = 1;
nodes = (
"540 0 LINE",
"834 0 LINE",
"834 76 LINE",
"657 76 LINE",
"758 143 OFFCURVE",
"819 250 OFFCURVE",
"819 373 CURVE SMOOTH",
"819 576 OFFCURVE",
"673 719 OFFCURVE",
"471 719 CURVE SMOOTH",
"275 719 OFFCURVE",
"118 576 OFFCURVE",
"118 376 CURVE SMOOTH",
"118 253 OFFCURVE",
"177 142 OFFCURVE",
"280 76 CURVE",
"103 76 LINE",
"103 0 LINE",
"402 0 LINE",
"402 76 LINE",
"286 141 OFFCURVE",
"205 235 OFFCURVE",
"205 373 CURVE SMOOTH",
"205 533 OFFCURVE",
"310 642 OFFCURVE",
"470 642 CURVE SMOOTH",
"629 642 OFFCURVE",
"732 530 OFFCURVE",
"732 373 CURVE SMOOTH",
"732 234 OFFCURVE",
"654 145 OFFCURVE",
"540 76 CURVE"
);
},
{
closed = 1;
nodes = (
"0 556 LINE",
"59 556 LINE",
"206 705 LINE",
"91 705 LINE"
);
}
);
width = 896;
}
);
unicode = 038F;
},
{
glyphname = omega;
layers = (
{
hints = (
{
horizontal = 1;
place = "{-10, 61}";
type = Stem;
},
{
place = "{40, 83}";
type = Stem;
},
{
place = "{342, 83}";
type = Stem;
},
{
place = "{645, 83}";
type = Stem;
}
);
layerId = "F34C6FC4-EF5D-4900-948D-0C8CFE233EE1";
paths = (
{
closed = 1;
nodes = (
"425 352 LINE",
"342 352 LINE",
"342 246 LINE SMOOTH",
"342 176 OFFCURVE",
"323 51 OFFCURVE",
"235 51 CURVE SMOOTH",
"167 51 OFFCURVE",
"123 136 OFFCURVE",
"123 240 CURVE SMOOTH",
"123 336 OFFCURVE",
"159 420 OFFCURVE",
"247 500 CURVE",
"154 500 LINE",
"86 437 OFFCURVE",
"40 354 OFFCURVE",
"40 243 CURVE SMOOTH",
"40 99 OFFCURVE",
"113 -10 OFFCURVE",
"233 -10 CURVE SMOOTH",
"304 -10 OFFCURVE",
"358 28 OFFCURVE",
"383 81 CURVE",
"410 28 OFFCURVE",
"461 -10 OFFCURVE",
"532 -10 CURVE SMOOTH",
"653 -10 OFFCURVE",
"728 99 OFFCURVE",
"728 243 CURVE SMOOTH",
"728 354 OFFCURVE",
"681 439 OFFCURVE",
"614 500 CURVE",
"520 500 LINE",
"608 418 OFFCURVE",
"645 335 OFFCURVE",
"645 240 CURVE SMOOTH",
"645 133 OFFCURVE",
"601 51 OFFCURVE",
"530 51 CURVE SMOOTH",
"478 51 OFFCURVE",
"425 94 OFFCURVE",
"425 246 CURVE SMOOTH"
);
}
);
width = 768;
}
);
unicode = 03C9;
},
{
glyphname = omegatonos;
layers = (
{
hints = (
{
horizontal = 1;
place = "{-10, 61}";
type = Stem;
},
{
horizontal = 1;
place = "{563, 149}";
type = Stem;
},
{
place = "{40, 83}";
type = Stem;
},
{
place = "{342, 83}";
type = Stem;
},
{
place = "{645, 83}";
type = Stem;
}
);
layerId = "F34C6FC4-EF5D-4900-948D-0C8CFE233EE1";
paths = (
{
closed = 1;
nodes = (
"348 563 LINE",
"407 563 LINE",
"554 712 LINE",
"439 712 LINE"
);
},
{
closed = 1;
nodes = (
"425 352 LINE",
"342 352 LINE",
"342 246 LINE SMOOTH",
"342 176 OFFCURVE",
"323 51 OFFCURVE",
"235 51 CURVE SMOOTH",
"167 51 OFFCURVE",
"123 136 OFFCURVE",
"123 240 CURVE SMOOTH",
"123 336 OFFCURVE",
"159 420 OFFCURVE",
"247 500 CURVE",
"154 500 LINE",
"86 437 OFFCURVE",
"40 354 OFFCURVE",
"40 243 CURVE SMOOTH",
"40 99 OFFCURVE",
"113 -10 OFFCURVE",
"233 -10 CURVE SMOOTH",
"304 -10 OFFCURVE",
"358 28 OFFCURVE",
"383 81 CURVE",
"410 28 OFFCURVE",
"461 -10 OFFCURVE",
"532 -10 CURVE SMOOTH",
"653 -10 OFFCURVE",
"728 99 OFFCURVE",
"728 243 CURVE SMOOTH",
"728 354 OFFCURVE",
"681 439 OFFCURVE",
"614 500 CURVE",
"520 500 LINE",
"608 418 OFFCURVE",
"645 335 OFFCURVE",
"645 240 CURVE SMOOTH",
"645 133 OFFCURVE",
"601 51 OFFCURVE",
"530 51 CURVE SMOOTH",
"478 51 OFFCURVE",
"425 94 OFFCURVE",
"425 246 CURVE SMOOTH"
);
}
);
width = 768;
}
);
unicode = 03CE;
},
{
glyphname = epsilontonos;
layers = (
{
hints = (
{
place = "{41, 83}";
type = Stem;
},
{
place = "{61, 83}";
type = Stem;
},
{
horizontal = 1;
place = "{-10, 69}";
type = Stem;
},
{
horizontal = 1;
place = "{223, 68}";
type = Stem;
},
{
horizontal = 1;
place = "{425, 69}";
type = Stem;
},
{
horizontal = 1;
place = "{563, 149}";
type = Stem;
}
);
layerId = "F34C6FC4-EF5D-4900-948D-0C8CFE233EE1";
paths = (
{
closed = 1;
nodes = (
"180 563 LINE",
"239 563 LINE",
"386 712 LINE",
"271 712 LINE"
);
},
{
closed = 1;
nodes = (
"175 59 OFFCURVE",
"124 93 OFFCURVE",
"124 140 CURVE SMOOTH",
"124 183 OFFCURVE",
"167 223 OFFCURVE",
"264 223 CURVE SMOOTH",
"295 223 LINE",
"295 291 LINE",
"263 291 LINE SMOOTH",
"188 291 OFFCURVE",
"144 320 OFFCURVE",
"144 364 CURVE SMOOTH",
"144 403 OFFCURVE",
"184 425 OFFCURVE",
"237 425 CURVE SMOOTH",
"273 425 OFFCURVE",
"312 416 OFFCURVE",
"347 393 CURVE",
"368 466 LINE",
"325 483 OFFCURVE",
"282 494 OFFCURVE",
"235 494 CURVE SMOOTH",
"139 494 OFFCURVE",
"61 447 OFFCURVE",
"61 370 CURVE SMOOTH",
"61 322 OFFCURVE",
"92 277 OFFCURVE",
"156 254 CURVE",
"83 237 OFFCURVE",
"41 191 OFFCURVE",
"41 134 CURVE SMOOTH",
"41 50 OFFCURVE",
"130 -10 OFFCURVE",
"238 -10 CURVE SMOOTH",
"285 -10 OFFCURVE",
"332 1 OFFCURVE",
"379 20 CURVE",
"361 90 LINE",
"316 66 OFFCURVE",
"274 59 OFFCURVE",
"243 59 CURVE SMOOTH"
);
}
);
width = 407;
}
);
unicode = 03AD;
},
{
glyphname = xi;
layers = (
{
hints = (
{
place = "{40, 83}";
type = Stem;
},
{
place = "{85, 83}";
type = Stem;
},
{
place = "{318, 82}";
type = Stem;
},
{
horizontal = 1;
place = "{346, 69}";
type = Stem;
},
{
horizontal = 1;
place = "{666, 70}";
type = Stem;
}
);
layerId = "F34C6FC4-EF5D-4900-948D-0C8CFE233EE1";
paths = (
{
closed = 1;
nodes = (
"316 -21 OFFCURVE",
"318 -66 OFFCURVE",
"318 -90 CURVE SMOOTH",
"318 -110 OFFCURVE",
"315 -131 OFFCURVE",
"304 -159 CURVE",
"384 -167 LINE",
"391 -144 OFFCURVE",
"400 -112 OFFCURVE",
"400 -77 CURVE SMOOTH",
"400 -17 OFFCURVE",
"370 39 OFFCURVE",
"258 60 CURVE",
"173 77 OFFCURVE",
"123 122 OFFCURVE",
"123 202 CURVE SMOOTH",
"123 309 OFFCURVE",
"206 346 OFFCURVE",
"331 346 CURVE",
"331 415 LINE",
"214 415 OFFCURVE",
"168 457 OFFCURVE",
"168 526 CURVE SMOOTH",
"168 640 OFFCURVE",
"295 663 OFFCURVE",
"396 663 CURVE",
"396 736 LINE",
"73 736 LINE",
"73 666 LINE",
"204 666 LINE",
"124 643 OFFCURVE",
"85 587 OFFCURVE",
"85 523 CURVE SMOOTH",
"85 460 OFFCURVE",
"122 408 OFFCURVE",
"190 381 CURVE",
"106 365 OFFCURVE",
"40 285 OFFCURVE",
"40 192 CURVE SMOOTH",
"40 109 OFFCURVE",
"93 16 OFFCURVE",
"236 -8 CURVE SMOOTH"
);
}
);
width = 408;
}
);
unicode = 03BE;
},
{
glyphname = zeta;
layers = (
{
hints = (
{
horizontal = 1;
place = "{666, 70}";
type = Stem;
},
{
place = "{41, 83}";
type = Stem;
},
{
place = "{321, 82}";
type = Stem;
}
);
layerId = "F34C6FC4-EF5D-4900-948D-0C8CFE233EE1";
paths = (
{
closed = 1;
nodes = (
"409 736 LINE",
"86 736 LINE",
"86 666 LINE",
"333 666 LINE",
"142 534 OFFCURVE",
"41 372 OFFCURVE",
"41 216 CURVE SMOOTH",
"41 81 OFFCURVE",
"119 11 OFFCURVE",
"239 -8 CURVE",
"310 -21 OFFCURVE",
"321 -55 OFFCURVE",
"321 -87 CURVE SMOOTH",
"321 -106 OFFCURVE",
"318 -131 OFFCURVE",
"307 -159 CURVE",
"387 -167 LINE",
"394 -144 OFFCURVE",
"403 -115 OFFCURVE",
"403 -80 CURVE SMOOTH",
"403 -15 OFFCURVE",
"366 43 OFFCURVE",
"265 60 CURVE",
"160 79 OFFCURVE",
"124 137 OFFCURVE",
"124 218 CURVE SMOOTH",
"124 376 OFFCURVE",
"253 553 OFFCURVE",
"409 650 CURVE"
);
}
);
width = 411;
}
);
unicode = 03B6;
},
{
glyphname = uni03C2;
layers = (
{
hints = (
{
horizontal = 1;
place = "{423, 69}";
type = Stem;
},
{
place = "{51, 83}";
type = Stem;
},
{
place = "{329, 82}";
type = Stem;
}
);
layerId = "F34C6FC4-EF5D-4900-948D-0C8CFE233EE1";
paths = (
{
closed = 1;
nodes = (
"395 -167 LINE",
"406 -140 OFFCURVE",
"411 -111 OFFCURVE",
"411 -80 CURVE SMOOTH",
"411 0 OFFCURVE",
"355 31 OFFCURVE",
"286 57 CURVE SMOOTH",
"193 92 OFFCURVE",
"134 140 OFFCURVE",
"134 247 CURVE SMOOTH",
"134 335 OFFCURVE",
"183 423 OFFCURVE",
"280 423 CURVE SMOOTH",
"316 423 OFFCURVE",
"364 413 OFFCURVE",
"397 398 CURVE",
"408 465 LINE",
"369 484 OFFCURVE",
"326 492 OFFCURVE",
"282 492 CURVE SMOOTH",
"142 492 OFFCURVE",
"51 388 OFFCURVE",
"51 249 CURVE SMOOTH",
"51 129 OFFCURVE",
"117 36 OFFCURVE",
"233 -4 CURVE",
"300 -25 OFFCURVE",
"329 -44 OFFCURVE",
"329 -79 CURVE SMOOTH",
"329 -106 OFFCURVE",
"324 -132 OFFCURVE",
"315 -159 CURVE"
);
}
);
width = 491;
}
);
unicode = 03C2;
},
{
glyphname = phi;
layers = (
{
hints = (
{
horizontal = 1;
place = "{-10, 70}";
type = Stem;
},
{
horizontal = 1;
place = "{432, 70}";
type = Stem;
},
{
place = "{40, 83}";
type = Stem;
},
{
place = "{318, 83}";
type = Stem;
},
{
place = "{597, 83}";
type = Stem;
}
);
layerId = "F34C6FC4-EF5D-4900-948D-0C8CFE233EE1";
paths = (
{
closed = 1;
nodes = (
"318 -184 LINE",
"401 -184 LINE",
"401 -9 LINE",
"568 2 OFFCURVE",
"680 94 OFFCURVE",
"680 272 CURVE SMOOTH",
"680 413 OFFCURVE",
"611 502 OFFCURVE",
"494 502 CURVE SMOOTH",
"319 502 OFFCURVE",
"318 342 OFFCURVE",
"318 211 CURVE SMOOTH",
"318 60 LINE",
"202 68 OFFCURVE",
"123 146 OFFCURVE",
"123 267 CURVE SMOOTH",
"123 342 OFFCURVE",
"159 421 OFFCURVE",
"248 500 CURVE",
"154 500 LINE",
"86 447 OFFCURVE",
"40 358 OFFCURVE",
"40 262 CURVE SMOOTH",
"40 93 OFFCURVE",
"162 1 OFFCURVE",
"318 -10 CURVE"
);
},
{
closed = 1;
nodes = (
"401 256 LINE SMOOTH",
"401 395 OFFCURVE",
"443 432 OFFCURVE",
"490 432 CURVE SMOOTH",
"570 432 OFFCURVE",
"597 337 OFFCURVE",
"597 271 CURVE SMOOTH",
"597 139 OFFCURVE",
"529 72 OFFCURVE",
"401 61 CURVE"
);
}
);
width = 720;
}
);
unicode = 03C6;
},
{
glyphname = Agrave;
layers = (
{
hints = (
{
place = "{26, 687}";
type = Stem;
},
{
horizontal = 1;
place = "{0, 21}";
target = up;
type = BottomGhost;
},
{
horizontal = 1;
place = "{197, 75}";
type = Stem;
},
{
horizontal = 1;
place = "{606, 99}";
type = Stem;
},
{
horizontal = 1;
place = "{705, -20}";
target = down;
type = TopGhost;
}
);
layerId = "F34C6FC4-EF5D-4900-948D-0C8CFE233EE1";
paths = (
{
closed = 1;
nodes = (
"362 763 LINE",
"425 763 LINE",
"330 912 LINE",
"236 892 LINE"
);
},
{
closed = 1;
nodes = (
"536 197 LINE",
"620 0 LINE",
"713 0 LINE",
"404 705 LINE",
"334 705 LINE",
"26 0 LINE",
"117 0 LINE",
"202 197 LINE"
);
},
{
closed = 1;
nodes = (
"369 606 LINE",
"504 272 LINE",
"234 272 LINE"
);
}
);
width = 737;
}
);
unicode = 00C0;
},
{
glyphname = Aacute;
layers = (
{
hints = (
{
place = "{26, 687}";
type = Stem;
},
{
horizontal = 1;
place = "{0, 21}";
target = up;
type = BottomGhost;
},
{
horizontal = 1;
place = "{197, 75}";
type = Stem;
},
{
horizontal = 1;
place = "{606, 99}";
type = Stem;
},
{
horizontal = 1;
place = "{705, -20}";
target = down;
type = TopGhost;
}
);
layerId = "F34C6FC4-EF5D-4900-948D-0C8CFE233EE1";
paths = (
{
closed = 1;
nodes = (
"494 892 LINE",
"398 912 LINE",
"307 763 LINE",
"366 763 LINE"
);
},
{
closed = 1;
nodes = (
"536 197 LINE",
"620 0 LINE",
"713 0 LINE",
"404 705 LINE",
"334 705 LINE",
"26 0 LINE",
"117 0 LINE",
"202 197 LINE"
);
},
{
closed = 1;
nodes = (
"369 606 LINE",
"504 272 LINE",
"234 272 LINE"
);
}
);
width = 737;
}
);
unicode = 00C1;
},
{
glyphname = Acircumflex;
layers = (
{
hints = (
{
place = "{26, 687}";
type = Stem;
},
{
horizontal = 1;
place = "{0, 21}";
target = up;
type = BottomGhost;
},
{
horizontal = 1;
place = "{197, 75}";
type = Stem;
},
{
horizontal = 1;
place = "{606, 99}";
type = Stem;
},
{
horizontal = 1;
place = "{705, -20}";
target = down;
type = TopGhost;
},
{
horizontal = 1;
place = "{758, 141}";
type = Stem;
}
);
layerId = "F34C6FC4-EF5D-4900-948D-0C8CFE233EE1";
paths = (
{
closed = 1;
nodes = (
"408 899 LINE",
"335 899 LINE",
"228 758 LINE",
"294 758 LINE",
"370 840 LINE",
"448 758 LINE",
"514 758 LINE"
);
},
{
closed = 1;
nodes = (
"536 197 LINE",
"620 0 LINE",
"713 0 LINE",
"404 705 LINE",
"334 705 LINE",
"26 0 LINE",
"117 0 LINE",
"202 197 LINE"
);
},
{
closed = 1;
nodes = (
"369 606 LINE",
"504 272 LINE",
"234 272 LINE"
);
}
);
width = 737;
}
);
unicode = 00C2;
},
{
glyphname = Atilde;
layers = (
{
hints = (
{
place = "{26, 687}";
type = Stem;
},
{
horizontal = 1;
place = "{0, 21}";
target = up;
type = BottomGhost;
},
{
horizontal = 1;
place = "{197, 75}";
type = Stem;
},
{
horizontal = 1;
place = "{606, 99}";
type = Stem;
},
{
horizontal = 1;
place = "{705, -20}";
target = down;
type = TopGhost;
},
{
horizontal = 1;
place = "{767, 68}";
type = Stem;
},
{
horizontal = 1;
place = "{804, 68}";
type = Stem;
}
);
layerId = "F34C6FC4-EF5D-4900-948D-0C8CFE233EE1";
paths = (
{
closed = 1;
nodes = (
"260 758 LINE",
"271 791 OFFCURVE",
"295 804 OFFCURVE",
"319 804 CURVE SMOOTH",
"361 804 OFFCURVE",
"399 767 OFFCURVE",
"442 767 CURVE SMOOTH",
"489 767 OFFCURVE",
"517 806 OFFCURVE",
"536 870 CURVE",
"483 880 LINE",
"472 851 OFFCURVE",
"459 835 OFFCURVE",
"436 835 CURVE SMOOTH",
"400 835 OFFCURVE",
"361 872 OFFCURVE",
"313 872 CURVE SMOOTH",
"261 872 OFFCURVE",
"225 831 OFFCURVE",
"206 768 CURVE"
);
},
{
closed = 1;
nodes = (
"536 197 LINE",
"620 0 LINE",
"713 0 LINE",
"404 705 LINE",
"334 705 LINE",
"26 0 LINE",
"117 0 LINE",
"202 197 LINE"
);
},
{
closed = 1;
nodes = (
"369 606 LINE",
"504 272 LINE",
"234 272 LINE"
);
}
);
width = 737;
}
);
unicode = 00C3;
},
{
glyphname = Adieresis;
layers = (
{
hints = (
{
place = "{217, 119}";
type = Stem;
},
{
place = "{409, 116}";
type = Stem;
},
{
horizontal = 1;
place = "{0, 21}";
target = up;
type = BottomGhost;
},
{
horizontal = 1;
place = "{197, 75}";
type = Stem;
},
{
horizontal = 1;
place = "{606, 99}";
type = Stem;
},
{
horizontal = 1;
place = "{705, -20}";
target = down;
type = TopGhost;
},
{
horizontal = 1;
place = "{765, 118}";
type = Stem;
}
);
layerId = "F34C6FC4-EF5D-4900-948D-0C8CFE233EE1";
paths = (
{
closed = 1;
nodes = (
"217 791 OFFCURVE",
"241 765 OFFCURVE",
"276 765 CURVE SMOOTH",
"308 765 OFFCURVE",
"336 791 OFFCURVE",
"336 824 CURVE SMOOTH",
"336 856 OFFCURVE",
"308 883 OFFCURVE",
"276 883 CURVE SMOOTH",
"241 883 OFFCURVE",
"217 856 OFFCURVE",
"217 824 CURVE SMOOTH"
);
},
{
closed = 1;
nodes = (
"409 791 OFFCURVE",
"434 765 OFFCURVE",
"466 765 CURVE SMOOTH",
"501 765 OFFCURVE",
"525 791 OFFCURVE",
"525 824 CURVE SMOOTH",
"525 856 OFFCURVE",
"501 883 OFFCURVE",
"466 883 CURVE SMOOTH",
"434 883 OFFCURVE",
"409 856 OFFCURVE",
"409 824 CURVE SMOOTH"
);
},
{
closed = 1;
nodes = (
"536 197 LINE",
"620 0 LINE",
"713 0 LINE",
"404 705 LINE",
"334 705 LINE",
"26 0 LINE",
"117 0 LINE",
"202 197 LINE"
);
},
{
closed = 1;
nodes = (
"369 606 LINE",
"504 272 LINE",
"234 272 LINE"
);
}
);
width = 737;
}
);
unicode = 00C4;
},
